<svg width="375" height="444" viewBox="0 0 375 444" fill="none" xmlns="http://www.w3.org/2000/svg">
<path d="M309.522 67.1062H344.16V57.1695H309.522V67.1062Z" fill="#EBEBEB"/>
<path d="M328.839 44.6398C334.612 44.551 349.167 44.3201 354.749 44.2668H363.476H363.896V44.6753V54.612V55.056H363.44L346.112 54.9939C341.798 54.9939 333.107 54.8696 328.784 54.8074H328.656V54.612L328.857 44.6753L328.839 44.6398ZM328.839 44.6398L329.048 54.5765L328.839 54.3723C333.162 54.319 341.844 54.2302 346.167 54.1947L363.495 54.1325L363.039 54.5765L363.084 44.6398L363.495 45.0483H354.913C349.441 44.995 334.539 44.773 328.857 44.6842L328.839 44.6398Z" fill="#EBEBEB"/>
<path d="M290.188 44.6398C295.961 44.551 310.525 44.3201 316.098 44.2668H324.835H325.245V44.6753V54.612V55.056H324.789L307.461 54.9939C303.147 54.9939 294.447 54.8696 290.133 54.8074H289.923V54.612L290.124 44.6753L290.188 44.6398ZM290.188 44.6398L290.398 54.5765L290.188 54.3723C294.511 54.319 303.193 54.2302 307.516 54.1947L324.844 54.1325L324.388 54.5765V44.6398L324.807 45.0483H316.216C310.744 44.995 295.842 44.773 290.16 44.6842L290.188 44.6398Z" fill="#EBEBEB"/>
<path d="M-3.47624 44.6398C2.2876 44.551 16.8522 44.3201 22.4246 44.2668H31.1615H31.581V44.6753V54.612V55.056H31.125L13.797 54.9939C9.48328 54.9939 0.791917 54.8696 -3.53096 54.8074H-3.74072V54.612L-3.53096 44.6753L-3.47624 44.6398ZM-3.47624 44.6398L-3.31208 54.5765L-3.51272 54.3723C0.810157 54.319 9.48328 54.2302 13.8153 54.1947L31.1433 54.1325L30.6873 54.5765V44.6398L31.1068 45.0483H22.5158C17.0438 44.995 2.14168 44.773 -3.53096 44.6842L-3.47624 44.6398Z" fill="#EBEBEB"/>
<path d="M15.8491 346.418H50.4868V336.481H15.8491V346.418Z" fill="#EBEBEB"/>
<path d="M-3.47624 323.96C2.2876 323.863 16.8522 323.64 22.4246 323.587H31.1615H31.581V323.996V333.932V334.376H31.125L13.797 334.323C9.48328 334.279 0.791917 334.199 -3.53096 334.137H-3.74072V333.888L-3.53096 323.951L-3.47624 323.96ZM-3.47624 323.96L-3.31208 333.888L-3.51272 333.684C0.810157 333.622 9.48328 333.542 13.8153 333.506L31.1433 333.444L30.6873 333.888V323.951L31.1068 324.351H22.5158C17.0438 324.298 2.14168 324.067 -3.53096 323.987L-3.47624 323.96Z" fill="#EBEBEB"/>
<path d="M66.9119 121.034C72.6849 120.946 87.2404 120.724 92.8218 120.67H101.55H101.969V121.079V131.016V131.46H101.568L84.2399 131.397C79.9262 131.397 71.2348 131.273 66.9119 131.22H66.7021V131.024L66.9119 121.034ZM66.9119 121.034L67.1126 130.971L66.9119 130.776C71.2348 130.714 79.9079 130.625 84.2399 130.589L101.568 130.527L101.112 130.971V121.034L101.531 121.443H92.9495C87.4775 121.381 72.5754 121.159 66.8937 121.07L66.9119 121.034Z" fill="#EBEBEB"/>
<path d="M328.839 336.472C334.612 336.383 349.167 336.161 354.749 336.108H363.476H363.896V336.517V346.453V346.897H363.44L346.112 346.835C341.798 346.835 333.107 346.711 328.784 346.657H328.656V346.453L328.857 336.517L328.839 336.472ZM328.839 336.472L329.048 346.409L328.839 346.213C333.162 346.151 341.844 346.063 346.167 346.027L363.495 345.965L363.039 346.409L363.084 336.472L363.495 336.881H354.913C349.441 336.827 334.539 336.596 328.857 336.508L328.839 336.472Z" fill="#EBEBEB"/>
<path d="M229.905 208.849H195.267V218.785H229.905V208.849Z" fill="#EBEBEB"/>
<path d="M210.579 231.315C204.806 231.404 190.251 231.626 184.669 231.679L175.941 231.724H175.522V231.315V221.378V220.934H175.978L193.306 220.997C197.62 220.997 206.311 221.121 210.634 221.174H210.844V221.37L210.634 231.306L210.579 231.315ZM210.579 231.315L210.379 221.378L210.579 221.574C206.256 221.636 197.583 221.725 193.251 221.76L175.923 221.822L176.379 221.378V231.315L175.96 230.907H184.542C190.014 230.96 204.916 231.191 210.597 231.28L210.579 231.315Z" fill="#EBEBEB"/>
<path d="M294.903 47.7922H232.595V108.46H294.903V47.7922Z" fill="white"/>
<path d="M229.348 44.6398V111.622H298.14V44.6398H229.348ZM294.912 108.46H232.595V47.7922H294.912V108.46Z" fill="#DBDBDB"/>
<path d="M290.416 96.721V75.7465H241.852V96.721H290.416Z" fill="#EBEBEB"/>
<path d="M276.188 90.2386V66.0139H251.309V90.2386H276.188Z" fill="#C7C7C7"/>
<path d="M300.795 44.6398H298.141V111.622H300.795V44.6398Z" fill="#C7C7C7"/>
<path d="M294.903 133.937H232.595V194.605H294.903V133.937Z" fill="white"/>
<path d="M259.572 143.643H243.302V189.402H259.572V143.643Z" fill="#C7C7C7"/>
<path d="M229.348 130.785V197.758H298.14V130.785H229.348ZM294.912 194.605H232.595V133.937H294.912V194.605Z" fill="#DBDBDB"/>
<path d="M276.18 152.159H251.3V176.383H276.18V152.159Z" fill="#EBEBEB"/>
<path d="M300.795 130.785H298.141V197.767H300.795V130.785Z" fill="#C7C7C7"/>
<path d="M294.903 220.082H232.595V280.75H294.903V220.082Z" fill="white"/>
<path d="M273.69 228.349H239.499V248.249H273.69V228.349Z" fill="#EBEBEB"/>
<path d="M229.348 216.93V283.903H298.14V216.93H229.348ZM294.912 280.75H232.595V220.082H294.912V280.75Z" fill="#DBDBDB"/>
<path d="M276.18 238.304H251.3V262.528H276.18V238.304Z" fill="#C7C7C7"/>
<path d="M300.795 216.93H298.141V283.911H300.795V216.93Z" fill="#C7C7C7"/>
<path d="M5.80811 44.6398V270.84H156.799V44.6398H5.80811ZM151.227 265.379H11.3987V50.0655H151.227V265.379Z" fill="#EBEBEB"/>
<path d="M151.226 50.0654H11.3984V265.379H151.226V50.0654Z" fill="white"/>
<path d="M11.3896 160.426L151.227 160.426V155L11.3896 155V160.426Z" fill="#EBEBEB"/>
<path d="M-4.44267 286.362H167.05V270.796H-4.44267V286.362Z" fill="#DBDBDB"/>
<path d="M11.3896 50.0566H151.227V189.366H11.3896V50.0566ZM146.065 55.0561H16.5607V184.34H146.065V55.0561Z" fill="#DBDBDB"/>
<path d="M106.593 50.0566H103.812V184.34H106.593V50.0566Z" fill="#DBDBDB"/>
<path d="M58.8046 50.0566H56.0229V184.34H58.8046V50.0566Z" fill="#DBDBDB"/>
<path d="M363.987 378.039H341.351H318.688C316.545 378.039 318.688 305.445 318.688 298.013C318.688 290.58 334.839 266.862 334.839 262.662C334.839 258.461 334.839 221.023 334.839 221.023H347.799C347.799 221.023 347.799 258.461 347.799 262.662C347.799 266.862 363.978 290.607 363.987 298.004C363.996 305.401 366.13 378.039 363.987 378.039Z" fill="#DBDBDB"/>
<path d="M364.917 329.99H317.73V363.29H364.917V329.99Z" fill="#EBEBEB"/>
<path d="M347.744 209.257H335.131V215.695H347.744V209.257Z" fill="#C7C7C7"/>
<path d="M345.747 215.686H337.119V220.766H345.747V215.686Z" fill="#DBDBDB"/>
<path d="M348.884 216.583H333.763V221.751H348.884V216.583Z" fill="#C7C7C7"/>
<path d="M-6.68652 378.066C112.922 377.524 247.087 377.515 366.686 378.066C247.078 378.608 112.913 378.608 -6.68652 378.066Z" fill="#263238"/>
<path d="M365.136 287.446C352.414 304.22 339.153 323.685 335.952 344.722C335.952 345.041 336.435 345.139 336.508 344.828C337.972 339.082 339.853 333.444 342.136 327.956C350.499 325.718 358.707 323.871 363.112 315.791C367.589 307.488 367.015 296.654 366.167 287.605C366.048 287.144 365.355 287.117 365.136 287.446Z" fill="#FFC727"/>
<path d="M342.199 327.823C347.917 315.338 355.25 302.799 364.57 292.534C364.634 292.463 364.735 292.534 364.68 292.64C358.57 299.949 353.937 307.914 349.404 316.013C353.617 311.848 358.232 308.118 362.217 303.705C362.3 303.625 362.418 303.749 362.345 303.829C358.387 308.465 354.055 313.491 348.902 316.918C347.516 319.405 346.115 321.894 344.698 324.386C345.045 324.2 345.409 324.031 345.765 323.862C345.829 323.862 345.884 323.925 345.82 323.951C345.428 324.147 345.035 324.351 344.625 324.52C343.959 325.701 343.293 326.882 342.609 328.072C342.454 328.32 342.081 328.089 342.199 327.823Z" fill="#263238"/>
<path d="M346.449 323.472C349.868 321.603 353.134 319.481 356.217 317.123C356.299 317.06 356.418 317.167 356.335 317.238C353.35 319.748 350.079 321.917 346.586 323.703C346.555 323.72 346.517 323.725 346.482 323.716C346.447 323.707 346.417 323.684 346.399 323.654C346.381 323.623 346.376 323.587 346.386 323.553C346.395 323.519 346.418 323.489 346.449 323.472Z" fill="#263238"/>
<path d="M334.411 341.596C334.411 341.844 334.885 341.844 334.876 341.596C334.949 334.669 334.876 327.716 334.994 320.754C336.818 317.202 340.731 315.187 343.448 312.318C345.405 310.225 347.106 307.919 348.519 305.445C351.796 299.528 353.8 293.023 354.411 286.327C355.159 278.921 352.277 254.465 349.066 255.318C347.397 255.762 342.017 267.874 340.585 271.87C338.278 278.47 336.584 285.258 335.523 292.152C332.924 308.447 333.143 325.186 334.411 341.596Z" fill="#FFC727"/>
<path d="M334.365 311.688C334.757 302.923 336.791 294.079 338.688 285.572C340.731 276.417 343.12 267.812 347.963 259.625C347.981 259.594 348.011 259.572 348.046 259.562C348.081 259.553 348.119 259.558 348.15 259.576C348.182 259.593 348.205 259.622 348.214 259.657C348.223 259.691 348.218 259.727 348.2 259.758C344.974 266.111 342.475 272.79 340.749 279.676C341.078 279.187 341.47 278.717 341.807 278.246C341.935 278.068 342.245 278.246 342.117 278.432C341.683 279.171 341.176 279.867 340.603 280.51C340.603 280.51 340.603 280.51 340.54 280.51C338.88 287.055 337.676 293.75 336.654 300.428C336.736 300.348 336.809 300.251 336.882 300.171C336.895 300.163 336.91 300.159 336.924 300.159C336.939 300.16 336.954 300.165 336.966 300.174C336.978 300.182 336.986 300.194 336.991 300.208C336.996 300.222 336.996 300.237 336.992 300.251C336.864 300.473 336.718 300.695 336.581 300.917C336.062 304.3 335.587 307.683 335.104 311.04C341.306 305.88 346.604 299.798 349.587 292.303C349.587 292.303 349.66 292.303 349.65 292.303C346.723 300.073 342.108 306.99 335.013 311.706C334.876 312.594 334.748 313.482 334.621 314.37C334.621 314.556 334.283 314.512 334.283 314.325C334.283 313.535 334.329 312.727 334.356 311.928C334.328 311.893 334.314 311.85 334.316 311.806C334.318 311.762 334.335 311.721 334.365 311.688Z" fill="#263238"/>
<path d="M337.283 299.007C342.026 292.125 346.449 285.439 349.915 277.829C349.915 277.74 350.106 277.829 350.07 277.891C347.151 285.456 343.056 293.111 337.521 299.203C337.411 299.309 337.192 299.149 337.283 299.007Z" fill="#263238"/>
<path d="M343.576 276.168C345.546 272.794 347.617 269.499 349.459 266.054C349.514 265.956 349.65 266.054 349.605 266.134C348.09 269.732 346.172 273.157 343.887 276.346C343.859 276.378 343.82 276.399 343.778 276.406C343.735 276.414 343.692 276.406 343.654 276.385C343.617 276.363 343.589 276.33 343.575 276.29C343.56 276.251 343.561 276.207 343.576 276.168Z" fill="#263238"/>
<path d="M342.809 277.598V277.659C342.809 277.659 342.775 277.598 342.809 277.598Z" fill="#263238"/>
<path d="M329.568 321.563C329.473 326.154 328.917 330.725 327.908 335.211C327.981 335.702 328.054 336.2 328.127 336.703C329.591 331.737 330.442 326.618 330.663 321.456C330.705 321.384 330.727 321.303 330.727 321.221C330.727 321.138 330.705 321.057 330.663 320.985C330.862 314.081 330.333 307.174 329.085 300.375C326.887 287.641 322.072 275.422 312.952 265.885C312.877 265.822 312.788 265.777 312.693 265.752C312.598 265.728 312.498 265.725 312.401 265.743C312.304 265.762 312.213 265.802 312.135 265.861C312.056 265.919 311.992 265.994 311.948 266.08C308.3 275.191 309.55 286.069 312.687 295.153C314.396 300.098 316.842 304.772 319.947 309.024C323.075 313.26 327.06 316.883 329.568 321.563Z" fill="#FFC727"/>
<path d="M314.064 270.165C322.71 283.823 328.72 300.011 329.458 316.146C329.458 316.43 328.975 316.501 328.939 316.217C328.729 314.761 328.501 313.331 328.264 311.892C324.689 308.553 321.022 305.037 318.46 300.872C318.454 300.856 318.454 300.838 318.46 300.822C318.465 300.806 318.476 300.792 318.49 300.782C318.504 300.772 318.521 300.767 318.539 300.767C318.556 300.767 318.573 300.773 318.587 300.783C321.697 304.238 324.598 307.79 328.109 310.871C327.489 307.319 326.759 303.767 325.893 300.339C325.655 300.082 325.437 299.815 325.209 299.558C324.981 299.3 325.309 299.132 325.464 299.309L325.674 299.531C324.444 294.79 322.921 290.125 321.114 285.563C318.916 283.006 316.453 280.794 314.857 277.722C314.848 277.708 314.844 277.691 314.848 277.674C314.851 277.657 314.861 277.643 314.876 277.633C314.89 277.624 314.908 277.62 314.925 277.624C314.942 277.627 314.957 277.637 314.967 277.651C316.253 279.427 317.502 281.203 318.961 282.819C319.545 283.467 320.183 284.08 320.785 284.711C318.789 279.762 316.424 274.963 313.708 270.352C313.683 270.306 313.677 270.252 313.693 270.202C313.708 270.152 313.743 270.11 313.79 270.085C313.837 270.06 313.893 270.055 313.944 270.07C313.995 270.085 314.039 270.119 314.064 270.165Z" fill="#263238"/>
<path d="M315.806 287.01C318.597 290.669 321.78 294.159 324.379 297.942C324.452 298.057 324.288 298.164 324.196 298.084C320.858 295.038 318.04 290.873 315.615 287.117C315.542 287.002 315.724 286.904 315.806 287.01Z" fill="#263238"/>
<path d="M324.771 298.794L324.889 298.91C324.903 298.927 324.909 298.948 324.907 298.969C324.906 298.991 324.897 299.011 324.881 299.026C324.865 299.041 324.845 299.05 324.823 299.052C324.801 299.053 324.779 299.047 324.762 299.034L324.643 298.919C324.63 298.901 324.624 298.88 324.625 298.859C324.627 298.838 324.636 298.818 324.652 298.802C324.667 298.787 324.688 298.778 324.71 298.777C324.732 298.775 324.753 298.781 324.771 298.794Z" fill="#263238"/>
<path d="M300.521 296.414C301.214 303.447 305.008 311.839 309.641 317.247C311.676 319.603 314.195 321.518 317.037 322.868C320.238 324.413 323.585 326.189 326.905 327.459C328.483 331.363 329.653 335.412 330.398 339.545C330.507 339.189 330.608 338.825 330.717 338.47C328.592 320.683 316.8 305.472 301.643 295.704C301.524 295.628 301.385 295.587 301.243 295.586C301.101 295.586 300.962 295.626 300.843 295.701C300.723 295.777 300.629 295.884 300.572 296.011C300.515 296.138 300.497 296.278 300.521 296.414Z" fill="#FFC727"/>
<path d="M305.747 301.671C305.637 301.583 305.747 301.396 305.893 301.476C314.199 307.481 320.825 315.419 325.163 324.564C325.273 324.813 324.935 325.026 324.789 324.777C324.087 323.578 323.366 322.415 322.637 321.27C319.189 320.639 315.915 318.268 313.362 316.021C313.289 315.968 313.362 315.87 313.462 315.924C314.78 317.1 316.249 318.105 317.831 318.916C319.235 319.609 320.749 320.044 322.217 320.604C320.931 318.623 319.6 316.732 318.214 314.894C314.483 313.512 310.985 311.597 307.835 309.21C307.821 309.195 307.812 309.175 307.81 309.154C307.808 309.133 307.813 309.112 307.824 309.094C307.835 309.076 307.852 309.062 307.872 309.054C307.892 309.046 307.914 309.045 307.935 309.051C311.055 310.888 314.273 312.562 317.575 314.068C315.468 311.363 313.196 308.783 310.772 306.342C309.595 305.738 308.401 305.135 307.27 304.486C307.178 304.433 307.27 304.282 307.343 304.318C308.286 304.64 309.187 305.072 310.024 305.605C308.656 304.291 307.251 302.968 305.747 301.671Z" fill="#263238"/>
<path d="M306.066 307.816C306.269 307.936 306.464 308.07 306.649 308.216C306.704 308.269 306.649 308.34 306.576 308.314C306.364 308.217 306.159 308.104 305.965 307.976C305.856 307.914 305.956 307.745 306.066 307.816Z" fill="#263238"/>
<path d="M354.32 378.066H312.878L316.225 341.321L316.955 333.222H350.234L350.973 341.321L354.32 378.066Z" fill="#455A64"/>
<path d="M350.973 341.321H316.226L316.955 333.222H350.234L350.973 341.321Z" fill="#263238"/>
<path d="M352.222 327.557H314.976V335.575H352.222V327.557Z" fill="#455A64"/>
<path d="M118.176 95.4334C114.974 95.4334 101.495 92.1212 90.7243 103.079C80.5373 113.442 72.8035 147.941 69.9307 155.302C67.0579 162.664 56.6611 162.504 53.0587 171.029C49.9579 178.346 55.2657 181.862 55.0925 187.51C54.9648 191.888 49.6205 197.793 52.8125 204.702C55.7035 210.98 62.352 210.58 66.0182 212.898C69.6845 215.216 70.9248 224.344 77.8742 227.648C84.8237 230.951 92.0558 225.339 95.8862 225.872C99.7166 226.405 102.726 238.455 115.394 239.05C128.062 239.645 133.068 229.788 138.522 228.394C143.976 227 156.48 232.185 163.265 226.618C170.05 221.05 172.193 212.809 175.285 210.056C178.377 207.304 183.885 208.511 188.172 201.771C192.458 195.032 186.229 189.624 186.11 183.283C186.019 178.843 190.506 175.407 188.618 168.436C186.028 158.863 174.346 159.343 171.245 149.459C168.819 141.707 166.037 108.984 147.35 98.6213C134.4 91.5262 118.176 95.4334 118.176 95.4334Z" fill="#263238"/>
<path d="M70.5602 153.526C69.7394 155.134 68.1251 156.19 66.6659 157.194L62.1059 160.098C59.1055 162.007 56.0594 163.969 53.8979 166.607C52.7901 167.834 51.9889 169.294 51.557 170.873C51.125 172.452 51.0741 174.107 51.4082 175.709C51.8437 177.326 52.5327 178.869 53.451 180.282C54.5276 181.828 55.3606 183.522 55.9226 185.308C56.3603 187.492 55.4027 189.419 54.6458 190.973C53.8888 192.527 52.9677 194.126 52.2654 195.689C50.8154 198.779 50.0949 202.189 51.2987 205.297C51.834 206.826 52.885 208.135 54.281 209.009C55.7738 209.874 57.4244 210.45 59.1419 210.705C60.8839 211.051 62.6896 211.229 64.4862 211.486C66.2829 211.744 68.2072 212.063 69.557 213.307C68.0704 212.25 66.2008 212.161 64.4315 212.019C62.6622 211.877 60.7835 211.886 58.9595 211.681C57.0767 211.504 55.2483 210.967 53.5787 210.101C51.8579 209.14 50.521 207.641 49.7848 205.847C48.1158 202.295 49.0552 198.211 50.5053 194.969C51.2258 193.291 52.083 191.719 52.8218 190.156C53.5605 188.593 54.1898 187.057 53.8706 185.716C53.1683 182.804 50.2773 179.9 49.5386 176.117C49.1483 174.253 49.2255 172.325 49.7638 170.496C50.302 168.667 51.2853 166.992 52.6302 165.612C55.1747 162.85 58.3941 161.021 61.5314 159.263L66.3011 156.75C67.888 155.835 69.5387 155.009 70.5602 153.526Z" fill="#263238"/>
<path d="M163.165 118.992C165.901 124.782 167.177 131.033 169.102 137.018C170.068 140.02 170.926 143.048 172.111 145.898C172.652 147.308 173.346 148.656 174.182 149.921C174.348 150.217 174.568 150.481 174.829 150.703C175.058 150.961 175.326 151.186 175.622 151.369C176.243 151.804 176.918 152.203 177.602 152.594C180.45 154.159 183.214 155.866 185.882 157.709C188.518 159.654 190.99 162.247 192.011 165.497C192.563 167.113 192.683 168.84 192.358 170.514C191.95 172.109 191.239 173.615 190.26 174.954C188.39 177.538 186.612 180.149 186.083 183.319C186.083 180.104 187.834 177.103 189.394 174.439C190.213 173.157 190.782 171.739 191.072 170.256C191.258 168.803 191.064 167.328 190.506 165.967C189.296 163.203 187.299 160.834 184.752 159.139C182.101 157.386 179.362 155.765 176.544 154.281C175.85 153.855 175.148 153.393 174.464 152.931C173.71 152.407 173.068 151.743 172.576 150.978C171.679 149.581 170.941 148.092 170.378 146.538C169.256 143.545 168.324 140.487 167.588 137.383L165.408 128.138C164.842 125.05 164.093 121.996 163.165 118.992Z" fill="#263238"/>
<path d="M178.605 208.378C176.991 209.994 176.498 212.312 175.686 214.399C174.875 216.485 174.127 218.661 173.233 220.775C172.364 222.93 171.264 224.99 169.95 226.919C168.611 228.968 166.78 230.669 164.615 231.875C159.863 234.041 154.72 233.056 150.324 231.679C148.089 230.978 145.928 230.17 143.739 229.521C141.59 228.723 139.276 228.437 136.99 228.687C139.206 227.87 141.696 228.18 143.985 228.562C146.274 228.944 148.545 229.681 150.752 230.187C155.139 231.217 159.872 231.892 163.684 230.072C165.561 229.033 167.16 227.579 168.354 225.827C169.654 224.019 170.803 222.112 171.792 220.126C172.841 218.137 173.78 216.077 174.756 214.026C175.267 213.005 175.796 211.983 176.361 210.989C176.861 209.942 177.635 209.042 178.605 208.378Z" fill="#263238"/>
<path d="M106.63 229.104C110.688 264.42 148.454 357.5 162.417 366.744C173.753 374.265 218.961 383.136 242.737 382.542C252.504 382.293 257.931 316.945 243.247 316.403C217.93 315.515 202.317 312.496 195.495 309.299C190.178 306.804 165.034 268.389 128.071 222.515C114.336 205.474 104.368 209.151 106.63 229.104Z" fill="#AD6359"/>
<path d="M232.54 380.33C233.699 380.721 250.215 386.165 260.138 387.55C267.543 388.589 288.938 391.013 290.918 383.19C292.276 377.862 279.864 374.985 271.136 372.765C266.576 371.601 260.548 367.907 261.433 365.012C262.983 359.951 274.857 363.192 282.81 366.353C298.195 372.454 319.226 384.344 326.896 376.121C329.796 373.022 325.291 368.706 319.025 364.728C328.875 369.017 339.181 372.232 342.537 368.902C344.47 367.01 344.251 364.799 342.692 362.455C345.61 362.961 348.054 362.455 349.523 360.439C352.031 357.038 349.96 352.811 346.084 348.718C346.629 348.583 347.133 348.324 347.554 347.963C347.976 347.602 348.304 347.148 348.51 346.64C353.408 336.534 318.414 314.245 307.251 313.233C274.465 310.232 241.095 317.522 241.095 317.522C230.032 328.933 232.513 380.313 232.54 380.33Z" fill="#AD6359"/>
<path d="M275.094 345.512C282.813 345.636 290.417 347.355 297.402 350.556C306.193 354.623 312.395 359.942 320.028 365.119C320.229 365.252 320.028 365.563 319.819 365.421C316.171 362.97 301.287 353.877 297.484 351.897C290.601 348.192 282.94 346.066 275.085 345.681C275.003 345.645 275.012 345.512 275.094 345.512Z" fill="#263238"/>
<path d="M279.116 331.597C287.771 332.68 296.645 333.755 304.935 336.534C314.009 339.58 321.634 345.53 329.103 351.231C333.578 354.658 337.983 358.178 342.318 361.789C342.5 361.94 342.318 362.251 342.108 362.1C334.508 356.18 326.732 350.497 318.779 345.05C311.433 339.953 303.128 336.314 294.337 334.341C289.312 333.222 284.205 332.485 279.107 331.748C279.007 331.73 279.016 331.588 279.116 331.597Z" fill="#263238"/>
<path d="M286.376 318.916C294.711 319.431 301.98 319.849 309.759 323.099C320.065 327.397 330.589 335.531 334.292 338.47C338.378 341.676 342.354 345.015 346.267 348.416C346.431 348.549 346.185 348.824 346.02 348.691C337.099 341.298 327.694 334.476 317.867 328.267C313.235 325.238 308.15 322.925 302.792 321.412C297.438 319.982 291.848 319.529 286.376 319.005C286.33 318.97 286.339 318.916 286.376 318.916Z" fill="#263238"/>
<path d="M125.672 311.031L169.348 262.191C169.348 262.191 137.893 225.374 117.428 209.799C105.964 201.079 98.8595 209.621 99.9812 222.373C103.885 266.995 125.672 311.031 125.672 311.031Z" fill="#FFC727"/>
<path d="M125.672 311.031L169.348 262.191C169.348 262.191 137.893 225.374 117.428 209.799C105.964 201.079 98.8595 209.621 99.9812 222.373C103.885 266.995 125.672 311.031 125.672 311.031Z" fill="#37474F"/>
<path opacity="0.1" d="M164.35 267.732L125.681 311.04C125.681 311.04 103.894 266.995 99.9722 222.373C99.2061 213.608 102.334 206.842 108.08 206.3L164.35 267.732Z" fill="black"/>
<path d="M159.936 257.183C152.576 264.153 133.178 283.636 122.27 297.897C122.206 297.986 122.517 298.27 122.59 298.19C133.534 287.659 153.68 265.166 160.392 257.6C160.501 257.458 160.064 257.049 159.936 257.183Z" fill="#263238"/>
<path d="M-6.95996 378.474L157.018 378.066L147.168 319.751C147.168 319.751 161.322 303.021 158.641 284.87C155.704 264.988 118.887 214.585 115.777 211.753C103.319 200.359 85.7904 195.973 72.384 205.847C30.9245 236.359 -6.95996 378.474 -6.95996 378.474Z" fill="#455A64"/>
<path d="M156.379 374.274H-5.79248C-5.54624 373.386 -5.2544 372.338 -4.92608 371.184H155.85L156.379 374.274ZM153.753 358.823H-1.2872C-1.61552 359.889 -1.91648 360.91 -2.1992 361.904H154.282L153.753 358.823ZM151.664 346.462H2.4976L1.5856 349.543H152.184L151.664 346.462ZM149.567 334.101H6.48304L5.47984 337.182H150.087L149.567 334.101ZM147.469 321.731H10.6691C10.3043 322.773 9.94864 323.803 9.60208 324.822H147.989L147.469 321.731ZM15.0467 309.37C14.6637 310.4 14.2989 311.43 13.925 312.461H152.084C152.631 311.51 153.187 310.471 153.744 309.37H15.0467ZM19.6614 297.009C19.2602 298.039 18.868 299.078 18.4758 300.1H157.392C157.684 299.096 157.939 298.057 158.158 297.009H19.6614ZM158.605 284.87C158.605 284.799 158.605 284.728 158.605 284.648H24.5406C24.1211 285.678 23.7016 286.7 23.2912 287.73H158.887C158.842 286.824 158.741 285.829 158.605 284.87ZM154.464 272.287H29.739C29.2922 273.309 28.827 274.339 28.4166 275.369H155.741C155.376 274.392 154.893 273.344 154.464 272.287ZM148.18 259.926H35.357C34.8645 260.948 34.3902 261.978 33.9069 263.008H149.813C149.266 261.96 148.709 260.965 148.135 259.926H148.18ZM140.884 247.557H41.4947L39.8987 250.647H142.708C142.079 249.617 141.45 248.587 140.784 247.557H140.884ZM132.886 235.196H48.3894C47.7875 236.208 47.1765 237.238 46.5654 238.286H134.847C134.178 237.238 133.5 236.208 132.813 235.196H132.886ZM124.313 222.835H56.4606C55.731 223.838 55.0106 224.868 54.2901 225.925H126.438C125.691 224.85 124.952 223.82 124.24 222.835H124.313ZM115.823 211.752C115.348 211.314 114.865 210.888 114.373 210.474H66.9122C65.909 211.445 64.9149 212.472 63.9299 213.555H117.282C116.808 212.925 116.297 212.323 115.75 211.752H115.823ZM82.2976 201.194H96.3606C91.7179 200.081 86.8673 200.081 82.2246 201.194H82.2976Z" fill="#37474F"/>
<path d="M118.796 315.169C111.47 315.804 104.203 316.964 97.0536 318.641C93.515 319.529 90.0403 320.568 86.5656 321.678C84.8328 322.237 83.1 322.726 81.3489 323.223C79.532 323.784 77.6515 324.127 75.7492 324.244C75.7201 324.252 75.6943 324.269 75.6758 324.292C75.6574 324.315 75.6475 324.344 75.6475 324.373C75.6475 324.402 75.6574 324.431 75.6758 324.454C75.6943 324.478 75.7201 324.494 75.7492 324.502C77.5491 324.589 79.353 324.557 81.1483 324.404C82.8823 324.201 84.6006 323.887 86.292 323.463C89.8852 322.575 93.442 321.571 97.0353 320.675C104.277 318.899 111.518 317.052 118.923 315.755C118.995 315.731 119.055 315.682 119.092 315.618C119.129 315.554 119.141 315.479 119.125 315.407C119.109 315.335 119.067 315.271 119.007 315.227C118.946 315.184 118.871 315.163 118.796 315.169Z" fill="#263238"/>
<path d="M136.89 321.456C130.859 320.827 124.797 320.531 118.732 320.568C115.695 320.568 112.685 320.808 109.658 321.092C108.217 321.234 106.776 321.394 105.344 321.571C103.757 321.767 102.207 322.166 100.62 322.344C100.456 322.344 100.456 322.61 100.62 322.602C102.115 322.477 103.638 322.602 105.18 322.602L109.74 322.486C112.768 322.415 115.786 322.371 118.814 322.273C124.87 322.078 130.898 321.936 136.954 321.936C137.227 321.962 137.2 321.509 136.89 321.456Z" fill="#263238"/>
<path d="M237.347 299.363C240.821 301.725 239.107 303.332 236.097 301.574C233.088 299.815 217.21 290.713 216.617 290.376C216.471 290.275 216.306 290.205 216.131 290.17C215.956 290.136 215.776 290.137 215.601 290.174C215.427 290.212 215.263 290.284 215.119 290.387C214.975 290.491 214.855 290.622 214.767 290.773C214.678 290.924 214.624 291.091 214.606 291.264C214.588 291.437 214.607 291.612 214.663 291.777C214.719 291.942 214.809 292.094 214.929 292.223C215.049 292.351 215.195 292.454 215.358 292.525L234.921 303.945C237.31 305.33 238.432 308.882 233.452 305.978L214.127 294.709C214.003 294.606 213.856 294.531 213.698 294.491C213.539 294.451 213.374 294.446 213.213 294.477C213.053 294.507 212.901 294.573 212.771 294.669C212.64 294.764 212.533 294.888 212.458 295.029C212.375 295.171 212.324 295.328 212.308 295.49C212.292 295.652 212.311 295.815 212.364 295.97C212.418 296.124 212.504 296.265 212.618 296.385C212.731 296.504 212.87 296.599 213.023 296.663L232.349 307.941C237.328 310.844 233.744 311.652 231.355 310.258L211.792 298.848C211.645 298.758 211.48 298.699 211.308 298.675C211.136 298.65 210.961 298.66 210.793 298.704C210.625 298.748 210.469 298.825 210.333 298.931C210.197 299.036 210.085 299.168 210.003 299.317C209.922 299.467 209.873 299.631 209.859 299.8C209.846 299.968 209.868 300.138 209.925 300.298C209.981 300.458 210.071 300.605 210.188 300.729C210.306 300.854 210.448 300.954 210.607 301.023C211.209 301.369 226.931 310.711 229.95 312.469C232.969 314.228 232.467 316.545 228.701 314.681C228.701 314.681 203.712 301.796 200.328 298.128C196.945 294.461 199.416 290.669 193.871 287.366C190.415 285.332 131.144 253.16 125.253 247.113C119.361 241.065 122.042 237.984 122.042 237.984C122.042 237.984 123.283 234.077 131.39 236.208C139.498 238.339 194.738 282.482 198.094 282.943C204.56 283.831 204.132 281.674 208.965 282.801C213.799 283.929 237.347 299.363 237.347 299.363Z" fill="#C7C7C7"/>
<path d="M212.194 356.976C212.194 356.976 212.86 321.536 213.033 312.345C213.206 303.154 214.738 293.271 226.448 292.72C232.176 292.454 240.913 296.619 241.825 303.909C243.448 316.874 230.425 316.963 230.425 316.963L229.878 346.16L212.194 356.976Z" fill="#FFC727"/>
<g opacity="0.2">
<path d="M236.143 314.965C235.413 314.967 234.695 314.78 234.064 314.423C231.601 313.073 230.361 309.441 230.261 306.644C230.133 303.252 231.109 298.768 233.571 296.965C234.162 296.532 234.856 296.251 235.588 296.15C236.32 296.049 237.066 296.131 237.757 296.388C237.805 296.397 237.85 296.417 237.889 296.444C237.929 296.472 237.962 296.507 237.986 296.548C238.011 296.589 238.026 296.634 238.031 296.681C238.037 296.728 238.032 296.776 238.017 296.821C238.002 296.866 237.978 296.907 237.945 296.943C237.913 296.978 237.874 297.006 237.829 297.026C237.785 297.045 237.737 297.055 237.689 297.056C237.64 297.056 237.592 297.046 237.547 297.027C236.961 296.805 236.327 296.731 235.704 296.812C235.08 296.892 234.488 297.125 233.981 297.489C231.82 299.087 230.817 303.288 230.945 306.618C231.036 309.237 232.167 312.611 234.401 313.846C235.046 314.175 235.771 314.328 236.498 314.289C237.225 314.25 237.928 314.02 238.532 313.624C238.61 313.596 238.696 313.596 238.774 313.625C238.852 313.653 238.916 313.708 238.956 313.779C238.996 313.85 239.008 313.933 238.991 314.012C238.973 314.091 238.927 314.161 238.861 314.21C238.034 314.68 237.1 314.94 236.143 314.965Z" fill="black"/>
<path d="M228.911 313.464C228.726 313.481 228.539 313.481 228.354 313.464C226.795 313.233 224.624 310.196 224.761 305.312C224.889 300.934 226.685 293.599 232.577 293.599H232.768C232.85 293.612 232.923 293.653 232.977 293.714C233.03 293.775 233.059 293.852 233.059 293.932C233.059 294.012 233.03 294.09 232.977 294.151C232.923 294.212 232.85 294.252 232.768 294.265H232.604C227.223 294.265 225.582 301.192 225.463 305.33C225.336 309.93 227.351 312.638 228.473 312.807C228.739 312.876 229.018 312.881 229.286 312.822C229.554 312.764 229.804 312.643 230.014 312.469C230.607 311.901 230.789 310.631 230.543 308.784C230.537 308.741 230.539 308.697 230.55 308.655C230.562 308.612 230.582 308.573 230.609 308.538C230.636 308.503 230.67 308.474 230.709 308.453C230.748 308.431 230.79 308.417 230.835 308.411C230.926 308.401 231.017 308.426 231.088 308.481C231.16 308.536 231.207 308.616 231.218 308.704C231.501 310.818 231.264 312.203 230.498 312.94C230.283 313.127 230.032 313.269 229.759 313.359C229.486 313.449 229.198 313.485 228.911 313.464Z" fill="black"/>
<path d="M229.148 317.611C226.795 317.69 224.504 316.871 222.764 315.329C219.225 312.114 218.988 306.618 219.043 304.398C219.207 298.466 222.527 292.365 227.816 292.365H227.907C227.953 292.365 227.997 292.374 228.039 292.391C228.08 292.408 228.118 292.433 228.149 292.464C228.181 292.496 228.205 292.533 228.222 292.574C228.238 292.615 228.246 292.659 228.245 292.703C228.248 292.747 228.241 292.792 228.224 292.834C228.207 292.875 228.182 292.913 228.149 292.944C228.116 292.975 228.077 292.999 228.033 293.014C227.99 293.029 227.944 293.035 227.898 293.031H227.816C223.01 293.031 219.882 298.919 219.727 304.415C219.672 306.546 219.9 311.812 223.229 314.84C224.196 315.672 225.34 316.287 226.579 316.64C227.818 316.993 229.122 317.076 230.397 316.883C230.487 316.878 230.576 316.906 230.645 316.962C230.715 317.018 230.76 317.098 230.771 317.185C230.776 317.229 230.772 317.273 230.759 317.315C230.746 317.358 230.724 317.397 230.696 317.431C230.667 317.465 230.631 317.493 230.591 317.513C230.55 317.533 230.506 317.545 230.461 317.549C230.025 317.592 229.586 317.613 229.148 317.611Z" fill="black"/>
<path d="M234.191 312.39C233.307 312.365 232.443 312.13 231.674 311.706C231.633 311.686 231.597 311.659 231.567 311.625C231.538 311.591 231.515 311.552 231.502 311.51C231.488 311.467 231.483 311.423 231.488 311.379C231.492 311.335 231.506 311.292 231.528 311.253C231.548 311.214 231.576 311.18 231.61 311.152C231.644 311.124 231.684 311.103 231.727 311.091C231.769 311.079 231.814 311.075 231.858 311.08C231.903 311.085 231.945 311.098 231.984 311.12C233.68 312.008 235.057 311.928 236.097 310.986C238.04 309.21 238.195 305.01 237.356 303.145C237.113 302.473 236.715 301.865 236.191 301.367C235.667 300.87 235.033 300.497 234.337 300.277C233.839 300.175 233.324 300.193 232.835 300.327C232.346 300.462 231.897 300.71 231.528 301.05C231.463 301.111 231.377 301.145 231.286 301.145C231.196 301.145 231.109 301.111 231.045 301.05C230.982 300.988 230.947 300.905 230.947 300.819C230.947 300.732 230.982 300.65 231.045 300.588C231.496 300.187 232.04 299.897 232.63 299.743C233.22 299.588 233.84 299.574 234.437 299.7C235.238 299.944 235.97 300.364 236.577 300.928C237.184 301.491 237.651 302.183 237.939 302.95C238.851 305.028 238.696 309.557 236.517 311.537C235.882 312.1 235.05 312.405 234.191 312.39Z" fill="black"/>
<path d="M222.481 351.186C222.391 351.184 222.305 351.147 222.242 351.084C222.179 351.021 222.144 350.937 222.144 350.849L222.809 315.409C222.809 315.231 222.973 315.125 223.156 315.089C223.246 315.091 223.332 315.128 223.395 315.191C223.458 315.254 223.493 315.339 223.493 315.426L222.828 350.858C222.828 350.902 222.819 350.945 222.801 350.986C222.784 351.026 222.758 351.063 222.726 351.093C222.693 351.124 222.655 351.148 222.613 351.164C222.571 351.18 222.526 351.187 222.481 351.186Z" fill="black"/>
<path d="M217.392 354.081C217.302 354.079 217.216 354.042 217.153 353.979C217.09 353.916 217.055 353.832 217.055 353.744C217.21 345.308 217.301 338.275 217.374 332.068C217.611 312.585 217.711 304.54 219.462 300.934C219.502 300.855 219.572 300.794 219.657 300.764C219.742 300.734 219.836 300.738 219.918 300.775C219.96 300.793 219.997 300.819 220.027 300.851C220.058 300.883 220.082 300.921 220.097 300.963C220.112 301.004 220.119 301.048 220.116 301.092C220.114 301.136 220.102 301.179 220.083 301.219C218.395 304.682 218.259 313.26 218.058 332.077C217.985 338.293 217.894 345.317 217.739 353.753C217.739 353.796 217.73 353.84 217.712 353.88C217.695 353.921 217.669 353.957 217.637 353.988C217.604 354.019 217.566 354.043 217.524 354.059C217.482 354.075 217.437 354.082 217.392 354.081Z" fill="black"/>
<path d="M227.05 348.327C226.961 348.322 226.878 348.285 226.817 348.222C226.756 348.159 226.722 348.076 226.722 347.989L227.296 317.167C227.301 317.081 227.339 316.999 227.404 316.94C227.468 316.88 227.554 316.847 227.643 316.847C227.688 316.847 227.733 316.856 227.774 316.873C227.816 316.89 227.853 316.915 227.885 316.947C227.916 316.978 227.941 317.015 227.957 317.056C227.974 317.097 227.981 317.141 227.98 317.185L227.406 347.998C227.401 348.087 227.361 348.171 227.295 348.232C227.229 348.293 227.141 348.327 227.05 348.327Z" fill="black"/>
</g>
<path opacity="0.1" d="M229.969 341.187L229.878 346.125L212.194 356.976L212.358 348.096C216.617 346.027 223.959 345.485 223.959 345.485C223.959 345.485 226.722 341.88 229.969 341.187Z" fill="black"/>
<path d="M55.968 222.959C18.6581 276.026 -14.9035 374.221 -0.64898 391.608C15.2381 410.922 66.155 340.841 63.5923 338.035C61.4217 335.646 77.2723 280.439 82.9176 233.295C88.3987 187.865 65.2248 209.843 55.968 222.959Z" fill="#AD6359"/>
<path d="M10.0488 286.771L76.561 287.863C76.561 287.863 85.2432 240.719 84.313 215.455C83.784 201.301 75.3207 202.056 66.0183 211.095C33.4507 242.744 10.0488 286.771 10.0488 286.771Z" fill="#37474F"/>
<path d="M74.418 277.624C64.1945 276.63 36.3967 274.721 18.1659 275.768C18.0564 275.768 18.0291 276.186 18.1659 276.195C33.4692 277.544 64.1398 278.104 74.4089 278.228C74.5731 278.237 74.6095 277.642 74.418 277.624Z" fill="#263238"/>
<path d="M68.4531 287.712C71.1891 287.534 73.8613 287.428 76.5699 287.357L76.0683 287.765C76.8435 280.608 77.8923 273.477 79.0232 266.382C80.1541 259.287 81.5221 252.174 83.2002 245.168C82.6621 252.361 81.7683 259.5 80.7378 266.631C79.7072 273.762 78.4942 280.839 77.0898 287.943L76.9986 288.378H76.5882C73.8643 288.206 71.1526 287.984 68.4531 287.712Z" fill="#263238"/>
<path d="M81.1851 259.429C81.5252 257.934 82.0424 256.483 82.7263 255.105C83.3951 253.715 84.1758 252.379 85.0611 251.109C85.035 251.887 84.8968 252.658 84.6507 253.4C84.4333 254.138 84.1526 254.856 83.8116 255.549C83.1486 256.967 82.2625 258.277 81.1851 259.429Z" fill="#263238"/>
<path d="M4.54945 394.538C14.4173 398.694 41.7134 395.826 93.0134 355.715C100.811 349.623 80.8291 282.411 71.4446 287.392C59.5886 293.662 32.2286 315.231 29.2373 317.584C3.98401 337.52 -6.79583 389.77 4.54945 394.538Z" fill="#AD6359"/>
<path d="M56.5698 300.561C56.5698 300.561 75.0652 279.178 88.3621 270.876C106.155 259.758 126.228 257.289 134.701 256.747C152.394 255.629 195.96 264.81 195.431 277.491C194.957 288.973 150.907 277.385 150.907 277.385C150.907 277.385 197.811 281.984 194.592 295.704C191.373 309.424 141.067 293.147 141.067 293.147C141.067 293.147 189.156 298.919 183.566 312.558C179.352 322.868 132.895 310.622 132.895 310.622C132.895 310.622 174.2 315.862 170.333 326.606C166.055 338.514 122.444 329.839 122.444 329.839C107.852 355.591 90.0949 362.109 76.8436 365.252C73.7245 366.051 56.5698 300.561 56.5698 300.561Z" fill="#AD6359"/>
<path d="M134.783 274.792C140.319 275.129 145.918 275.449 151.399 276.266C156.881 277.083 162.343 278.104 167.706 279.418C180.894 282.642 188.682 286.673 188.126 286.478C176.16 281.789 156.598 278.548 151.108 277.722C145.617 276.896 140.218 275.813 134.746 274.987C134.61 274.969 134.655 274.783 134.783 274.792Z" fill="#263238"/>
<path d="M131.372 293.999C138.413 294.736 145.435 295.224 152.448 296.263C159.462 297.302 165.946 298.874 172.831 300.375C173.36 300.49 173.123 300.73 172.585 300.641C165.645 299.407 159.133 298.785 152.175 297.631C145.216 296.477 138.312 295.065 131.345 294.159C131.235 294.15 131.272 293.99 131.372 293.999Z" fill="#263238"/>
<path d="M125.399 309.974C136.224 310.569 146.922 313.109 157.319 315.835C157.838 315.977 157.492 316.252 156.954 316.137C146.365 313.997 138.084 312.247 125.344 310.347C125.18 310.312 125.171 309.965 125.399 309.974Z" fill="#263238"/>
<path d="M122.48 329.874C133.989 331.792 145.791 333.533 157.455 332.725C160.307 332.545 163.11 331.915 165.754 330.86C170.123 328.906 170.953 325.017 166.949 322.086C161.705 318.055 153.898 315.799 147.752 313.26C157.911 314.743 169.156 317.327 179.261 314.636C187.259 311.839 181.578 306.236 176.808 303.581C173.762 301.882 170.595 300.398 167.332 299.141L171.892 300.029C175.268 300.661 178.689 301.032 182.125 301.139C185.499 301.139 189.175 301.068 192.075 299.176C189.284 301.281 185.527 301.538 182.125 301.689C178.636 301.769 175.146 301.537 171.701 300.996L171.983 300.055C176.543 302.027 181.724 304.158 184.304 308.624C187.04 314.84 178.459 317.06 173.771 317.265C167.732 317.616 161.671 317.303 155.704 316.332L156.206 314.636C161.149 316.785 168.691 319.36 170.971 324.573C172.148 327.832 169.393 331.126 166.411 332.263C155.203 336.703 134.217 332.574 122.48 329.892V329.874Z" fill="#263238"/>
<path d="M68.4533 287.712C56.2325 297.285 40.2269 308.749 28.8634 319.005C22.2908 325.549 16.6387 332.912 12.0552 340.903C10.1864 344.1 8.52331 347.407 7.07568 350.804C11.4762 336.458 20.1046 323.684 31.8912 314.068C43.6013 304.637 55.968 296.059 68.4533 287.712Z" fill="#263238"/>
<path d="M85.5168 208.778C85.9636 211.823 98.8502 232.416 112.877 232.958C117.437 233.135 119.525 208.849 119.525 208.849L120.1 207.073L128.107 182.448L99.5068 160.959L95.3846 158.064C95.3846 158.064 93.6427 164.937 91.5724 173.524C91.4721 173.924 91.3718 174.314 91.2806 174.749C91.1894 175.185 91.0161 175.637 90.9158 176.135C90.5875 177.413 90.2592 178.728 90.0038 180.033C89.7667 181.028 89.5387 181.996 89.338 183.043C89.1374 184.091 88.9003 185.121 88.6632 186.178C86.5656 196.621 85.3435 207.49 85.5168 208.778Z" fill="#AD6359"/>
<path d="M128.135 182.466L120.118 207.091L119.544 208.867C119.544 208.867 119.544 209.017 119.544 209.284C106.104 202.457 95.8152 190.932 90.7427 177.023C90.8065 176.739 90.8795 176.463 90.9524 176.188C91.0528 175.735 91.1804 175.3 91.3081 174.803C91.4358 174.306 91.5088 173.977 91.6091 173.577C93.6793 164.99 95.4121 158.117 95.4121 158.117L99.5708 160.994L128.135 182.466Z" fill="#263238"/>
<path d="M171.491 156.492C166.521 202.242 138.021 204.524 127.952 203.476C118.832 202.526 87.8243 198.148 87.9702 152.15C88.1162 106.151 111.363 93.9326 132.366 95.0249C153.37 96.1171 176.462 110.751 171.491 156.492Z" fill="#AD6359"/>
<path d="M163.128 158.064C162.101 157.736 161.093 157.354 160.109 156.919C158.951 156.466 157.984 156.226 157.255 155.143C157.078 154.825 157.014 154.459 157.073 154.102C157.133 153.746 157.312 153.418 157.583 153.171C158.796 152.177 160.319 152.39 161.76 152.869C163.202 153.314 164.423 154.263 165.189 155.533C165.348 155.836 165.413 156.178 165.379 156.516C165.344 156.855 165.21 157.176 164.993 157.443C164.776 157.71 164.485 157.91 164.154 158.02C163.823 158.13 163.467 158.145 163.128 158.064Z" fill="#263238"/>
<path d="M131.929 152.736C133.01 152.743 134.091 152.693 135.166 152.585C136.407 152.514 137.401 152.585 138.44 151.812C138.708 151.564 138.885 151.236 138.943 150.879C139 150.523 138.936 150.158 138.76 149.841C137.93 148.527 136.388 148.243 134.893 148.269C133.379 148.242 131.91 148.772 130.78 149.752C130.546 149.994 130.387 150.294 130.32 150.62C130.253 150.945 130.281 151.282 130.401 151.592C130.52 151.903 130.727 152.175 130.997 152.377C131.267 152.579 131.59 152.703 131.929 152.736Z" fill="#263238"/>
<path d="M137.182 160.399C137.182 160.275 136.917 160.515 136.908 160.639C136.562 163.756 135.641 167.273 132.631 167.912C132.54 167.912 132.531 168.09 132.631 168.09C136.224 168.081 137.373 163.392 137.182 160.399Z" fill="#263238"/>
<path d="M134.819 156.776C129.785 155.711 127.97 165.656 132.631 166.651C137.291 167.646 139.042 157.673 134.819 156.776Z" fill="#263238"/>
<path d="M132.731 156.954C131.737 157.362 130.688 158.206 129.603 158.126C128.344 158.028 127.597 156.821 126.976 155.684C126.913 155.56 126.803 155.631 126.776 155.764C126.402 157.673 126.776 159.76 128.828 160.399C130.652 160.994 132.357 159.511 133.187 157.735C133.351 157.371 133.123 156.794 132.731 156.954Z" fill="#263238"/>
<path d="M155.157 163.712C155.212 163.605 155.376 163.907 155.348 164.031C154.664 167.095 154.436 170.709 157.054 172.254C157.136 172.299 157.054 172.45 156.99 172.414C153.616 171.304 154.008 166.509 155.157 163.712Z" fill="#263238"/>
<path d="M158.577 161.012C163.703 161.554 162.225 171.562 157.456 171.055C152.686 170.549 154.282 160.55 158.577 161.012Z" fill="#263238"/>
<path d="M160.611 161.971C161.331 162.619 161.988 163.694 162.946 163.889C164.049 164.12 165.034 163.161 165.9 162.22C165.992 162.131 166.065 162.22 166.046 162.353C165.809 164.271 164.87 166.171 162.946 166.278C161.185 166.367 160.209 164.546 159.991 162.575C159.936 162.211 160.319 161.714 160.611 161.971Z" fill="#263238"/>
<path d="M128.445 184.979C128.928 185.912 129.357 187.11 130.387 187.563C131.521 187.914 132.718 188.023 133.898 187.883C133.924 187.877 133.951 187.88 133.975 187.891C133.998 187.903 134.017 187.922 134.027 187.946C134.037 187.97 134.038 187.996 134.029 188.021C134.021 188.045 134.003 188.065 133.981 188.078C133.35 188.52 132.607 188.786 131.833 188.849C131.059 188.911 130.282 188.768 129.585 188.434C128.29 187.741 128.016 186.356 128.107 185.024C128.116 184.837 128.372 184.846 128.445 184.979Z" fill="#263238"/>
<path d="M144.715 177.289C144.715 177.289 144.086 181.978 143.493 184.1C143.429 184.304 142.882 184.251 142.134 184.1C142.134 184.1 142.07 184.1 142.043 184.1C140.085 183.93 138.213 183.237 136.633 182.098C135.052 180.96 133.826 179.418 133.087 177.644C133.073 177.619 133.064 177.591 133.06 177.561C133.057 177.532 133.06 177.503 133.068 177.475C133.077 177.447 133.091 177.421 133.11 177.398C133.129 177.375 133.152 177.356 133.178 177.342C133.205 177.328 133.233 177.32 133.263 177.317C133.293 177.313 133.323 177.316 133.352 177.324C133.381 177.333 133.408 177.346 133.431 177.365C133.454 177.383 133.474 177.406 133.488 177.431C135.777 180.255 138.787 181.631 142.171 182.599C142.49 182.049 142.973 174.545 143.329 174.607C144.542 174.829 146.658 176.241 147.953 177.023C149.558 167.308 149.558 157.425 151.3 147.772C151.3 147.694 151.331 147.62 151.388 147.565C151.444 147.51 151.521 147.479 151.601 147.479C151.68 147.479 151.757 147.51 151.813 147.565C151.87 147.62 151.902 147.694 151.902 147.772C152.649 158.135 151.053 169.35 149.667 179.429C149.503 180.681 145.481 177.884 144.715 177.289Z" fill="#263238"/>
<path d="M140.885 182.404C139.486 183.654 137.781 184.532 135.932 184.953C134.92 185.155 133.867 185.043 132.923 184.633C130.871 183.745 131.154 181.783 131.847 180.193C132.222 179.355 132.696 178.562 133.26 177.831C135.236 180.107 137.908 181.71 140.885 182.404Z" fill="#263238"/>
<path d="M135.932 184.953C134.92 185.155 133.867 185.043 132.923 184.633C130.871 183.745 131.154 181.783 131.847 180.193C134.118 180.823 136.133 182.733 135.932 184.953Z" fill="#FF97B8"/>
<path d="M87.9701 158.064C95.1293 160.959 102.07 141.192 102.07 141.192C102.07 141.192 118.312 141.343 129.311 124.178C129.311 124.178 125.718 133.795 116.899 139.345C116.899 139.345 144.113 145.01 162.389 127.108C162.389 127.108 154.309 136.619 148.855 139.185C148.855 139.185 160.894 139.7 169.211 132.694C169.211 132.694 169.658 146.538 172.047 151.084C172.047 151.084 185.125 104.633 140.884 95.8063C140.884 95.8063 114.044 88.3915 97.537 105.912C81.0298 123.432 87.9701 158.064 87.9701 158.064Z" fill="#263238"/>
<path d="M95.6126 157.176C95.6126 157.176 89.6664 140.668 82.2883 142.391C74.9102 144.114 76.6339 166.171 83.3736 170.949C90.1132 175.726 94.7644 169.688 94.7644 169.688L95.6126 157.176Z" fill="#AD6359"/>
<path d="M82.9451 148.678C82.8265 148.633 82.7535 148.793 82.8447 148.864C87.5233 152.416 88.946 157.922 89.475 163.419C88.4535 161.083 86.6113 159.458 83.4831 160.577C83.319 160.639 83.3919 160.888 83.547 160.897C84.5573 160.856 85.5552 161.125 86.4008 161.665C87.2464 162.205 87.8972 162.989 88.262 163.907C88.8736 165.446 89.3138 167.045 89.5753 168.676C89.6939 169.208 90.615 169.191 90.5876 168.613C90.5876 168.613 90.5876 168.525 90.5876 168.48C92.5849 161.927 89.9766 151.289 82.9451 148.678Z" fill="#263238"/>
<path d="M88.6358 178.017C88.3255 180.171 87.6829 182.267 86.7297 184.233C85.3526 186.897 83.8113 187.208 82.7625 187.039C82.3418 186.976 81.9409 186.822 81.5891 186.588C81.2373 186.355 80.9434 186.048 80.7287 185.69C78.4943 182.235 81.2212 171.633 81.8505 169.475C82.2598 170.051 82.7764 170.548 83.3736 170.94C82.3977 174.492 80.8017 182.431 82.2609 184.739C82.3451 184.881 82.461 185.003 82.5999 185.095C82.7388 185.187 82.8973 185.248 83.0635 185.272C83.9755 185.414 85.0608 183.994 85.8816 181.552C86.7836 178.811 87.2331 175.949 87.2131 173.071C87.2131 171.002 86.9304 169.519 86.4835 169.279C86.3639 169.261 86.2492 169.22 86.1461 169.158C86.043 169.096 85.9537 169.015 85.8832 168.919C85.8128 168.823 85.7626 168.714 85.7357 168.599C85.7088 168.484 85.7057 168.365 85.7265 168.249C85.7453 168.133 85.7877 168.021 85.8513 167.921C85.9148 167.82 85.9983 167.733 86.0968 167.665C86.1953 167.596 86.3068 167.547 86.4249 167.521C86.5429 167.495 86.6651 167.492 86.7844 167.512C88.4807 167.788 89.0188 170.309 89.028 173.08C89.0487 174.734 88.9175 176.386 88.6358 178.017Z" fill="#FFC727"/>
<path d="M257.447 406.642C311.618 406.642 355.533 400.038 355.533 391.892C355.533 383.746 311.618 377.142 257.447 377.142C203.276 377.142 159.361 383.746 159.361 391.892C159.361 400.038 203.276 406.642 257.447 406.642Z" fill="#DBDBDB"/>
<path d="M257.447 399.582C291.304 399.582 318.751 395.591 318.751 390.667C318.751 385.743 291.304 381.751 257.447 381.751C223.589 381.751 196.142 385.743 196.142 390.667C196.142 395.591 223.589 399.582 257.447 399.582Z" fill="#C7C7C7"/>
<path d="M289.02 347.652C296.672 349.943 296.891 356.639 295.869 359.871C294.848 363.103 291.492 368.547 283.202 366.087C276.69 364.133 275.614 358.175 276.818 354.356C278.432 349.25 284.05 346.169 289.02 347.652Z" fill="#FFC727"/>
<path opacity="0.3" d="M289.02 347.652C296.672 349.943 296.891 356.639 295.869 359.871C294.848 363.103 291.492 368.547 283.202 366.087C276.69 364.133 275.614 358.175 276.818 354.356C278.432 349.25 284.05 346.169 289.02 347.652Z" fill="black"/>
<path opacity="0.1" d="M294.912 362.118C293.243 365.048 289.768 368.023 283.229 366.069C276.69 364.116 275.632 358.157 276.845 354.33C277.456 352.411 278.645 350.714 280.258 349.462C281.872 348.209 283.835 347.458 285.892 347.306C284.313 347.705 282.863 348.489 281.681 349.584C280.499 350.679 279.622 352.05 279.134 353.566C278.013 357.118 279.007 362.606 285.035 364.417C290.042 365.918 293.088 364.275 294.912 362.118Z" fill="black"/>
<g opacity="0.2">
<path d="M280.438 360.413C282.427 362.046 285.309 363.316 287.579 361.585L287.88 361.389L288.145 361.611C289.577 362.819 291.93 363.387 293.261 361.736C293.705 361.209 294.084 360.634 294.392 360.022C294.242 360.713 293.984 361.378 293.626 361.993C292.322 364.249 289.294 363.769 287.552 362.277H288.118C285.591 364.24 282.062 362.757 280.438 360.395V360.413Z" fill="black"/>
<path d="M286.348 357.704C283.859 359.56 280.138 358.086 279.052 355.307C278.91 354.934 278.788 354.555 278.688 354.17C278.97 354.472 279.198 354.783 279.435 355.058C280.18 356.12 281.237 356.938 282.467 357.405C283.697 357.873 285.044 357.968 286.33 357.678L286.348 357.704Z" fill="black"/>
<path d="M291.903 353.628C290.553 356.017 286.905 355.404 285.747 353.122C287.717 354.232 289.732 354.836 291.903 353.628Z" fill="black"/>
</g>
<path d="M247.233 337.44C255.085 338.932 256.043 345.556 255.377 348.877C254.711 352.199 251.975 357.962 243.466 356.354C236.772 355.085 235.048 349.25 235.833 345.352C236.872 340.148 242.126 336.499 247.233 337.44Z" fill="#FFC727"/>
<path opacity="0.3" d="M247.233 337.44C255.085 338.932 256.043 345.556 255.377 348.877C254.711 352.199 251.975 357.962 243.466 356.354C236.772 355.085 235.048 349.25 235.833 345.352C236.872 340.148 242.126 336.499 247.233 337.44Z" fill="black"/>
<path opacity="0.1" d="M254.647 351.231C253.316 354.321 250.179 357.633 243.466 356.372C236.754 355.111 235.058 349.268 235.833 345.361C236.231 343.393 237.226 341.587 238.689 340.175C240.152 338.763 242.016 337.81 244.041 337.44C242.512 338.001 241.156 338.93 240.098 340.142C239.04 341.354 238.316 342.807 237.994 344.366C237.274 347.998 238.906 353.371 245.053 354.543C250.224 355.52 253.115 353.557 254.647 351.231Z" fill="black"/>
<g opacity="0.2">
<path d="M240.092 351.035C242.244 352.456 245.254 353.424 247.315 351.462L247.598 351.24L247.89 351.426C249.449 352.483 251.857 352.847 252.988 351.018C253.367 350.449 253.673 349.838 253.9 349.197C253.831 349.901 253.649 350.59 253.362 351.24C252.313 353.611 249.248 353.46 247.352 352.128L247.917 352.083C245.619 354.294 241.952 353.193 240.074 351.009L240.092 351.035Z" fill="black"/>
<path d="M245.664 347.723C243.348 349.836 239.563 348.762 238.167 346.098C237.98 345.745 237.819 345.38 237.684 345.006C237.985 345.281 238.25 345.565 238.523 345.84C239.378 346.821 240.518 347.525 241.793 347.861C243.068 348.197 244.418 348.149 245.664 347.723Z" fill="black"/>
<path d="M250.753 343.097C249.668 345.61 245.974 345.423 244.579 343.23C246.649 344.118 248.719 344.526 250.753 343.097Z" fill="black"/>
</g>
<path d="M189.175 386.582C189.175 386.582 190.187 376.974 198.012 374.043C198.012 374.043 200.018 358.317 220.694 351.843C220.694 351.843 226.494 343.993 236.343 342.377C253.389 339.58 272.75 354.143 272.75 354.143C284.661 351.755 301.022 352.128 310.89 359.578C312.795 360.999 314.364 362.801 315.492 364.863C316.62 366.925 317.281 369.199 317.429 371.53C320.461 372.85 322.909 375.181 324.333 378.102C326.978 383.483 325.035 391.848 325.035 391.848C325.035 391.848 292.413 400.044 258.314 399.893C229.467 399.795 205.153 396.616 189.175 386.582Z" fill="#FFC727"/>
<g opacity="0.2">
<path d="M276.234 382.817C273.899 382.817 271.501 382.755 269.066 382.604C268.976 382.597 268.892 382.556 268.832 382.489C268.772 382.423 268.742 382.337 268.747 382.248C268.749 382.205 268.76 382.161 268.78 382.122C268.8 382.082 268.827 382.047 268.861 382.018C268.895 381.989 268.935 381.967 268.978 381.953C269.021 381.939 269.066 381.934 269.111 381.938C292.823 383.358 312.495 377.551 317.156 371.362C317.213 371.297 317.293 371.255 317.38 371.246C317.467 371.236 317.554 371.259 317.625 371.309C317.695 371.36 317.743 371.435 317.76 371.519C317.776 371.602 317.759 371.689 317.712 371.761C313.426 377.444 296.891 382.817 276.234 382.817Z" fill="black"/>
<path d="M216.726 394.805C212.068 394.814 207.424 394.31 202.882 393.304C202.793 393.285 202.715 393.232 202.665 393.157C202.616 393.083 202.598 392.992 202.617 392.904C202.639 392.819 202.694 392.745 202.771 392.699C202.847 392.653 202.94 392.637 203.028 392.656C224.542 397.433 244.861 389.823 263.84 381.618C268.546 379.585 273.325 377.178 277.949 374.86C290.124 368.76 300.63 363.494 304.844 367.232C305.323 367.573 305.68 368.053 305.861 368.604C306.043 369.154 306.041 369.747 305.856 370.296C304.643 373.777 295.915 376.654 290.434 377.098C290.389 377.103 290.344 377.099 290.301 377.086C290.258 377.073 290.219 377.052 290.184 377.024C290.15 376.996 290.122 376.961 290.103 376.922C290.083 376.883 290.071 376.84 290.069 376.796C290.064 376.752 290.068 376.708 290.081 376.666C290.094 376.623 290.116 376.584 290.145 376.55C290.174 376.516 290.209 376.488 290.25 376.468C290.29 376.448 290.334 376.435 290.379 376.432C296.262 375.953 304.187 373.013 305.208 370.083C305.338 369.658 305.327 369.204 305.178 368.785C305.03 368.367 304.75 368.004 304.378 367.747C300.512 364.32 289.695 369.745 278.259 375.482C273.626 377.8 268.829 380.206 264.104 382.248C249.148 388.695 233.334 394.805 216.726 394.805Z" fill="black"/>
<path d="M212.385 389.441C205.707 389.372 199.049 388.71 192.494 387.461C191.281 387.257 190.15 387.061 189.12 386.91C189.075 386.904 189.032 386.889 188.994 386.866C188.955 386.843 188.922 386.813 188.896 386.778C188.869 386.742 188.851 386.702 188.841 386.659C188.831 386.616 188.829 386.572 188.837 386.529C188.843 386.485 188.857 386.444 188.879 386.406C188.902 386.368 188.932 386.335 188.967 386.308C189.003 386.282 189.044 386.263 189.087 386.252C189.131 386.241 189.176 386.238 189.22 386.244C190.26 386.404 191.391 386.6 192.613 386.804C201.477 388.314 214.866 390.587 233.853 386.298C245.062 383.767 256.818 377.666 268.19 371.761C286.95 361.993 303.147 353.628 311.456 364.027C312.19 364.916 312.669 365.978 312.843 367.106C313.018 368.234 312.882 369.387 312.45 370.447C311.328 373.395 307.105 378.803 291.565 381.822C291.48 381.829 291.396 381.806 291.327 381.756C291.259 381.707 291.212 381.634 291.195 381.553C291.179 381.472 291.193 381.388 291.236 381.316C291.279 381.244 291.347 381.191 291.428 381.165C302.545 379.007 309.978 375.02 311.811 370.216C312.198 369.26 312.317 368.221 312.157 367.206C311.997 366.19 311.563 365.234 310.899 364.435C302.947 354.472 286.977 362.757 268.491 372.356C257.082 378.27 245.29 384.397 233.99 386.946C226.91 388.579 219.661 389.417 212.385 389.441Z" fill="black"/>
<path d="M278.395 377.808C276.937 377.85 275.478 377.734 274.045 377.462C274.002 377.452 273.961 377.433 273.926 377.407C273.89 377.382 273.86 377.349 273.837 377.312C273.814 377.275 273.799 377.234 273.792 377.191C273.786 377.148 273.788 377.105 273.799 377.063C273.822 376.977 273.88 376.904 273.958 376.859C274.037 376.814 274.13 376.801 274.218 376.823C276.17 377.302 280.94 377.205 284.168 376.823C284.213 376.818 284.258 376.821 284.301 376.833C284.344 376.844 284.384 376.864 284.419 376.891C284.454 376.918 284.483 376.951 284.505 376.989C284.527 377.027 284.541 377.068 284.547 377.111C284.552 377.155 284.549 377.198 284.537 377.24C284.525 377.282 284.505 377.321 284.477 377.355C284.449 377.39 284.415 377.418 284.376 377.44C284.338 377.461 284.295 377.475 284.25 377.48C282.307 377.703 280.352 377.812 278.395 377.808Z" fill="black"/>
<path d="M259.517 393.961C251.016 394.004 242.518 393.592 234.063 392.727C234.019 392.721 233.976 392.707 233.937 392.686C233.898 392.664 233.864 392.635 233.837 392.6C233.81 392.565 233.79 392.526 233.779 392.483C233.768 392.441 233.765 392.397 233.772 392.354C233.775 392.31 233.787 392.268 233.808 392.23C233.829 392.191 233.858 392.158 233.894 392.131C233.929 392.104 233.969 392.085 234.013 392.074C234.056 392.064 234.101 392.062 234.145 392.07C234.656 392.132 285.035 398.037 325.546 383.403C325.59 383.382 325.637 383.371 325.686 383.369C325.734 383.368 325.782 383.376 325.827 383.393C325.872 383.411 325.913 383.438 325.947 383.472C325.98 383.506 326.006 383.546 326.023 383.59C326.04 383.635 326.047 383.682 326.043 383.729C326.04 383.776 326.027 383.822 326.004 383.864C325.982 383.905 325.95 383.942 325.912 383.971C325.874 384.001 325.83 384.022 325.783 384.033C303.348 392.132 277.903 393.961 259.517 393.961Z" fill="black"/>
<path d="M266.95 387.727C262.235 387.727 257.237 387.568 251.966 387.195C251.875 387.188 251.791 387.147 251.732 387.08C251.672 387.014 251.641 386.928 251.647 386.839C251.649 386.795 251.66 386.752 251.68 386.713C251.7 386.673 251.727 386.638 251.761 386.609C251.795 386.58 251.835 386.558 251.878 386.544C251.921 386.53 251.966 386.525 252.011 386.529C298.396 389.814 323.375 376.983 323.622 376.849C323.702 376.808 323.795 376.799 323.882 376.824C323.969 376.849 324.042 376.906 324.087 376.983C324.129 377.061 324.139 377.152 324.113 377.236C324.088 377.321 324.029 377.392 323.95 377.436C323.731 377.551 303.922 387.727 266.95 387.727Z" fill="black"/>
<path d="M254.693 378.981C249.932 378.981 245.226 377.347 244.013 375.207C243.794 374.838 243.689 374.415 243.712 373.989C243.735 373.564 243.884 373.154 244.141 372.809C246.467 369.444 253.379 371.273 258.934 372.738C260.652 373.261 262.412 373.644 264.196 373.884C264.241 373.886 264.286 373.897 264.327 373.916C264.368 373.935 264.405 373.962 264.436 373.995C264.466 374.028 264.49 374.066 264.505 374.108C264.52 374.15 264.527 374.194 264.524 374.239C264.522 374.283 264.51 374.326 264.491 374.365C264.471 374.405 264.443 374.44 264.409 374.469C264.375 374.498 264.336 374.52 264.293 374.534C264.25 374.548 264.204 374.553 264.159 374.55C262.326 374.313 260.516 373.924 258.751 373.386C253.69 372.045 246.758 370.216 244.715 373.182C244.523 373.423 244.41 373.715 244.392 374.019C244.374 374.324 244.452 374.627 244.615 374.887C245.755 376.885 250.616 378.439 255.313 378.306C255.363 378.298 255.413 378.301 255.462 378.314C255.51 378.327 255.555 378.35 255.593 378.382C255.632 378.413 255.662 378.453 255.683 378.497C255.705 378.541 255.716 378.59 255.716 378.639C255.716 378.688 255.705 378.736 255.683 378.78C255.662 378.825 255.632 378.864 255.593 378.896C255.555 378.928 255.51 378.951 255.462 378.964C255.413 378.977 255.363 378.98 255.313 378.972L254.693 378.981Z" fill="black"/>
<path d="M246.658 382.826H246.558C240.265 380.89 236.599 377.409 236.772 373.511C236.9 370.34 239.617 367.623 243.521 366.762C249.713 365.403 259.572 367.801 266.093 369.381C268.054 369.861 269.741 370.269 270.881 370.465C270.926 370.472 270.969 370.488 271.007 370.512C271.046 370.536 271.079 370.567 271.105 370.603C271.132 370.639 271.15 370.68 271.16 370.724C271.17 370.767 271.171 370.812 271.164 370.855C271.146 370.942 271.094 371.019 271.019 371.069C270.944 371.118 270.852 371.138 270.762 371.122C269.604 370.926 267.899 370.509 265.929 370.03C259.472 368.458 249.704 366.078 243.667 367.419C240.073 368.209 237.575 370.669 237.447 373.537C237.301 377.089 240.776 380.357 246.768 382.195C246.81 382.208 246.85 382.23 246.884 382.258C246.918 382.286 246.946 382.32 246.967 382.359C246.987 382.398 246.999 382.44 247.003 382.484C247.006 382.527 247.001 382.571 246.986 382.613C246.96 382.676 246.915 382.731 246.856 382.769C246.798 382.807 246.729 382.827 246.658 382.826Z" fill="black"/>
<path d="M263.576 369.408C263.503 369.406 263.432 369.382 263.375 369.339C263.317 369.296 263.274 369.237 263.253 369.169C263.232 369.101 263.233 369.029 263.256 368.961C263.28 368.894 263.325 368.836 263.384 368.795C280.311 357.873 293.216 353.122 301.761 354.694C301.841 354.72 301.908 354.773 301.95 354.843C301.993 354.913 302.008 354.996 301.992 355.077C301.976 355.157 301.931 355.229 301.866 355.279C301.8 355.33 301.717 355.355 301.633 355.351C293.279 353.824 280.539 358.53 263.758 369.355C263.704 369.39 263.64 369.408 263.576 369.408Z" fill="black"/>
<path d="M209.932 384.282C203.479 384.27 197.036 383.804 190.652 382.888L190.169 382.826C190.083 382.807 190.008 382.758 189.958 382.688C189.909 382.618 189.888 382.532 189.901 382.447C189.913 382.363 189.958 382.286 190.027 382.233C190.095 382.18 190.182 382.153 190.269 382.16L190.752 382.231C213.361 385.436 230.397 382.479 240.712 379.442C240.799 379.417 240.892 379.427 240.973 379.468C241.053 379.51 241.113 379.58 241.14 379.664C241.154 379.706 241.159 379.749 241.155 379.793C241.151 379.836 241.138 379.878 241.117 379.917C241.095 379.955 241.066 379.988 241.031 380.015C240.996 380.042 240.956 380.062 240.912 380.073C230.854 382.949 220.415 384.367 209.932 384.282Z" fill="black"/>
<path d="M209.266 379.86C201.158 379.86 195.002 378.874 192.85 377.951C192.809 377.933 192.773 377.908 192.742 377.877C192.711 377.845 192.687 377.808 192.671 377.768C192.655 377.728 192.647 377.684 192.648 377.641C192.649 377.598 192.659 377.555 192.677 377.515C192.695 377.476 192.721 377.44 192.753 377.41C192.785 377.38 192.823 377.357 192.864 377.341C192.906 377.325 192.95 377.318 192.995 377.319C193.039 377.32 193.083 377.329 193.124 377.347C197.757 379.309 218.377 380.943 237.301 375.189C237.388 375.164 237.482 375.173 237.562 375.215C237.642 375.256 237.702 375.327 237.73 375.411C237.755 375.496 237.746 375.587 237.703 375.665C237.661 375.743 237.588 375.802 237.502 375.828C228.346 378.525 218.831 379.883 209.266 379.86Z" fill="black"/>
<path d="M210.862 375.278C206.543 375.318 202.227 375.021 197.957 374.39C197.869 374.374 197.79 374.326 197.739 374.254C197.688 374.182 197.668 374.094 197.683 374.008C197.699 373.922 197.749 373.846 197.823 373.796C197.896 373.746 197.987 373.726 198.076 373.741C198.276 373.741 218.14 377.187 237.857 370.456C237.9 370.44 237.945 370.434 237.99 370.436C238.035 370.438 238.08 370.448 238.12 370.468C238.161 370.487 238.198 370.513 238.228 370.547C238.258 370.58 238.281 370.618 238.295 370.66C238.31 370.701 238.317 370.744 238.315 370.788C238.313 370.831 238.302 370.874 238.282 370.913C238.263 370.952 238.235 370.987 238.201 371.015C238.167 371.043 238.128 371.064 238.085 371.077C229.314 373.942 220.113 375.361 210.862 375.278Z" fill="black"/>
<path d="M231.893 372.862H231.82C229.231 372.272 226.812 371.119 224.746 369.488C222.68 367.858 221.02 365.794 219.891 363.45C218.992 361.603 218.568 359.57 218.655 357.528C218.743 355.486 219.339 353.496 220.393 351.728C220.414 351.689 220.442 351.654 220.477 351.627C220.512 351.599 220.553 351.578 220.596 351.565C220.639 351.553 220.685 351.549 220.73 351.554C220.775 351.559 220.818 351.573 220.858 351.595C220.898 351.615 220.933 351.643 220.962 351.677C220.99 351.711 221.012 351.751 221.025 351.793C221.037 351.835 221.041 351.879 221.036 351.923C221.031 351.967 221.017 352.009 220.994 352.048C219.993 353.725 219.426 355.614 219.342 357.553C219.258 359.491 219.659 361.42 220.511 363.174C221.613 365.416 223.215 367.39 225.2 368.952C227.184 370.514 229.502 371.626 231.984 372.205C232.071 372.224 232.148 372.276 232.197 372.349C232.246 372.421 232.265 372.51 232.249 372.596C232.231 372.674 232.186 372.744 232.121 372.793C232.056 372.842 231.975 372.866 231.893 372.862Z" fill="black"/>
<path d="M237.976 371.086H237.866C237.301 370.9 223.922 366.478 223.922 358.335C223.922 356.86 224.255 355.403 224.898 354.068C225.541 352.733 226.478 351.552 227.643 350.609C231.446 347.368 237.447 346.018 244.059 346.888C255.176 348.336 266.184 355.919 266.293 355.999C266.33 356.024 266.362 356.056 266.386 356.092C266.41 356.129 266.426 356.17 266.434 356.213C266.441 356.256 266.44 356.3 266.43 356.343C266.42 356.385 266.402 356.426 266.375 356.461C266.349 356.497 266.316 356.528 266.277 356.551C266.239 356.575 266.196 356.591 266.151 356.598C266.106 356.606 266.06 356.605 266.016 356.595C265.971 356.585 265.929 356.567 265.892 356.541C265.792 356.461 254.948 348.975 244.004 347.545C237.62 346.711 231.692 348.043 228.099 351.097C227.008 351.98 226.13 353.084 225.527 354.333C224.923 355.582 224.609 356.945 224.606 358.326C224.606 365.989 237.948 370.403 238.085 370.447C238.157 370.476 238.217 370.528 238.255 370.595C238.293 370.661 238.307 370.738 238.294 370.813C238.281 370.888 238.243 370.957 238.185 371.008C238.128 371.059 238.054 371.09 237.976 371.095V371.086Z" fill="black"/>
<path d="M257.447 368.103C257.394 368.102 257.341 368.09 257.294 368.067C257.247 368.044 257.205 368.011 257.173 367.969C257.121 367.899 257.098 367.812 257.11 367.726C257.122 367.64 257.167 367.562 257.237 367.508C271.145 357.154 282.326 352.492 292.44 352.856C292.53 352.86 292.615 352.899 292.677 352.964C292.738 353.028 292.771 353.114 292.768 353.202C292.77 353.247 292.762 353.291 292.744 353.333C292.726 353.374 292.7 353.411 292.666 353.441C292.632 353.472 292.592 353.495 292.548 353.508C292.505 353.522 292.458 353.527 292.413 353.522C282.463 353.149 271.437 357.784 257.656 368.032C257.596 368.076 257.523 368.101 257.447 368.103Z" fill="black"/>
<path d="M250.871 367.152C250.825 367.153 250.779 367.143 250.736 367.125C250.694 367.107 250.656 367.08 250.625 367.046C250.562 366.983 250.527 366.899 250.527 366.811C250.527 366.723 250.562 366.638 250.625 366.575C253.872 363.529 265.618 354.481 272.714 353.841C272.759 353.836 272.804 353.84 272.848 353.853C272.891 353.866 272.932 353.887 272.967 353.915C273.001 353.943 273.03 353.978 273.051 354.017C273.072 354.056 273.084 354.099 273.088 354.143C273.095 354.231 273.067 354.319 273.009 354.387C272.951 354.455 272.868 354.498 272.778 354.507C265.865 355.129 254.31 364.053 251.099 367.055C251.038 367.114 250.957 367.149 250.871 367.152Z" fill="black"/>
<path d="M241.104 368.289H240.994C234.811 366.389 230.607 363.343 229.467 359.933C229.157 359.072 229.065 358.152 229.198 357.249C229.331 356.346 229.686 355.488 230.233 354.747C231.436 353.158 234.282 351.293 240.812 351.382C240.902 351.384 240.988 351.42 241.051 351.484C241.114 351.547 241.149 351.631 241.149 351.719C241.147 351.807 241.109 351.891 241.045 351.952C240.98 352.013 240.893 352.048 240.803 352.048C234.546 351.941 231.892 353.681 230.771 355.138C230.291 355.796 229.981 356.556 229.866 357.355C229.752 358.154 229.837 358.968 230.114 359.729C231.181 362.934 235.221 365.82 241.195 367.65C241.272 367.675 241.337 367.726 241.38 367.793C241.422 367.861 241.439 367.941 241.427 368.019C241.415 368.098 241.375 368.169 241.314 368.222C241.254 368.274 241.176 368.305 241.095 368.307L241.104 368.289Z" fill="black"/>
<path d="M261.569 359.178C261.5 359.18 261.432 359.158 261.378 359.116C261.296 359.072 253.726 353.877 244.962 352.421C244.917 352.413 244.874 352.397 244.835 352.373C244.797 352.35 244.763 352.319 244.737 352.282C244.711 352.246 244.692 352.205 244.682 352.162C244.672 352.118 244.671 352.074 244.679 352.03C244.695 351.943 244.744 351.866 244.818 351.815C244.891 351.763 244.982 351.742 245.071 351.755C254.036 353.246 261.733 358.521 261.806 358.574C261.844 358.6 261.875 358.633 261.899 358.67C261.924 358.708 261.94 358.749 261.948 358.793C261.955 358.837 261.954 358.882 261.944 358.925C261.934 358.968 261.915 359.009 261.888 359.045C261.853 359.093 261.804 359.131 261.748 359.155C261.692 359.178 261.63 359.186 261.569 359.178Z" fill="black"/>
<path d="M249.139 367.019H249.066C241.013 365.243 236.982 362.411 235.896 360.377C235.715 360.083 235.603 359.754 235.569 359.413C235.534 359.072 235.577 358.728 235.696 358.406C236.434 356.63 238.869 354.942 246.284 356.834C250.254 358.007 254.064 359.644 257.629 361.709C257.707 361.755 257.762 361.829 257.784 361.915C257.805 362 257.79 362.091 257.743 362.166C257.696 362.242 257.62 362.296 257.532 362.317C257.444 362.337 257.351 362.323 257.274 362.277C253.764 360.246 250.016 358.633 246.111 357.473C240.693 356.097 237.219 356.514 236.325 358.654C236.246 358.888 236.22 359.135 236.25 359.379C236.28 359.623 236.365 359.858 236.498 360.066C237.474 361.842 241.387 364.622 249.221 366.371C249.31 366.382 249.392 366.426 249.447 366.496C249.503 366.565 249.528 366.652 249.517 366.74C249.506 366.827 249.46 366.906 249.389 366.96C249.318 367.014 249.228 367.039 249.139 367.028V367.019Z" fill="black"/>
<path d="M225.235 374.203C225.184 374.216 225.131 374.216 225.08 374.203C213.06 368.245 214.938 358.921 214.957 358.823C214.978 358.737 215.033 358.663 215.109 358.615C215.186 358.567 215.278 358.549 215.367 358.566C215.456 358.585 215.534 358.637 215.584 358.712C215.633 358.787 215.651 358.878 215.632 358.965C215.549 359.32 213.853 367.898 225.39 373.617C225.43 373.637 225.465 373.664 225.494 373.697C225.522 373.73 225.544 373.768 225.558 373.81C225.571 373.851 225.576 373.894 225.573 373.937C225.569 373.981 225.556 374.023 225.536 374.061C225.503 374.109 225.458 374.147 225.405 374.172C225.352 374.197 225.294 374.208 225.235 374.203Z" fill="black"/>
<path d="M219.745 374.887C219.676 374.888 219.608 374.866 219.553 374.825C208.245 367.224 210.908 356.967 211.865 355.395C211.911 355.32 211.986 355.265 212.073 355.244C212.16 355.222 212.253 355.235 212.33 355.28C212.408 355.325 212.464 355.398 212.486 355.482C212.508 355.567 212.495 355.657 212.449 355.733C211.537 357.225 209.065 366.966 219.936 374.283C219.974 374.307 220.006 374.338 220.031 374.375C220.056 374.411 220.073 374.452 220.082 374.495C220.09 374.538 220.09 374.583 220.081 374.625C220.071 374.668 220.053 374.709 220.028 374.745C219.996 374.789 219.953 374.825 219.904 374.849C219.855 374.874 219.8 374.887 219.745 374.887Z" fill="black"/>
<path d="M202.59 374.914C202.545 374.911 202.5 374.9 202.46 374.881C202.419 374.862 202.383 374.835 202.353 374.802C202.323 374.769 202.301 374.73 202.286 374.688C202.272 374.646 202.267 374.602 202.271 374.558C202.918 366.229 210.962 360.848 211.035 360.794C211.072 360.769 211.114 360.752 211.158 360.743C211.202 360.734 211.247 360.733 211.291 360.742C211.336 360.75 211.378 360.767 211.415 360.791C211.452 360.815 211.484 360.847 211.509 360.883C211.536 360.919 211.555 360.959 211.565 361.002C211.575 361.046 211.576 361.09 211.568 361.134C211.559 361.177 211.541 361.218 211.516 361.255C211.49 361.291 211.457 361.322 211.418 361.345C211.345 361.398 203.575 366.602 202.955 374.612C202.951 374.655 202.939 374.697 202.919 374.736C202.899 374.774 202.871 374.809 202.837 374.837C202.803 374.865 202.764 374.886 202.721 374.899C202.679 374.912 202.634 374.917 202.59 374.914Z" fill="black"/>
<path d="M207.533 375.136C207.489 375.132 207.445 375.12 207.406 375.101C207.366 375.081 207.331 375.054 207.302 375.021C207.273 374.988 207.251 374.95 207.238 374.908C207.224 374.867 207.219 374.824 207.223 374.78C207.401 373.072 207.982 371.427 208.92 369.973C209.858 368.519 211.128 367.296 212.631 366.398C212.67 366.377 212.713 366.363 212.757 366.358C212.801 366.354 212.846 366.357 212.889 366.369C212.931 366.381 212.971 366.401 213.006 366.428C213.041 366.455 213.07 366.489 213.092 366.526C213.113 366.564 213.127 366.606 213.132 366.649C213.137 366.692 213.133 366.736 213.121 366.777C213.109 366.819 213.088 366.858 213.06 366.892C213.033 366.926 212.998 366.954 212.959 366.975C211.566 367.834 210.388 368.987 209.513 370.349C208.639 371.711 208.09 373.246 207.907 374.843C207.893 374.928 207.848 375.006 207.778 375.06C207.709 375.114 207.622 375.141 207.533 375.136Z" fill="black"/>
<path d="M212.768 374.914C212.678 374.911 212.592 374.875 212.529 374.812C212.466 374.749 212.431 374.664 212.431 374.576C212.549 371.086 214.984 370.287 215.085 370.252C215.173 370.226 215.268 370.235 215.349 370.277C215.431 370.318 215.493 370.389 215.522 370.474C215.548 370.558 215.539 370.65 215.496 370.728C215.453 370.806 215.381 370.864 215.294 370.891C215.203 370.891 213.215 371.601 213.115 374.594C213.113 374.637 213.104 374.68 213.086 374.719C213.067 374.758 213.042 374.794 213.009 374.824C212.977 374.853 212.939 374.877 212.898 374.892C212.857 374.907 212.812 374.915 212.768 374.914Z" fill="black"/>
</g>
<path d="M263.904 348.576C271.911 348.576 274.145 354.898 274.145 358.29C274.145 361.682 272.577 367.836 263.904 367.836C257.091 367.836 254.264 362.446 254.264 358.45C254.236 353.131 258.687 348.576 263.904 348.576Z" fill="#FFC727"/>
<path opacity="0.3" d="M263.904 348.576C271.911 348.576 274.145 354.898 274.145 358.29C274.145 361.682 272.577 367.836 263.904 367.836C257.091 367.836 254.264 362.446 254.264 358.45C254.236 353.131 258.687 348.576 263.904 348.576Z" fill="black"/>
<path opacity="0.1" d="M273.854 360.714C273.151 363.991 270.725 367.818 263.885 367.818C257.045 367.818 254.246 362.437 254.246 358.432C254.251 356.424 254.876 354.463 256.038 352.804C257.201 351.145 258.848 349.864 260.766 349.126C259.38 349.962 258.234 351.128 257.436 352.513C256.638 353.899 256.215 355.459 256.206 357.047C256.206 360.75 258.815 365.732 265.117 365.732C270.379 365.741 272.814 363.281 273.854 360.714Z" fill="black"/>
<g opacity="0.2">
<path d="M257.447 356.088C260 357.163 263.201 357.429 264.852 354.889L265.171 355.022C266.904 355.777 269.339 355.68 270.096 353.682C270.36 353.051 270.547 352.392 270.653 351.719C270.724 352.423 270.681 353.133 270.525 353.824C269.959 356.346 266.877 356.763 264.797 355.83L265.354 355.688C263.53 358.281 259.709 357.882 257.447 356.088Z" fill="black"/>
<path d="M265.427 362.766C263.603 365.27 259.636 364.924 257.739 362.562C257.491 362.249 257.263 361.923 257.055 361.585C257.41 361.789 257.72 362.02 258.04 362.242C259.072 363.046 260.331 363.527 261.65 363.62C262.969 363.714 264.286 363.416 265.427 362.766Z" fill="black"/>
<path d="M267.224 352.207C265.701 354.498 262.098 353.673 261.113 351.319C262.992 352.563 264.962 353.3 267.224 352.207Z" fill="black"/>
</g>
<path d="M228.81 355.369C236.197 358.361 235.769 365.039 234.437 368.165C233.106 371.291 229.22 376.388 221.213 373.146C214.92 370.598 214.437 364.568 216.015 360.874C218.112 355.964 224.013 353.424 228.81 355.369Z" fill="#FFC727"/>
<path opacity="0.3" d="M228.81 355.369C236.197 358.361 235.769 365.039 234.437 368.165C233.106 371.291 229.22 376.388 221.213 373.146C214.92 370.598 214.437 364.568 216.015 360.874C218.112 355.964 224.013 353.424 228.81 355.369Z" fill="black"/>
<path opacity="0.1" d="M233.233 370.296C231.291 373.058 227.533 375.695 221.222 373.138C214.911 370.58 214.437 364.56 216.024 360.865C216.82 359.012 218.17 357.434 219.899 356.337C221.628 355.24 223.655 354.673 225.718 354.712C224.106 354.964 222.586 355.61 221.301 356.59C220.015 357.57 219.006 358.852 218.368 360.315C216.908 363.734 217.355 369.31 223.183 371.664C228.044 373.644 231.254 372.285 233.233 370.296Z" fill="black"/>
<g opacity="0.2">
<path d="M219.772 359.64C221.377 361.505 224.004 362.819 226.156 361.167L226.485 360.963C227.935 362.641 229.904 363.263 231.555 361.425C232.004 360.918 232.415 360.381 232.786 359.818C232.559 360.478 232.253 361.11 231.874 361.7C230.406 363.982 227.725 363.707 226.019 361.816L226.63 361.887C224.04 363.751 220.94 362.242 219.699 359.64H219.772Z" fill="black"/>
<path d="M225.171 366.069C222.499 367.685 218.942 365.874 218.158 363.006C218.054 362.622 217.972 362.234 217.912 361.842C218.158 362.171 218.358 362.499 218.559 362.819C219.196 363.947 220.169 364.86 221.349 365.44C222.529 366.02 223.861 366.239 225.171 366.069Z" fill="black"/>
<path d="M231.309 369.87C229.731 372.116 226.156 371.211 225.235 368.786C227.059 370.083 229.029 370.864 231.309 369.87Z" fill="black"/>
</g>
<path d="M297.648 356.71C305.619 357.429 307.242 363.929 306.923 367.303C306.604 370.678 304.451 376.663 295.815 375.882C289.029 375.269 286.695 369.666 287.114 365.67C287.616 360.377 292.495 356.239 297.648 356.71Z" fill="#FFC727"/>
<path opacity="0.3" d="M297.648 356.71C305.619 357.429 307.242 363.929 306.923 367.303C306.604 370.678 304.451 376.663 295.815 375.882C289.029 375.269 286.695 369.666 287.114 365.67C287.616 360.377 292.495 356.239 297.648 356.71Z" fill="black"/>
<path opacity="0.1" d="M306.449 369.692C305.427 372.898 302.655 376.503 295.842 375.908C289.03 375.313 286.722 369.692 287.133 365.696C287.331 363.695 288.141 361.798 289.458 360.25C290.775 358.702 292.538 357.574 294.52 357.012C293.056 357.717 291.801 358.773 290.872 360.081C289.944 361.389 289.372 362.906 289.212 364.488C288.856 368.174 290.99 373.368 297.265 373.937C302.5 374.381 305.163 372.161 306.449 369.692Z" fill="black"/>
<g opacity="0.2">
<path d="M291.948 370.9C294.392 372.205 297.548 372.756 299.436 370.376L299.737 370.536C301.397 371.424 303.832 371.566 304.771 369.648C305.101 369.047 305.352 368.409 305.519 367.747C305.521 368.456 305.407 369.161 305.181 369.834C304.379 372.294 301.314 372.436 299.299 371.317L299.864 371.228C297.794 373.644 294.028 372.898 291.948 370.909V370.9Z" fill="black"/>
<path d="M297.165 367.073C295.076 369.39 291.2 368.689 289.531 366.185C289.322 365.838 289.112 365.501 288.938 365.146C289.276 365.385 289.568 365.643 289.85 365.891C290.803 366.781 292.009 367.37 293.31 367.582C294.611 367.794 295.948 367.62 297.146 367.081L297.165 367.073Z" fill="black"/>
<path d="M301.743 361.984C300.922 364.586 297.228 364.746 295.614 362.704C297.776 363.405 299.873 363.592 301.743 361.984Z" fill="black"/>
</g>
</svg>
