<svg width="217" height="217" viewBox="0 0 217 217" fill="none" xmlns="http://www.w3.org/2000/svg">
<path d="M217 165.962H0V166.07H217V165.962Z" fill="#EBEBEB"/>
<path d="M189.081 172.945H180.883V173.053H189.081V172.945Z" fill="#EBEBEB"/>
<path d="M139.974 172.189H127.184V172.298H139.974V172.189Z" fill="#EBEBEB"/>
<path d="M180.448 168.917H160.003V169.026H180.448V168.917Z" fill="#EBEBEB"/>
<path d="M27.5286 169.646H22.7676V169.755H27.5286V169.646Z" fill="#EBEBEB"/>
<path d="M48.1264 169.646H31.3914V169.755H48.1264V169.646Z" fill="#EBEBEB"/>
<path d="M97.7152 171.478H74.2141V171.586H97.7152V171.478Z" fill="#EBEBEB"/>
<path d="M102.858 146.605H19.0568C18.4003 146.604 17.7711 146.342 17.3073 145.878C16.8435 145.413 16.583 144.784 16.583 144.127V26.3264C16.5887 25.6737 16.8517 25.0496 17.3149 24.5897C17.7781 24.1297 18.4041 23.8711 19.0568 23.87H102.858C103.515 23.87 104.145 24.1311 104.61 24.5958C105.075 25.0606 105.336 25.6909 105.336 26.3481V144.127C105.336 144.784 105.075 145.415 104.61 145.879C104.145 146.344 103.515 146.605 102.858 146.605ZM19.0568 23.9568C18.4291 23.9579 17.8275 24.2081 17.384 24.6524C16.9406 25.0966 16.6915 25.6987 16.6915 26.3264V144.127C16.6915 144.755 16.9406 145.357 17.384 145.801C17.8275 146.245 18.4291 146.496 19.0568 146.497H102.858C103.486 146.496 104.088 146.246 104.532 145.801C104.976 145.357 105.226 144.755 105.228 144.127V26.3264C105.226 25.6983 104.976 25.0963 104.532 24.6521C104.088 24.208 103.486 23.9579 102.858 23.9568H19.0568Z" fill="#EBEBEB"/>
<path d="M196.737 146.605H112.931C112.274 146.604 111.645 146.343 111.18 145.878C110.716 145.414 110.454 144.784 110.453 144.127V26.3264C110.46 25.6733 110.724 25.0492 111.188 24.5894C111.652 24.1296 112.278 23.8711 112.931 23.87H196.737C197.389 23.8723 198.013 24.1314 198.476 24.5912C198.938 25.051 199.2 25.6745 199.206 26.3264V144.127C199.206 144.783 198.946 145.412 198.483 145.876C198.021 146.341 197.392 146.603 196.737 146.605ZM112.931 23.9568C112.303 23.9579 111.701 24.208 111.257 24.6521C110.813 25.0963 110.563 25.6983 110.562 26.3264V144.127C110.563 144.755 110.813 145.357 111.257 145.801C111.701 146.246 112.303 146.496 112.931 146.497H196.737C197.365 146.496 197.967 146.246 198.411 145.801C198.855 145.357 199.105 144.755 199.106 144.127V26.3264C199.105 25.6983 198.855 25.0963 198.411 24.6521C197.967 24.208 197.365 23.9579 196.737 23.9568H112.931Z" fill="#EBEBEB"/>
<path d="M189.081 172.945H180.883V173.053H189.081V172.945Z" fill="#EBEBEB"/>
<path d="M139.974 172.189H127.184V172.298H139.974V172.189Z" fill="#EBEBEB"/>
<path d="M180.448 168.917H160.003V169.026H180.448V168.917Z" fill="#EBEBEB"/>
<path d="M27.5286 169.646H22.7676V169.755H27.5286V169.646Z" fill="#EBEBEB"/>
<path d="M48.1264 169.646H31.3914V169.755H48.1264V169.646Z" fill="#EBEBEB"/>
<path d="M97.7152 171.478H74.2141V171.586H97.7152V171.478Z" fill="#EBEBEB"/>
<path d="M165.727 72.4737H175.722V70.3991H165.727V72.4737Z" fill="#E6E6E6"/>
<path d="M57.3532 72.4737L165.732 72.4737V70.3991L57.3532 70.3991V72.4737Z" fill="#F0F0F0"/>
<path d="M118.825 35.8961H145.316L141.141 70.4035H114.65L118.825 35.8961Z" fill="#F5F5F5"/>
<path d="M123.647 40.4184H139.401L136.324 65.8769H120.565L123.647 40.4184Z" fill="#FAFAFA"/>
<path d="M80.4246 37.4716H112.562L108.578 70.4035H76.4448L80.4246 37.4716Z" fill="#F5F5F5"/>
<path d="M85.0249 41.7855H106.916L103.978 66.0852H82.0867L85.0249 41.7855Z" fill="#FAFAFA"/>
<path d="M136.115 47.7097H158.258L155.515 70.4035H133.368L136.115 47.7097Z" fill="#F0F0F0"/>
<path d="M139.284 50.6825H154.369L152.343 67.4262H137.257L139.284 50.6825Z" fill="#FAFAFA"/>
<path d="M188.942 100.132H175.253C172.842 100.168 170.511 101.003 168.626 102.506C166.741 104.01 165.408 106.096 164.837 108.439L161.222 123.542L153.792 123.516H153.766C152.049 123.516 150.385 124.115 149.062 125.21C147.739 126.305 146.84 127.827 146.518 129.514L145.529 134.683C144.781 134.797 144.083 135.131 143.524 135.641C142.966 136.152 142.571 136.817 142.391 137.552H147.638L141.484 165.962H143.055L149.226 137.552H153.54L147.347 165.962H148.918L155.09 137.552H172.298L178.469 165.962H180.04L173.869 137.552H178.183L184.354 165.962H185.925L179.754 137.552H179.107C181.519 137.523 183.852 136.692 185.738 135.189C187.624 133.686 188.956 131.598 189.523 129.254L194.731 107.554C194.965 106.673 194.992 105.749 194.809 104.856C194.627 103.963 194.24 103.124 193.679 102.405C193.119 101.687 192.399 101.107 191.577 100.713C190.755 100.319 189.853 100.12 188.942 100.132ZM159.864 129.15C159.488 130.7 158.607 132.081 157.36 133.075C156.113 134.07 154.571 134.622 152.976 134.644H147.49L148.411 129.87C148.65 128.626 149.315 127.504 150.292 126.696C151.268 125.889 152.495 125.446 153.762 125.443L160.732 125.465L159.864 129.15Z" fill="#E6E6E6"/>
<path d="M84.1006 162.438H99.0432L99.0432 96.3958H84.1006L84.1006 162.438Z" fill="#F0F0F0"/>
<path d="M30.4017 165.962H96.1787V162.438H30.4017V165.962Z" fill="#F0F0F0"/>
<path d="M84.1048 96.3957H27.5286V162.438H84.1048V96.3957Z" fill="#F5F5F5"/>
<path d="M78.2329 103.24H33.405V131.923H78.2329V103.24Z" fill="#F0F0F0"/>
<path d="M78.2329 137.361H33.405V155.593H78.2329V137.361Z" fill="#F0F0F0"/>
<path d="M44.1812 104.377H67.4523C68.0707 104.377 68.572 103.876 68.572 103.257V102.997C68.572 102.378 68.0707 101.877 67.4523 101.877H44.1812C43.5628 101.877 43.0615 102.378 43.0615 102.997V103.257C43.0615 103.876 43.5628 104.377 44.1812 104.377Z" fill="#F5F5F5"/>
<path d="M44.1812 138.615H67.4523C68.0707 138.615 68.572 138.114 68.572 137.496V137.235C68.572 136.617 68.0707 136.115 67.4523 136.115H44.1812C43.5628 136.115 43.0615 136.617 43.0615 137.235V137.496C43.0615 138.114 43.5628 138.615 44.1812 138.615Z" fill="#F5F5F5"/>
<path d="M142.899 100.132H129.21C126.799 100.168 124.468 101.003 122.583 102.506C120.698 104.01 119.365 106.096 118.794 108.439L115.179 123.542L107.749 123.516C106.031 123.515 104.367 124.114 103.043 125.209C101.719 126.304 100.818 127.827 100.497 129.514L99.5075 134.683C98.7595 134.798 98.0622 135.131 97.5037 135.642C96.9452 136.152 96.5506 136.817 96.3697 137.552H101.621L95.4236 165.962H96.9903L103.162 137.552H107.502L101.309 165.962H102.858L109.029 137.552H126.242L132.413 165.962H133.98L127.809 137.552H132.149L138.316 165.962H139.883L133.711 137.552H133.064C135.476 137.523 137.809 136.692 139.695 135.189C141.582 133.686 142.913 131.598 143.48 129.254L148.688 107.554C148.921 106.673 148.947 105.75 148.765 104.857C148.582 103.964 148.195 103.126 147.634 102.407C147.074 101.689 146.355 101.109 145.533 100.715C144.712 100.32 143.81 100.121 142.899 100.132ZM113.821 129.15C113.443 130.7 112.561 132.08 111.314 133.075C110.066 134.069 108.524 134.621 106.929 134.644H101.452L102.372 129.87C102.611 128.626 103.276 127.503 104.252 126.695C105.229 125.887 106.456 125.445 107.723 125.443L114.698 125.465L113.821 129.15Z" fill="#E6E6E6"/>
<path d="M108.5 185.561C154.974 185.561 192.648 183.361 192.648 180.648C192.648 177.935 154.974 175.735 108.5 175.735C62.0263 175.735 24.3518 177.935 24.3518 180.648C24.3518 183.361 62.0263 185.561 108.5 185.561Z" fill="#F5F5F5"/>
<path d="M65.5036 46.872C65.803 41.6249 76.8961 42.1457 79.0748 47.0412C81.2534 51.9368 79.4654 56.4373 85.511 59.3929C96.2004 64.6009 97.3635 71.5188 93.323 78.3283C89.2824 85.1378 73.5022 89.9074 64.9177 78.7623C56.4503 67.7604 69.3228 65.3083 62.6609 60.1307C56.854 55.591 57.3487 47.5056 65.5036 46.872Z" fill="#263238"/>
<path d="M60.76 72.1351C60.6168 72.3087 60.5386 72.3955 60.4388 72.5084C60.339 72.6212 60.2435 72.7167 60.148 72.8208C59.9527 73.0161 59.7575 73.2114 59.5622 73.3894C59.1672 73.7583 58.7636 74.0968 58.3556 74.4266C57.5357 75.0689 56.6761 75.6588 55.782 76.193C54.9013 76.7203 53.993 77.1998 53.0608 77.6296C52.5921 77.8379 52.1277 78.0636 51.6547 78.2372L50.9429 78.5106L50.587 78.6451C50.3795 78.7236 50.1662 78.7859 49.949 78.8317C49.4112 78.9493 48.8513 78.9159 48.3312 78.7351C47.8112 78.5543 47.3512 78.2333 47.0022 77.8075C46.5502 77.2487 46.2245 76.5988 46.0474 75.9022C45.772 74.8476 45.6262 73.7632 45.6134 72.6733C45.585 70.665 45.7551 68.6589 46.1212 66.6841L48.0655 66.8447C48.1286 68.7121 48.2879 70.5749 48.5429 72.4259C48.6553 73.2636 48.8561 74.087 49.1418 74.8823C49.2165 75.1249 49.3474 75.3465 49.5237 75.529C49.5541 75.529 49.5237 75.4899 49.4109 75.4335C49.3356 75.4054 49.2567 75.3879 49.1765 75.3814C49.1765 75.3814 49.1765 75.3814 49.2286 75.3511L49.5367 75.1992L50.1574 74.904L51.3726 74.2791C52.1668 73.8451 52.9523 73.3894 53.6988 72.8903C54.4453 72.3912 55.1744 71.8791 55.8688 71.3235C56.2117 71.0501 56.5458 70.768 56.8583 70.4555C57.0189 70.3123 57.1665 70.1648 57.314 70.0215L57.5267 69.8132L57.6829 69.644L60.76 72.1351Z" fill="#FFC3BD"/>
<path d="M60.8468 66.0591C59.2541 65.6685 55.2048 70.9112 55.2048 70.9112L57.6656 75.5941C57.6656 75.5941 64.4664 71.7532 64.2103 69.6396C63.9413 67.4349 63.1687 66.6277 60.8468 66.0591Z" fill="#983C69"/>
<path opacity="0.2" d="M60.8468 66.0591C59.2541 65.6685 55.2048 70.9112 55.2048 70.9112L57.6656 75.5941C57.6656 75.5941 64.4664 71.7532 64.2103 69.6396C63.9413 67.4349 63.1687 66.6277 60.8468 66.0591Z" fill="black"/>
<path opacity="0.2" d="M59.7922 67.8732L60.1828 74.0057C58.8288 74.9301 57.6613 75.5941 57.6613 75.5941L57.1492 74.6132L59.7922 67.8732Z" fill="black"/>
<path d="M47.7747 68.138L49.5672 64.1452L45.7566 65.0523C45.7566 65.0523 45.097 67.4393 46.2601 68.5243L47.7747 68.138Z" fill="#FFC3BD"/>
<path d="M49.3458 61.2894L46.0734 61.5629L45.7566 65.0565L49.5671 64.1495L49.3458 61.2894Z" fill="#FFC3BD"/>
<path d="M64.3753 174.72L60.5344 174.872L59.853 165.949L63.6939 165.801L64.3753 174.72Z" fill="#FFC3BD"/>
<path d="M98.5788 141.914L96.0746 144.839L88.4883 139.987L90.9925 137.057L98.5788 141.914Z" fill="#FFC3BD"/>
<path d="M95.2327 144.674L97.5285 141.002C97.5667 140.938 97.6272 140.89 97.6985 140.868C97.7697 140.845 97.8467 140.85 97.9148 140.881L101.079 142.278C101.154 142.316 101.221 142.37 101.276 142.435C101.33 142.5 101.371 142.575 101.395 142.657C101.419 142.738 101.426 142.823 101.415 142.908C101.405 142.992 101.378 143.073 101.335 143.146C100.51 144.413 100.033 144.982 99.0432 146.596C98.4226 147.59 97.4157 149.634 96.5564 150.993C95.697 152.351 94.2996 151.587 94.5339 150.941C95.5842 148.037 95.2804 146.644 95.0938 145.329C95.0636 145.101 95.1126 144.87 95.2327 144.674Z" fill="#263238"/>
<path d="M60.4086 174.646L64.575 173.478C64.6465 173.456 64.7237 173.461 64.7918 173.492C64.8599 173.524 64.9141 173.579 64.9439 173.648L66.3413 176.812C66.3728 176.894 66.3863 176.982 66.381 177.07C66.3758 177.158 66.3518 177.244 66.3107 177.322C66.2697 177.4 66.2125 177.468 66.1429 177.523C66.0733 177.577 65.993 177.615 65.9073 177.636C64.4491 178.018 63.7373 178.131 61.8928 178.643C60.7644 178.96 57.4704 180.444 55.8559 180.574C54.2414 180.705 54.0331 179.112 54.6928 178.916C56.8169 178.289 58.6422 176.914 59.8313 175.045C59.9696 174.847 60.1745 174.705 60.4086 174.646Z" fill="#263238"/>
<g opacity="0.2">
<path d="M59.853 165.953L60.2046 170.553L64.0455 170.401L63.6939 165.801L59.853 165.953Z" fill="black"/>
<path d="M90.9925 137.057L88.4883 139.987L92.403 142.487L94.9071 139.557L90.9925 137.057Z" fill="black"/>
</g>
<path d="M58.8375 67.6606C58.4642 69.8306 58.1084 75.3424 59.7055 88.1541L75.3295 89.1175C75.451 83.1283 75.7635 78.3023 79.0055 66.7275C79.0864 66.4419 79.1024 66.1419 79.0522 65.8493C79.002 65.5568 78.8869 65.2792 78.7154 65.037C78.5439 64.7947 78.3204 64.5939 78.0612 64.4494C77.8019 64.3048 77.5136 64.2202 77.2174 64.2016C76.0282 64.1322 74.5309 64.0844 73.0032 64.1495C70.5969 64.202 68.1971 64.4195 65.8205 64.8005C63.7938 65.1651 61.576 65.7293 60.287 66.0721C59.9183 66.1695 59.5854 66.3711 59.3283 66.6528C59.0712 66.9346 58.9008 67.2845 58.8375 67.6606Z" fill="#983C69"/>
<path opacity="0.2" d="M58.8375 67.6606C58.4642 69.8306 58.1084 75.3424 59.7055 88.1541L75.3295 89.1175C75.451 83.1283 75.7635 78.3023 79.0055 66.7275C79.0864 66.4419 79.1024 66.1419 79.0522 65.8493C79.002 65.5568 78.8869 65.2792 78.7154 65.037C78.5439 64.7947 78.3204 64.5939 78.0612 64.4494C77.8019 64.3048 77.5136 64.2202 77.2174 64.2016C76.0282 64.1322 74.5309 64.0844 73.0032 64.1495C70.5969 64.202 68.1971 64.4195 65.8205 64.8005C63.7938 65.1651 61.576 65.7293 60.287 66.0721C59.9183 66.1695 59.5854 66.3711 59.3283 66.6528C59.0712 66.9346 58.9008 67.2845 58.8375 67.6606Z" fill="black"/>
<path d="M59.7054 88.1541C59.7054 88.1541 54.8446 117.588 54.3716 129.328C53.8811 141.54 59.3756 169.316 59.3756 169.316H64.5836C64.5836 169.316 62.6827 142.799 63.8848 130.851C65.1868 117.831 71.1457 88.8571 71.1457 88.8571L59.7054 88.1541Z" fill="#263238"/>
<path d="M65.035 169.503H58.9243L58.4729 167.554L65.3171 167.316L65.035 169.503Z" fill="#983C69"/>
<path opacity="0.2" d="M65.9896 95.94C61.6757 103.418 63.8717 117.683 64.9046 123.004C66.0851 115.192 67.8515 105.644 69.2056 98.6352C68.8671 94.612 67.9774 92.4897 65.9896 95.94Z" fill="black"/>
<path d="M63.8328 88.4058C63.8328 88.4058 66.0028 123.664 68.6936 128.542C72.9771 136.276 91.14 142.617 91.14 142.617L94.5513 138.624C94.5513 138.624 83.1892 129.176 77.1913 123.807C75.7634 114.055 80.8108 98.6655 75.3555 89.1175L63.8328 88.4058Z" fill="#263238"/>
<path d="M75.6159 88.2148L75.9284 89.6383C75.9761 89.7511 75.8416 89.851 75.6593 89.8423L59.6013 88.8484C59.4581 88.8484 59.3452 88.7616 59.3452 88.6748L59.2888 87.2687C59.2888 87.1689 59.4103 87.0951 59.5666 87.1038L75.3685 88.102C75.4158 88.0992 75.4631 88.108 75.5062 88.1277C75.5493 88.1473 75.587 88.1772 75.6159 88.2148Z" fill="#983C69"/>
<path d="M73.3807 89.838L73.8147 89.864C73.8971 89.864 73.9666 89.8293 73.9622 89.7772L73.8754 87.9501C73.8754 87.8936 73.8017 87.8459 73.7192 87.8416L73.2852 87.8155C73.2027 87.8155 73.1333 87.8502 73.1376 87.9023L73.2244 89.7338C73.2244 89.7989 73.2982 89.838 73.3807 89.838Z" fill="#263238"/>
<path d="M60.7601 89.0742L61.1941 89.1002C61.2809 89.1002 61.346 89.0655 61.346 89.0134L61.2592 87.1819C61.2592 87.1298 61.1854 87.0821 61.0986 87.0778L60.6646 87.0517C60.5778 87.0517 60.5127 87.0864 60.5171 87.1385L60.5995 88.9657C60.6125 89.0221 60.682 89.0698 60.7601 89.0742Z" fill="#263238"/>
<path d="M67.0748 89.4647L67.5088 89.4907C67.5912 89.4907 67.6607 89.456 67.6563 89.3996L67.5695 87.5725C67.5695 87.5204 67.4958 87.4726 67.4133 87.464L66.9793 87.4379C66.8968 87.4379 66.8274 87.4726 66.8317 87.5291L66.9185 89.3562C66.9185 89.4039 66.9923 89.456 67.0748 89.4647Z" fill="#263238"/>
<path d="M94.9636 138.173L90.7277 143.129L88.7227 142.326L93.4402 136.272L94.9636 138.173Z" fill="#983C69"/>
<path d="M60.7817 79.4437C60.2992 79.5493 59.8659 79.8136 59.5513 80.1944C59.2366 80.5751 59.0586 81.0504 59.0457 81.5442C58.9987 81.4449 58.942 81.3504 58.8765 81.2621C58.7972 81.1416 58.7039 81.0309 58.5987 80.9323C58.4936 80.8302 58.3787 80.7387 58.2559 80.6589C58.1345 80.5801 58.005 80.5146 57.8696 80.4636C57.7298 80.4082 57.5842 80.3689 57.4356 80.3464C57.2927 80.3182 57.1472 80.3051 57.0016 80.3073C56.8558 80.3134 56.7107 80.3309 56.5676 80.3594C56.2822 80.4205 56.0121 80.5386 55.7734 80.7066C55.6539 80.7872 55.5433 80.8803 55.4435 80.9844C55.3441 81.0907 55.2541 81.2054 55.1745 81.3272C55.0943 81.45 55.0273 81.5809 54.9748 81.7178C54.9237 81.859 54.8845 82.0041 54.8576 82.1518C54.8342 82.2952 54.824 82.4405 54.8273 82.5858C54.8266 82.8777 54.8888 83.1664 55.0095 83.4321C55.0685 83.5657 55.1397 83.6936 55.2222 83.814C55.3029 83.9322 55.396 84.0413 55.5 84.1395C55.6042 84.2426 55.7191 84.3343 55.8428 84.413C55.9642 84.4917 56.0937 84.5572 56.2291 84.6083C56.3695 84.6615 56.5149 84.7008 56.6631 84.7254C56.7709 84.742 56.8796 84.7521 56.9886 84.7558C56.5495 84.9721 56.1946 85.3281 55.9798 85.768C55.765 86.2078 55.7023 86.7065 55.8016 87.1858C55.901 87.6651 56.1567 88.0979 56.5286 88.4161C56.9006 88.7343 57.3677 88.92 57.8566 88.9439C57.4199 89.166 57.069 89.5263 56.8587 89.9688C56.6484 90.4113 56.5906 90.9109 56.6942 91.3898C56.7978 91.8686 57.057 92.2996 57.4314 92.6156C57.8057 92.9316 58.2742 93.1147 58.7636 93.1364C58.3264 93.36 57.9761 93.723 57.7682 94.168C57.5603 94.613 57.5066 95.1145 57.6157 95.5934C57.7247 96.0723 57.9902 96.5012 58.3702 96.8124C58.7502 97.1235 59.2231 97.2991 59.7141 97.3114C59.36 97.4894 59.0603 97.7592 58.8461 98.0926C58.6898 98.3385 58.5836 98.6129 58.5336 98.8999C58.5067 99.0429 58.4951 99.1884 58.4989 99.3339C58.4968 99.6329 58.5589 99.9289 58.6812 100.202C58.7393 100.335 58.8105 100.461 58.8938 100.579C58.976 100.699 59.0705 100.81 59.1759 100.909C59.2797 101.012 59.3931 101.105 59.5145 101.187C60.011 101.501 60.6112 101.607 61.1854 101.482C61.3345 101.453 61.48 101.408 61.6194 101.348C61.7511 101.289 61.8774 101.22 61.9969 101.139C62.1155 101.056 62.226 100.961 62.3268 100.857C62.4288 100.753 62.519 100.638 62.5959 100.514C62.676 100.392 62.743 100.261 62.7955 100.124C62.849 99.9834 62.8883 99.838 62.9127 99.6898C62.9328 99.5809 62.9444 99.4706 62.9474 99.3599C63.1654 99.8017 63.5246 100.158 63.968 100.373C64.4115 100.587 64.9138 100.648 65.3956 100.545C65.8773 100.442 66.3109 100.181 66.6276 99.8034C66.9443 99.4261 67.1261 98.9539 67.1442 98.4615C67.3642 98.9021 67.7248 99.2567 68.169 99.4693C68.6132 99.6819 69.1156 99.7402 69.5968 99.6351C70.0779 99.53 70.5102 99.2675 70.8253 98.8891C71.1404 98.5107 71.3204 98.038 71.3366 97.5458C71.558 97.9851 71.9191 98.3384 72.3633 98.55C72.8074 98.7616 73.3093 98.8196 73.79 98.7147C74.2706 98.6098 74.7028 98.3481 75.0184 97.9707C75.334 97.5933 75.5152 97.1217 75.5334 96.6301C75.7548 97.0694 76.1159 97.4227 76.5601 97.6343C77.0042 97.8459 77.5061 97.9038 77.9867 97.7989C78.4674 97.6941 78.8995 97.4323 79.2152 97.0549C79.5308 96.6776 79.712 96.2059 79.7302 95.7143C79.9494 96.157 80.3106 96.5134 80.7561 96.7266C81.2017 96.9399 81.7059 96.9976 82.1881 96.8907C82.6703 96.7838 83.1028 96.5183 83.4164 96.1367C83.7301 95.7551 83.9068 95.2794 83.9183 94.7856C83.9653 94.8849 84.022 94.9794 84.0875 95.0677C84.1668 95.1881 84.2601 95.2988 84.3653 95.3975C84.4706 95.5007 84.5854 95.5937 84.7082 95.6753C84.8301 95.7531 84.9595 95.8185 85.0944 95.8706C85.2349 95.9238 85.3803 95.9631 85.5284 95.9877C85.6715 96.0144 85.8169 96.026 85.9624 96.0225C86.1084 96.0222 86.2539 96.0061 86.3964 95.9747C86.6794 95.9062 86.9482 95.7887 87.1906 95.6275C87.3083 95.543 87.4187 95.4486 87.5205 95.3454C87.6199 95.2391 87.7099 95.1244 87.7896 95.0026C87.87 94.8806 87.9356 94.7495 87.9849 94.612C88.0384 94.4787 88.0791 94.3407 88.1064 94.1997C88.1309 94.0563 88.1425 93.9111 88.1411 93.7657C88.1351 93.4675 88.0733 93.1731 87.9588 92.8977C87.8983 92.7654 87.8256 92.639 87.7418 92.5201C87.6612 92.4006 87.5681 92.29 87.4641 92.1902C87.3576 92.0897 87.2429 91.9983 87.1212 91.9168C86.9993 91.839 86.8699 91.7736 86.7349 91.7215C86.5945 91.6683 86.4491 91.629 86.3009 91.6043C86.1946 91.5878 86.0873 91.5776 85.9798 91.574C86.4189 91.3577 86.7737 91.0016 86.9886 90.5618C87.2034 90.122 87.2661 89.6233 87.1667 89.144C87.0674 88.6647 86.8117 88.2319 86.4397 87.9137C86.0678 87.5955 85.6007 87.4098 85.1118 87.3859C85.5466 87.1625 85.8954 86.8018 86.104 86.3598C86.3127 85.9178 86.3694 85.4192 86.2655 84.9416C86.1615 84.464 85.9027 84.0341 85.5293 83.7187C85.1558 83.4034 84.6886 83.2202 84.2004 83.1978C84.6361 82.973 84.9849 82.6098 85.192 82.1653C85.3991 81.7209 85.4527 81.2202 85.3444 80.742C85.2361 80.2637 84.9721 79.835 84.5938 79.523C84.2155 79.2111 83.7444 79.0335 83.2543 79.0183C83.3515 78.9707 83.4458 78.9171 83.5364 78.8578C83.7739 78.6897 83.9784 78.4794 84.1396 78.2371C84.2174 78.1152 84.2829 77.9858 84.3349 77.8509C84.3897 77.7109 84.429 77.5654 84.4521 77.4169C84.4778 77.2736 84.4909 77.1284 84.4912 76.9829C84.4869 76.8369 84.4695 76.6917 84.4391 76.5489C84.3123 75.9752 83.9636 75.4751 83.4691 75.1579C82.9746 74.8407 82.3746 74.7323 81.8004 74.8563C81.6592 74.8886 81.5212 74.9337 81.3881 74.9908C81.254 75.0488 81.1261 75.1201 81.0061 75.2035C80.8875 75.2852 80.777 75.3782 80.6763 75.4812C80.5782 75.5887 80.4882 75.7033 80.4072 75.8241C80.3284 75.947 80.2629 76.0779 80.2119 76.2147C80.1565 76.3545 80.1172 76.5001 80.0947 76.6487C80.0742 76.7575 80.0625 76.8678 80.06 76.9785C79.8447 76.5362 79.4881 76.1783 79.0466 75.9612C78.6051 75.7442 78.1039 75.6804 77.6221 75.7799C77.1404 75.8794 76.7055 76.1367 76.3862 76.5109C76.0669 76.8851 75.8813 77.3551 75.8589 77.8465C75.6364 77.4094 75.2753 77.0583 74.832 76.8482C74.3887 76.6382 73.8883 76.581 73.4091 76.6857C72.9299 76.7904 72.4989 77.051 72.1836 77.4267C71.8682 77.8025 71.6864 78.2722 71.6665 78.7623C71.4451 78.3229 71.0839 77.9696 70.6398 77.758C70.1957 77.5464 69.6938 77.4885 69.2131 77.5934C68.7325 77.6983 68.3003 77.96 67.9847 78.3374C67.6691 78.7148 67.4879 79.1864 67.4697 79.678C67.2472 79.2408 66.8861 78.8898 66.4428 78.6797C65.9995 78.4697 65.4991 78.4125 65.0199 78.5172C64.5407 78.6219 64.1097 78.8825 63.7943 79.2582C63.479 79.634 63.2972 80.1036 63.2772 80.5938C63.0511 80.1495 62.6818 79.7943 62.2291 79.5857C61.7763 79.377 61.2664 79.327 60.7817 79.4437Z" fill="#983C69"/>
<path opacity="0.7" d="M60.7817 79.4437C60.2992 79.5493 59.8659 79.8136 59.5513 80.1944C59.2366 80.5751 59.0586 81.0504 59.0457 81.5442C58.9987 81.4449 58.942 81.3504 58.8765 81.2621C58.7972 81.1416 58.7039 81.0309 58.5987 80.9323C58.4936 80.8302 58.3787 80.7387 58.2559 80.6589C58.1345 80.5801 58.005 80.5146 57.8696 80.4636C57.7298 80.4082 57.5842 80.3689 57.4356 80.3464C57.2927 80.3182 57.1472 80.3051 57.0016 80.3073C56.8558 80.3134 56.7107 80.3309 56.5676 80.3594C56.2822 80.4205 56.0121 80.5386 55.7734 80.7066C55.6539 80.7872 55.5433 80.8803 55.4435 80.9844C55.3441 81.0907 55.2541 81.2054 55.1745 81.3272C55.0943 81.45 55.0273 81.5809 54.9748 81.7178C54.9237 81.859 54.8845 82.0041 54.8576 82.1518C54.8342 82.2952 54.824 82.4405 54.8273 82.5858C54.8266 82.8777 54.8888 83.1664 55.0095 83.4321C55.0685 83.5657 55.1397 83.6936 55.2222 83.814C55.3029 83.9322 55.396 84.0413 55.5 84.1395C55.6042 84.2426 55.7191 84.3343 55.8428 84.413C55.9642 84.4917 56.0937 84.5572 56.2291 84.6083C56.3695 84.6615 56.5149 84.7008 56.6631 84.7254C56.7709 84.742 56.8796 84.7521 56.9886 84.7558C56.5495 84.9721 56.1946 85.3281 55.9798 85.768C55.765 86.2078 55.7023 86.7065 55.8016 87.1858C55.901 87.6651 56.1567 88.0979 56.5286 88.4161C56.9006 88.7343 57.3677 88.92 57.8566 88.9439C57.4199 89.166 57.069 89.5263 56.8587 89.9688C56.6484 90.4113 56.5906 90.9109 56.6942 91.3898C56.7978 91.8686 57.057 92.2996 57.4314 92.6156C57.8057 92.9316 58.2742 93.1147 58.7636 93.1364C58.3264 93.36 57.9761 93.723 57.7682 94.168C57.5603 94.613 57.5066 95.1145 57.6157 95.5934C57.7247 96.0723 57.9902 96.5012 58.3702 96.8124C58.7502 97.1235 59.2231 97.2991 59.7141 97.3114C59.36 97.4894 59.0603 97.7592 58.8461 98.0926C58.6898 98.3385 58.5836 98.6129 58.5336 98.8999C58.5067 99.0429 58.4951 99.1884 58.4989 99.3339C58.4968 99.6329 58.5589 99.9289 58.6812 100.202C58.7393 100.335 58.8105 100.461 58.8938 100.579C58.976 100.699 59.0705 100.81 59.1759 100.909C59.2797 101.012 59.3931 101.105 59.5145 101.187C60.011 101.501 60.6112 101.607 61.1854 101.482C61.3345 101.453 61.48 101.408 61.6194 101.348C61.7511 101.289 61.8774 101.22 61.9969 101.139C62.1155 101.056 62.226 100.961 62.3268 100.857C62.4288 100.753 62.519 100.638 62.5959 100.514C62.676 100.392 62.743 100.261 62.7955 100.124C62.849 99.9834 62.8883 99.838 62.9127 99.6898C62.9328 99.5809 62.9444 99.4706 62.9474 99.3599C63.1654 99.8017 63.5246 100.158 63.968 100.373C64.4115 100.587 64.9138 100.648 65.3956 100.545C65.8773 100.442 66.3109 100.181 66.6276 99.8034C66.9443 99.4261 67.1261 98.9539 67.1442 98.4615C67.3642 98.9021 67.7248 99.2567 68.169 99.4693C68.6132 99.6819 69.1156 99.7402 69.5968 99.6351C70.0779 99.53 70.5102 99.2675 70.8253 98.8891C71.1404 98.5107 71.3204 98.038 71.3366 97.5458C71.558 97.9851 71.9191 98.3384 72.3633 98.55C72.8074 98.7616 73.3093 98.8196 73.79 98.7147C74.2706 98.6098 74.7028 98.3481 75.0184 97.9707C75.334 97.5933 75.5152 97.1217 75.5334 96.6301C75.7548 97.0694 76.1159 97.4227 76.5601 97.6343C77.0042 97.8459 77.5061 97.9038 77.9867 97.7989C78.4674 97.6941 78.8995 97.4323 79.2152 97.0549C79.5308 96.6776 79.712 96.2059 79.7302 95.7143C79.9494 96.157 80.3106 96.5134 80.7561 96.7266C81.2017 96.9399 81.7059 96.9976 82.1881 96.8907C82.6703 96.7838 83.1028 96.5183 83.4164 96.1367C83.7301 95.7551 83.9068 95.2794 83.9183 94.7856C83.9653 94.8849 84.022 94.9794 84.0875 95.0677C84.1668 95.1881 84.2601 95.2988 84.3653 95.3975C84.4706 95.5007 84.5854 95.5937 84.7082 95.6753C84.8301 95.7531 84.9595 95.8185 85.0944 95.8706C85.2349 95.9238 85.3803 95.9631 85.5284 95.9877C85.6715 96.0144 85.8169 96.026 85.9624 96.0225C86.1084 96.0222 86.2539 96.0061 86.3964 95.9747C86.6794 95.9062 86.9482 95.7887 87.1906 95.6275C87.3083 95.543 87.4187 95.4486 87.5205 95.3454C87.6199 95.2391 87.7099 95.1244 87.7896 95.0026C87.87 94.8806 87.9356 94.7495 87.9849 94.612C88.0384 94.4787 88.0791 94.3407 88.1064 94.1997C88.1309 94.0563 88.1425 93.9111 88.1411 93.7657C88.1351 93.4675 88.0733 93.1731 87.9588 92.8977C87.8983 92.7654 87.8256 92.639 87.7418 92.5201C87.6612 92.4006 87.5681 92.29 87.4641 92.1902C87.3576 92.0897 87.2429 91.9983 87.1212 91.9168C86.9993 91.839 86.8699 91.7736 86.7349 91.7215C86.5945 91.6683 86.4491 91.629 86.3009 91.6043C86.1946 91.5878 86.0873 91.5776 85.9798 91.574C86.4189 91.3577 86.7737 91.0016 86.9886 90.5618C87.2034 90.122 87.2661 89.6233 87.1667 89.144C87.0674 88.6647 86.8117 88.2319 86.4397 87.9137C86.0678 87.5955 85.6007 87.4098 85.1118 87.3859C85.5466 87.1625 85.8954 86.8018 86.104 86.3598C86.3127 85.9178 86.3694 85.4192 86.2655 84.9416C86.1615 84.464 85.9027 84.0341 85.5293 83.7187C85.1558 83.4034 84.6886 83.2202 84.2004 83.1978C84.6361 82.973 84.9849 82.6098 85.192 82.1653C85.3991 81.7209 85.4527 81.2202 85.3444 80.742C85.2361 80.2637 84.9721 79.835 84.5938 79.523C84.2155 79.2111 83.7444 79.0335 83.2543 79.0183C83.3515 78.9707 83.4458 78.9171 83.5364 78.8578C83.7739 78.6897 83.9784 78.4794 84.1396 78.2371C84.2174 78.1152 84.2829 77.9858 84.3349 77.8509C84.3897 77.7109 84.429 77.5654 84.4521 77.4169C84.4778 77.2736 84.4909 77.1284 84.4912 76.9829C84.4869 76.8369 84.4695 76.6917 84.4391 76.5489C84.3123 75.9752 83.9636 75.4751 83.4691 75.1579C82.9746 74.8407 82.3746 74.7323 81.8004 74.8563C81.6592 74.8886 81.5212 74.9337 81.3881 74.9908C81.254 75.0488 81.1261 75.1201 81.0061 75.2035C80.8875 75.2852 80.777 75.3782 80.6763 75.4812C80.5782 75.5887 80.4882 75.7033 80.4072 75.8241C80.3284 75.947 80.2629 76.0779 80.2119 76.2147C80.1565 76.3545 80.1172 76.5001 80.0947 76.6487C80.0742 76.7575 80.0625 76.8678 80.06 76.9785C79.8447 76.5362 79.4881 76.1783 79.0466 75.9612C78.6051 75.7442 78.1039 75.6804 77.6221 75.7799C77.1404 75.8794 76.7055 76.1367 76.3862 76.5109C76.0669 76.8851 75.8813 77.3551 75.8589 77.8465C75.6364 77.4094 75.2753 77.0583 74.832 76.8482C74.3887 76.6382 73.8883 76.581 73.4091 76.6857C72.9299 76.7904 72.4989 77.051 72.1836 77.4267C71.8682 77.8025 71.6864 78.2722 71.6665 78.7623C71.4451 78.3229 71.0839 77.9696 70.6398 77.758C70.1957 77.5464 69.6938 77.4885 69.2131 77.5934C68.7325 77.6983 68.3003 77.96 67.9847 78.3374C67.6691 78.7148 67.4879 79.1864 67.4697 79.678C67.2472 79.2408 66.8861 78.8898 66.4428 78.6797C65.9995 78.4697 65.4991 78.4125 65.0199 78.5172C64.5407 78.6219 64.1097 78.8825 63.7943 79.2582C63.479 79.634 63.2972 80.1036 63.2772 80.5938C63.0511 80.1495 62.6818 79.7943 62.2291 79.5857C61.7763 79.377 61.2664 79.327 60.7817 79.4437Z" fill="white"/>
<path d="M80.7572 78.2686L58.8981 83.0346C58.4625 83.1296 58.1864 83.5597 58.2813 83.9953L61.2112 97.4331C61.3062 97.8687 61.7363 98.1448 62.1719 98.0498L84.0311 93.2838C84.4667 93.1888 84.7428 92.7587 84.6478 92.3231L81.7179 78.8853C81.6229 78.4497 81.1928 78.1736 80.7572 78.2686Z" fill="white"/>
<path d="M78.9881 67.9514C79.7476 69.861 80.4073 71.7576 81.0105 73.7019C81.6138 75.6462 82.165 77.6079 82.6077 79.613C82.6641 79.8647 82.7162 80.1207 82.7682 80.3725L82.842 80.75L82.8811 80.941L82.9115 81.1233C82.9267 81.2021 82.9368 81.2818 82.9418 81.362C82.9751 81.7892 82.8989 82.2179 82.7205 82.6076C82.5241 83.0199 82.2158 83.3687 81.8308 83.6144C81.5713 83.777 81.2869 83.8957 80.9888 83.966C80.7777 84.0153 80.5629 84.0472 80.3465 84.0615C79.7121 84.0916 79.0764 84.0421 78.4543 83.9139C77.9186 83.8103 77.3885 83.6799 76.8658 83.5233C74.8834 82.9127 72.9613 82.1209 71.124 81.158L71.8184 79.3352C73.7237 79.7692 75.6723 80.2336 77.5299 80.5244C77.9942 80.5981 78.4499 80.6502 78.8839 80.6806C79.248 80.7195 79.6154 80.7122 79.9776 80.6589C80.0861 80.6589 80.1425 80.5678 79.9169 80.6849C79.7409 80.7945 79.6007 80.9528 79.5132 81.1406C79.4373 81.3006 79.3987 81.4757 79.4004 81.6528C79.4004 81.6875 79.4004 81.6875 79.4004 81.7048C79.4004 81.7222 79.4004 81.7526 79.4004 81.7048L79.3527 81.5312L79.2572 81.1797C79.1921 80.9497 79.1357 80.7153 79.0619 80.4853C78.5281 78.6234 77.9205 76.7616 77.2868 74.8997C76.6532 73.0379 75.9848 71.1803 75.3078 69.3575L78.9881 67.9514Z" fill="#FFC3BD"/>
<path d="M78.4542 64.3839C79.9862 64.9568 81.5356 70.4599 81.5356 70.4599L75.1948 74.4223C75.1948 74.4223 73.1811 69.1101 73.9623 67.1311C74.7782 65.0652 76.7008 63.7285 78.4542 64.3839Z" fill="#983C69"/>
<path opacity="0.2" d="M78.4542 64.3839C79.9862 64.9568 81.5356 70.4599 81.5356 70.4599L75.1948 74.4223C75.1948 74.4223 73.1811 69.1101 73.9623 67.1311C74.7782 65.0652 76.7008 63.7285 78.4542 64.3839Z" fill="black"/>
<path d="M94.612 146.649H94.5686C94.4824 146.669 94.3925 146.668 94.3069 146.645C94.2213 146.623 94.1427 146.579 94.0781 146.518C94.0329 146.486 93.9975 146.442 93.976 146.39C93.9546 146.339 93.9479 146.283 93.9566 146.228C94.0217 145.742 95.2803 145.147 95.4235 145.082C95.4382 145.072 95.4556 145.066 95.4735 145.066C95.4913 145.066 95.5087 145.072 95.5234 145.082C95.5369 145.093 95.5467 145.108 95.5513 145.126C95.556 145.143 95.5553 145.161 95.5494 145.177C95.3671 145.681 95.046 146.479 94.612 146.649ZM95.302 145.347C94.8029 145.594 94.1693 145.998 94.1346 146.254C94.1322 146.278 94.1366 146.303 94.1473 146.325C94.158 146.347 94.1746 146.366 94.1953 146.379C94.2367 146.421 94.2879 146.451 94.3441 146.467C94.4003 146.483 94.4596 146.484 94.5165 146.471C94.7508 146.419 95.046 146.002 95.2803 145.364L95.302 145.347Z" fill="#983C69"/>
<path d="M95.3542 145.321C94.9202 145.49 94.0044 145.585 93.7136 145.321C93.6618 145.27 93.6284 145.204 93.619 145.132C93.6095 145.06 93.6245 144.988 93.6616 144.926C93.69 144.862 93.7325 144.805 93.7859 144.76C93.8392 144.715 93.9021 144.683 93.9697 144.665C94.5079 144.505 95.4496 145.099 95.4887 145.099C95.5027 145.108 95.5141 145.12 95.5217 145.134C95.5294 145.149 95.5329 145.165 95.5321 145.182C95.5317 145.198 95.5271 145.213 95.5188 145.227C95.5104 145.241 95.4985 145.252 95.4844 145.26L95.3542 145.321ZM93.9957 144.839C93.9586 144.852 93.9245 144.873 93.8955 144.9C93.8664 144.927 93.843 144.959 93.8265 144.995C93.7787 145.104 93.8265 145.151 93.8265 145.182C94.0218 145.364 94.7856 145.325 95.2283 145.182C94.9028 145.004 94.3299 144.748 94.0088 144.839H93.9957Z" fill="#983C69"/>
<path d="M59.1976 175.683C58.8884 175.8 58.5483 175.808 58.2341 175.705C58.1598 175.669 58.0953 175.615 58.0461 175.549C57.997 175.482 57.9647 175.405 57.952 175.323C57.9425 175.273 57.9454 175.222 57.9606 175.173C57.9757 175.125 58.0026 175.081 58.0388 175.045C58.4207 174.672 60.1133 175.011 60.3043 175.045C60.3224 175.048 60.3391 175.057 60.3517 175.07C60.3643 175.084 60.372 175.101 60.3737 175.119C60.3776 175.138 60.3749 175.158 60.3663 175.175C60.3576 175.192 60.3435 175.206 60.326 175.214C59.9651 175.405 59.5874 175.562 59.1976 175.683ZM58.3296 175.102C58.2714 175.113 58.2175 175.14 58.1734 175.18C58.1584 175.193 58.1476 175.21 58.1422 175.23C58.1368 175.249 58.1371 175.269 58.143 175.288C58.1503 175.342 58.1702 175.393 58.2012 175.438C58.2321 175.482 58.2731 175.519 58.3209 175.544C58.603 175.683 59.2236 175.544 60.0092 175.18C59.455 175.058 58.884 175.031 58.3209 175.102H58.3296Z" fill="#983C69"/>
<path d="M60.326 175.228H60.2913C59.7922 175.149 58.6898 174.598 58.6421 174.156C58.6421 174.051 58.6681 173.908 58.9025 173.817C58.986 173.78 59.0761 173.762 59.1672 173.762C59.2584 173.762 59.3485 173.78 59.432 173.817C60.0092 174.077 60.3738 175.05 60.3868 175.093C60.3954 175.106 60.3999 175.121 60.3999 175.136C60.3999 175.152 60.3954 175.167 60.3868 175.18C60.3813 175.192 60.3729 175.203 60.3623 175.211C60.3517 175.22 60.3393 175.225 60.326 175.228ZM59.024 173.973H58.9719C58.8157 174.034 58.82 174.103 58.8244 174.125C58.8547 174.386 59.6229 174.85 60.1524 174.993C59.9984 174.582 59.7209 174.229 59.3582 173.982C59.2516 173.938 59.1327 173.935 59.024 173.973Z" fill="#983C69"/>
<path d="M73.0031 63.9933C70.5953 64.0454 68.194 64.2629 65.8161 64.6443C64.9481 64.8005 64.0497 64.9915 63.2121 65.1868C62.5654 65.8768 61.4413 69.3662 62.7043 71.7272C63.5376 70.3297 64.9394 69.1232 65.8725 68.9843C66.8967 69.262 67.9079 70.8114 68.1553 72.1785C69.8306 71.8747 73.4545 67.9557 75.5333 64.8005L76.0628 63.9846C75.082 63.9542 74.0577 63.9499 73.0031 63.9933Z" fill="#983C69"/>
<path d="M72.7818 56.2594C72.1872 58.5726 71.4798 62.7694 72.9988 64.1495C72.9988 64.1495 71.5666 66.4801 67.9297 66.9011C63.9282 67.3698 65.8161 64.8005 65.8161 64.8005C68.4201 63.9629 68.4808 62.088 68.1423 60.3607L72.7818 56.2594Z" fill="#FFC3BD"/>
<path d="M65.816 64.8006C65.816 64.8006 64.2146 66.4888 65.7379 69.5746C68.9582 68.0773 72.0439 66.3022 72.9987 64.1582L65.816 64.8006Z" fill="#FFC3BD"/>
<path opacity="0.2" d="M70.8896 57.9303L68.1423 60.3607C68.2285 60.7661 68.2765 61.1788 68.2856 61.5932C69.2794 61.3632 70.9199 60.3737 71.0892 59.3538C71.119 58.8707 71.0511 58.3865 70.8896 57.9303Z" fill="black"/>
<path d="M75.8285 53.4644C74.4657 57.0363 73.9623 58.577 71.5406 59.8703C67.8906 61.8189 63.8024 59.3625 64.0714 55.4565C64.3145 51.9368 66.5018 46.6854 70.5207 46.3425C71.4083 46.2616 72.3018 46.4098 73.1157 46.773C73.9296 47.1362 74.6367 47.7022 75.1693 48.4168C75.7019 49.1315 76.0422 49.9708 76.1576 50.8546C76.2731 51.7384 76.1597 52.637 75.8285 53.4644Z" fill="#FFC3BD"/>
<path d="M67.7039 46.3339C69.3358 45.9563 69.8739 47.8181 67.0182 48.4735C64.1625 49.1288 66.3759 46.6463 67.7039 46.3339Z" fill="#263238"/>
<path d="M69.4097 45.3486C67.0791 46.2166 68.1077 48.8944 70.7508 49.6582C73.3938 50.4221 72.5128 54.9053 74.8824 55.8905C77.2521 56.8757 78.5063 49.3371 76.4622 47.2105C74.4181 45.0839 70.9764 44.7584 69.4097 45.3486Z" fill="#263238"/>
<path d="M67.231 52.4229C66.7554 53.0168 66.2005 53.5425 65.5818 53.9853C65.6994 54.1401 65.8491 54.2676 66.0207 54.359C66.1922 54.4504 66.3816 54.5035 66.5756 54.5147L67.231 52.4229Z" fill="#ED847E"/>
<path d="M67.83 56.1813C67.683 56.1569 67.538 56.1221 67.396 56.0771C67.3731 56.0701 67.3538 56.0543 67.3424 56.0332C67.3311 56.012 67.3285 55.9873 67.3352 55.9643C67.344 55.9416 67.3608 55.9229 67.3824 55.9117C67.4039 55.9006 67.4288 55.8976 67.4524 55.9035C67.8183 56.0271 68.2082 56.0628 68.5904 56.0077C68.9727 55.9527 69.3366 55.8085 69.6528 55.5867C69.6613 55.578 69.6714 55.5711 69.6826 55.5664C69.6938 55.5617 69.7058 55.5593 69.7179 55.5593C69.73 55.5593 69.742 55.5617 69.7532 55.5664C69.7644 55.5711 69.7745 55.578 69.783 55.5867C69.7995 55.6044 69.8086 55.6276 69.8086 55.6518C69.8086 55.6759 69.7995 55.6992 69.783 55.7169C69.5058 55.9223 69.1898 56.0694 68.8541 56.1492C68.5184 56.229 68.17 56.2399 67.83 56.1813Z" fill="#263238"/>
<path d="M75.9152 56.7194C75.4588 57.3016 74.7914 57.6805 74.0577 57.7741C73.0855 57.8869 72.7557 56.9798 73.1463 56.1422C73.5065 55.3871 74.4483 54.4062 75.3597 54.6927C75.5584 54.7563 75.7381 54.8686 75.8825 55.0193C76.0269 55.17 76.1314 55.3543 76.1866 55.5555C76.2417 55.7568 76.2458 55.9686 76.1984 56.1719C76.151 56.3751 76.0537 56.5633 75.9152 56.7194Z" fill="#FFC3BD"/>
<path d="M71.7661 52.514C71.7296 52.5035 71.6971 52.482 71.673 52.4526C71.649 52.4231 71.6345 52.387 71.6316 52.349C71.5795 51.5027 70.6551 50.9255 70.6464 50.9212C70.6234 50.9101 70.6029 50.8943 70.5864 50.8748C70.5699 50.8553 70.5576 50.8325 70.5505 50.808C70.5433 50.7834 70.5414 50.7576 70.5449 50.7323C70.5483 50.707 70.5571 50.6827 70.5706 50.6609C70.584 50.6392 70.6019 50.6206 70.623 50.6062C70.6442 50.5918 70.6681 50.5821 70.6933 50.5775C70.7185 50.573 70.7443 50.5739 70.7691 50.58C70.7939 50.5861 70.8172 50.5974 70.8374 50.613C70.8851 50.6391 71.931 51.2944 71.9918 52.323C71.9942 52.3471 71.9916 52.3714 71.9843 52.3944C71.977 52.4175 71.965 52.4388 71.9492 52.4571C71.9334 52.4754 71.914 52.4902 71.8922 52.5007C71.8704 52.5113 71.8467 52.5172 71.8225 52.5183L71.7661 52.514Z" fill="#263238"/>
<path d="M69.7699 52.948C69.6701 53.2171 69.4444 53.382 69.2665 53.3212C69.0886 53.2605 69.0235 52.9827 69.1233 52.7093C69.2231 52.4359 69.4488 52.2753 69.6267 52.336C69.8047 52.3968 69.8741 52.6702 69.7699 52.948Z" fill="#263238"/>
<path d="M66.4021 51.7588C66.3023 52.0279 66.0766 52.1928 65.8987 52.1321C65.7208 52.0713 65.6557 51.7936 65.7598 51.5201C65.864 51.2467 66.0853 51.0861 66.2633 51.1469C66.4412 51.2077 66.5063 51.4854 66.4021 51.7588Z" fill="#263238"/>
<path d="M66.3369 51.212L65.7554 50.778C65.7554 50.778 65.9029 51.3942 66.3369 51.212Z" fill="#263238"/>
<path d="M69.7005 52.3751L69.1189 51.9411C69.1189 51.9411 69.2665 52.5791 69.7005 52.3751Z" fill="#263238"/>
<path d="M65.6339 49.476C65.6021 49.4762 65.5708 49.4678 65.5433 49.4518C65.5159 49.4357 65.4932 49.4126 65.4777 49.3849C65.4542 49.3428 65.4484 49.2932 65.4614 49.2469C65.4744 49.2005 65.5052 49.1612 65.5471 49.1375C65.7947 48.9866 66.0751 48.8975 66.3644 48.8779C66.6537 48.8582 66.9436 48.9086 67.2093 49.0246C67.2525 49.0465 67.2852 49.0846 67.3002 49.1306C67.3153 49.1766 67.3115 49.2267 67.2896 49.2699C67.2677 49.313 67.2296 49.3457 67.1836 49.3608C67.1376 49.3758 67.0876 49.372 67.0444 49.3501C66.8346 49.2634 66.6072 49.2276 66.3809 49.2457C66.1545 49.2638 65.9357 49.3353 65.7424 49.4543C65.7104 49.4753 65.6715 49.4831 65.6339 49.476Z" fill="#263238"/>
<path d="M72.3262 79.5174L69.7005 76.2841L68.967 80.1337C68.967 80.1337 70.8723 81.7091 72.3522 81.1059L72.3262 79.5174Z" fill="#FFC3BD"/>
<path d="M67.3698 75.7503L66.1025 78.8144L68.9669 80.1337L69.7004 76.2842L67.3698 75.7503Z" fill="#FFC3BD"/>
<path d="M177.917 103.879L177.507 103.918L178.041 109.474L178.451 109.434L177.917 103.879Z" fill="#983C69"/>
<path d="M178.645 111.368L178.235 111.407L178.45 113.65L178.861 113.61L178.645 111.368Z" fill="#983C69"/>
<path d="M79.5762 159.487L180.882 149.75L175.086 89.4419L73.7797 99.1787L79.5762 159.487Z" fill="#983C69"/>
<path opacity="0.1" d="M79.5762 159.487L180.882 149.75L175.086 89.4419L73.7797 99.1787L79.5762 159.487Z" fill="black"/>
<path opacity="0.1" d="M127.596 127.205L73.78 99.1777L175.084 89.4387L127.596 127.205Z" fill="#263238"/>
<path d="M115.336 66.1328L73.78 99.1776L175.084 89.4386L127.995 64.9176C125.994 63.8747 123.732 63.4344 121.485 63.65C119.239 63.8657 117.102 64.7281 115.336 66.1328Z" fill="#983C69"/>
<path opacity="0.2" d="M171.322 89.8033L126.581 66.5018C125.071 65.7147 123.366 65.3822 121.671 65.5448C119.976 65.7073 118.365 66.3578 117.033 67.4175L77.5386 98.8131L171.322 89.8033Z" fill="#263238"/>
<path d="M152.612 89.0611L166.322 92.7241L166.652 96.144L127.596 127.205L83.3367 104.156L82.677 97.3158L152.612 89.0611Z" fill="white"/>
<path d="M152.612 89.0611L155.203 96.2395L166.322 92.7241" fill="#E0E0E0"/>
<path d="M152.612 89.0611L153.944 94.9809L166.322 92.7241" fill="#F0F0F0"/>
<path d="M135.69 120.756L180.883 149.752L79.5784 159.486L118.417 122.414C120.694 120.242 123.634 118.898 126.767 118.597C129.899 118.296 133.042 119.057 135.69 120.756Z" fill="#983C69"/>
</svg>
