<svg width="88" height="87" viewBox="0 0 88 87" fill="none" xmlns="http://www.w3.org/2000/svg">
<ellipse cx="44" cy="43.5" rx="44" ry="43.5" fill="#AE394D"/>
<g clip-path="url(#clip0_1_5)">
<path d="M48.22 47.726C48.1419 47.7154 48.0624 47.7239 47.9883 47.7509C47.9143 47.7779 47.8479 47.8226 47.795 47.881C47.7412 47.9384 47.7017 48.0078 47.6798 48.0834C47.6579 48.159 47.6542 48.2387 47.669 48.316C47.945 49.766 48.874 51.756 51.726 52.995C52.064 53.141 52.586 53.255 53.248 53.398C55.726 53.934 59.87 54.832 60.888 58.63C60.9051 58.6935 60.9345 58.753 60.9746 58.8051C61.0146 58.8573 61.0646 58.901 61.1215 58.9338C61.1785 58.9666 61.2414 58.9879 61.3066 58.9964C61.3718 59.005 61.438 59.0006 61.5015 58.9835C61.565 58.9664 61.6245 58.937 61.6766 58.8969C61.7288 58.8569 61.7725 58.8069 61.8053 58.75C61.8381 58.693 61.8594 58.6301 61.8679 58.5649C61.8765 58.4997 61.8721 58.4335 61.855 58.37C60.678 53.983 55.983 52.966 53.46 52.42C52.876 52.293 52.371 52.184 52.124 52.076C50.41 51.332 49.303 50.228 48.823 48.79C53.585 49.144 55.741 47.247 55.836 47.161C55.8946 47.108 55.9397 47.0418 55.9678 46.9679C55.9959 46.8941 56.006 46.8146 55.9974 46.736C55.9888 46.6575 55.9618 46.5821 55.9184 46.516C55.875 46.45 55.8166 46.3951 55.748 46.356C53 44.786 53 39.361 53 37.318C53 31.605 49.152 27.076 44.219 27.005C44.172 27.0034 44.125 27.0024 44.078 27.002C39.073 27.03 35 31.564 35 37.11C35 39.153 35 44.579 32.252 46.148C32.1812 46.1891 32.1214 46.247 32.078 46.3164C32.0346 46.3859 32.0089 46.4649 32.0029 46.5466C31.997 46.6284 32.0112 46.7103 32.0441 46.7853C32.0771 46.8603 32.1278 46.9261 32.192 46.977C32.33 47.084 35.38 49.418 39.133 48.709C38.631 50.087 37.539 51.147 35.875 51.87C35.634 51.975 35.154 52.09 34.598 52.222C32.058 52.826 27.329 53.951 26.145 58.369C26.128 58.4325 26.1237 58.4987 26.1322 58.5639C26.1408 58.6291 26.1622 58.6919 26.195 58.7488C26.2614 58.8638 26.3708 58.9477 26.499 58.982C26.6272 59.0163 26.7639 58.9983 26.8788 58.932C26.9938 58.8656 27.0777 58.7562 27.112 58.628C28.141 54.784 32.329 53.789 34.83 53.193C35.457 53.044 35.952 52.926 36.274 52.787C39.126 51.548 40.054 49.558 40.331 48.108C40.3474 48.0231 40.3414 47.9353 40.3135 47.8534C40.2856 47.7715 40.2369 47.6983 40.172 47.641C40.1077 47.5832 40.0293 47.5432 39.9448 47.525C39.8603 47.5068 39.7724 47.5109 39.69 47.537C36.983 48.389 34.482 47.217 33.389 46.567C36 44.381 36 39.35 36 37.11C36 32.113 39.626 28.027 44.12 28L44.226 28.006C48.658 28.069 52 32.072 52 37.318C52 39.559 52 44.601 54.622 46.787C53.719 47.303 51.66 48.138 48.22 47.726Z" fill="#111111"/>
</g>
<defs>
<clipPath id="clip0_1_5">
<rect width="36" height="32" fill="white" transform="translate(26 27)"/>
</clipPath>
</defs>
</svg>
