<svg width="527" height="479" viewBox="0 0 527 479" fill="none" xmlns="http://www.w3.org/2000/svg">
<path d="M5.9471 188.891L69.3359 188.593L132.725 188.481L259.502 188.27L386.28 188.481L449.668 188.593L513.057 188.891L449.668 189.201L386.28 189.313L259.502 189.512L132.725 189.301L69.3359 189.201L5.9471 188.891Z" fill="#EBEBEB"/>
<path d="M5.9471 231.852L69.3359 231.541L132.725 231.442L259.502 231.231L386.28 231.429L449.668 231.541L513.057 231.852L449.668 232.15L386.28 232.262L259.502 232.473L132.725 232.262L69.3359 232.15L5.9471 231.852Z" fill="#EBEBEB"/>
<path d="M5.9471 145.98L69.3359 145.682L132.725 145.57L259.502 145.359L386.28 145.57L449.668 145.682L513.057 145.98L449.668 146.278L386.28 146.39L259.502 146.601L132.725 146.39L69.3359 146.278L5.9471 145.98Z" fill="#EBEBEB"/>
<path d="M5.9471 274.8L69.3359 274.502L132.725 274.39L259.502 274.179L386.28 274.39L449.668 274.502L513.057 274.8L449.668 275.111L386.28 275.21L259.502 275.421L132.725 275.21L69.3359 275.111L5.9471 274.8Z" fill="#EBEBEB"/>
<path d="M5.9471 317.761L69.3359 317.45L132.725 317.339L259.502 317.14L386.28 317.339L449.668 317.45L513.057 317.761L449.668 318.059L386.28 318.171L259.502 318.369L132.725 318.171L69.3359 318.059L5.9471 317.761Z" fill="#EBEBEB"/>
<path d="M5.9471 360.709L69.3359 360.411L132.725 360.299L259.502 360.088L386.28 360.299L449.668 360.411L513.057 360.709L449.668 361.007L386.28 361.119L259.502 361.33L132.725 361.119L69.3359 361.007L5.9471 360.709Z" fill="#EBEBEB"/>
<path d="M302.796 102.473L303.109 139.819L303.222 177.179L303.422 251.873L303.222 326.567L303.109 363.926L302.796 401.273L302.496 363.926L302.383 326.567L302.17 251.873L302.383 177.179L302.496 139.819L302.796 102.473Z" fill="#EBEBEB"/>
<path d="M259.502 102.473L259.803 139.819L259.915 177.179L260.128 251.873L259.915 326.567L259.815 363.926L259.502 401.273L259.189 363.926L259.089 326.567L258.876 251.873L259.089 177.179L259.202 139.819L259.502 102.473Z" fill="#EBEBEB"/>
<path d="M216.208 102.473L216.508 139.819L216.621 177.179L216.821 251.873L216.621 326.567L216.508 363.926L216.208 401.273L215.895 363.926L215.782 326.567L215.582 251.873L215.782 177.179L215.895 139.819L216.208 102.473Z" fill="#EBEBEB"/>
<path d="M172.901 102.473L173.202 139.819L173.315 177.179L173.527 251.873L173.315 326.567L173.214 363.926L172.901 401.273L172.601 363.926L172.488 326.567L172.275 251.873L172.488 177.179L172.601 139.819L172.901 102.473Z" fill="#EBEBEB"/>
<path d="M432.704 102.473L433.004 139.819L433.117 177.179L433.33 251.873L433.117 326.567L433.004 363.926L432.704 401.273L432.391 363.926L432.278 326.567L432.078 251.873L432.291 177.179L432.391 139.819L432.704 102.473Z" fill="#EBEBEB"/>
<path d="M389.397 102.473L389.71 139.819L389.81 177.179L390.023 251.873L389.81 326.567L389.71 363.926L389.397 401.273L389.097 363.926L388.984 326.567L388.771 251.873L388.984 177.179L389.097 139.819L389.397 102.473Z" fill="#EBEBEB"/>
<path d="M346.103 102.473L346.403 139.819L346.516 177.179L346.729 251.873L346.516 326.567L346.403 363.926L346.103 401.273L345.79 363.926L345.69 326.567L345.477 251.873L345.69 177.179L345.802 139.819L346.103 102.473Z" fill="#EBEBEB"/>
<path d="M475.998 102.473L476.299 139.819L476.411 177.179L476.624 251.873L476.411 326.567L476.311 363.926L475.998 401.273L475.698 363.926L475.585 326.567L475.372 251.873L475.585 177.179L475.698 139.819L475.998 102.473Z" fill="#EBEBEB"/>
<path d="M432.704 102.473L433.004 139.819L433.117 177.179L433.33 251.873L433.117 326.567L433.004 363.926L432.704 401.273L432.391 363.926L432.278 326.567L432.078 251.873L432.291 177.179L432.391 139.819L432.704 102.473Z" fill="#EBEBEB"/>
<path d="M129.607 102.473L129.908 139.819L130.02 177.179L130.233 251.873L130.02 326.567L129.908 363.926L129.607 401.273L129.294 363.926L129.181 326.567L128.981 251.873L129.194 177.179L129.294 139.819L129.607 102.473Z" fill="#EBEBEB"/>
<path d="M86.3004 102.473L86.6134 139.819L86.7135 177.179L86.9264 251.873L86.726 326.567L86.6134 363.926L86.3004 401.273L85.9999 363.926L85.8872 326.567L85.6744 251.873L85.8872 177.179L85.9999 139.819L86.3004 102.473Z" fill="#EBEBEB"/>
<path d="M43.0064 102.473L43.3069 139.819L43.4196 177.179L43.6324 251.873L43.4196 326.567L43.3069 363.926L43.0064 401.273L42.6934 363.926L42.5933 326.567L42.3804 251.873L42.5933 177.179L42.6934 139.819L43.0064 102.473Z" fill="#EBEBEB"/>
<path d="M205.341 0.827255H5.0206V16.1163H205.341V0.827255Z" fill="#EBEBEB"/>
<path d="M180.889 157.592C179.089 157.503 177.328 157.043 175.716 156.244C174.104 155.444 172.676 154.322 171.524 152.947C166.128 147.11 163.261 136.926 164.012 126.356C164.538 119.215 167.893 110.036 171.136 101.168C174.379 92.3005 177.534 83.6811 177.609 77.794L178.498 8.24199H182.792V9.86901H180.138L179.274 77.794C179.186 84.004 176.044 92.5738 172.701 101.702C169.496 110.471 166.191 119.525 165.677 126.456C164.926 136.59 167.63 146.328 172.738 151.817C173.738 153.03 174.981 154.023 176.388 154.733C177.796 155.443 179.337 155.854 180.914 155.941L180.889 157.592Z" fill="#EBEBEB"/>
<path d="M184.708 156.959C183.503 157.388 182.232 157.602 180.952 157.592V155.965C182.529 155.915 184.078 155.542 185.502 154.868C186.927 154.195 188.195 153.237 189.227 152.053C194.473 146.663 197.428 137.025 196.94 126.878C196.614 119.935 193.534 110.794 190.555 101.951C187.45 92.7353 184.532 84.0412 184.608 77.8809L185.484 9.96836H182.83V8.34134H187.112L186.223 77.8933C186.147 83.7804 189.027 92.3502 192.082 101.417C195.137 110.483 198.217 119.625 198.555 126.791C199.068 137.36 195.938 147.47 190.392 153.171C188.816 154.851 186.871 156.147 184.708 156.959Z" fill="#EBEBEB"/>
<path d="M180.889 157.593C180.005 157.544 179.142 157.314 178.353 156.916C177.564 156.518 176.867 155.962 176.307 155.282C171.724 150.439 169.083 138.851 169.746 126.456C170.122 119.339 172.338 110.173 174.491 101.305C176.645 92.4372 178.761 83.7432 178.836 77.8064L179.725 8.25443H182.817V9.88145H181.377L180.501 77.8064C180.413 83.9171 178.335 92.5365 176.119 101.653C173.978 110.459 171.774 119.55 171.411 126.493C170.785 138.304 173.302 149.669 177.521 154.14C177.939 154.652 178.458 155.074 179.045 155.382C179.633 155.689 180.277 155.875 180.939 155.928L180.889 157.593Z" fill="#EBEBEB"/>
<path d="M182.705 157.294C182.123 157.504 181.508 157.605 180.889 157.592H180.075L181.991 8.29169H185.897L185.008 77.8437C184.933 83.768 186.774 92.3502 188.764 101.442C190.755 110.533 192.67 119.587 192.858 126.704C193.196 139.124 190.267 150.637 185.559 155.369C184.771 156.222 183.794 156.881 182.705 157.294ZM181.741 155.879C182.752 155.595 183.663 155.036 184.37 154.264C188.702 149.905 191.519 138.602 191.193 126.791C191.005 119.811 189.04 110.645 187.124 101.814C185.158 92.6483 183.28 83.9792 183.368 77.8685L184.245 9.94355H183.619L181.741 155.879Z" fill="#EBEBEB"/>
<path d="M175.806 5.03763L175.105 59.9465L189.19 60.1203L189.904 4.90102L175.806 5.03763Z" fill="#A6A6A6"/>
<path d="M108.161 44.2227H102.214V118.792H108.161V44.2227Z" fill="#EBEBEB"/>
<path d="M121.281 115.538H89.08L87.4399 160.163H122.934L121.281 115.538ZM98.4324 154.873H95.0896V121.91H98.4324V154.873ZM106.846 154.873H103.528V121.91H106.846V154.873ZM115.259 154.873H111.929V121.91H115.259V154.873Z" fill="#EBEBEB"/>
<path d="M99.1461 5.03763L98.4325 59.9465L112.53 60.1203L113.244 4.90102L99.1461 5.03763Z" fill="#A6A6A6"/>
<path d="M30.8743 79.2844V43.5645H21.5094V152.6H66.694V79.3216L30.8743 79.2844ZM57.6045 92.1267C57.0716 92.1267 56.5507 91.9697 56.1078 91.6758C55.6648 91.3818 55.3198 90.964 55.1165 90.4754C54.9131 89.9867 54.8605 89.4492 54.9654 88.9308C55.0703 88.4125 55.3279 87.9367 55.7056 87.5638C56.0833 87.1908 56.5641 86.9375 57.0871 86.8359C57.6101 86.7342 58.1517 86.7889 58.6433 86.9929C59.135 87.1969 59.5545 87.5411 59.8488 87.9819C60.143 88.4226 60.2988 88.9401 60.2963 89.4688C60.2963 89.8189 60.2266 90.1655 60.0912 90.4888C59.9558 90.8121 59.7573 91.1056 59.5072 91.3526C59.257 91.5996 58.9602 91.7951 58.6337 91.9279C58.3072 92.0608 57.9574 92.1283 57.6045 92.1267Z" fill="#EBEBEB"/>
<path d="M20.1949 5.03763L19.4813 59.9465L33.5788 60.1203L34.2925 4.90102L20.1949 5.03763Z" fill="#A6A6A6"/>
<path d="M316.28 152.364H519.943L526.504 0.827255H309.72L316.28 152.364Z" fill="#EBEBEB"/>
<path d="M413.786 138.441H331.417L326.046 15.4829H413.786V138.441ZM332.619 137.199H412.534V16.7249H327.398L332.619 137.199Z" fill="#DBDBDB"/>
<path d="M406.349 97.7405H397.798V53.3514H406.349V97.7405ZM399.05 96.4985H405.097V54.5934H399.05V96.4985Z" fill="#DBDBDB"/>
<path d="M504.807 138.441H422.438V15.4829H510.178L504.807 138.441ZM423.69 137.199H503.642L508.901 16.7249H423.765L423.69 137.199Z" fill="#DBDBDB"/>
<path d="M438.426 97.7405H429.874V53.3514H438.426V97.7405ZM431.126 96.4985H437.174V54.5934H431.126V96.4985Z" fill="#DBDBDB"/>
<path d="M258 478.504C396.071 478.504 507.999 471.136 507.999 462.048C507.999 452.959 396.071 445.591 258 445.591C119.929 445.591 8.00073 452.959 8.00073 462.048C8.00073 471.136 119.929 478.504 258 478.504Z" fill="#EBEBEB"/>
<path d="M0.350876 403.611L64.7663 403.313L129.169 403.202L258 402.99L386.818 403.202L451.234 403.313L515.649 403.611L451.234 403.922L386.818 404.021L258 404.232L129.169 404.021L64.7663 403.91L0.350876 403.611Z" fill="#263238"/>
<path d="M214.343 189.913C206.831 186.435 185.084 187.578 175.906 196.595C166.729 205.612 163.487 222.764 166.642 225.161C169.797 227.558 185.209 229.632 196.865 226.229C208.521 222.826 218.061 191.639 214.343 189.913Z" fill="#263238"/>
<path d="M214.355 189.975C214.631 189.975 214.756 189.54 214.456 189.466C207.545 187.764 199.569 188.46 192.521 188.895C186.824 189.255 180.927 189.863 175.806 192.521C173.347 193.762 171.189 195.518 169.479 197.666C167.769 199.815 166.549 202.305 165.903 204.966C164.326 211.002 163.549 218.553 165.365 224.602C165.365 224.776 165.728 224.801 165.715 224.602C165.077 212.406 165.415 197.75 178.673 192.447C189.929 187.951 202.612 189.925 214.355 189.975Z" fill="#263238"/>
<path d="M168.457 222.453C161.308 221.807 140.325 230.961 134.365 243.418C128.406 255.876 134.816 277.598 137.908 279.747C141.001 281.895 159.192 272.705 166.229 264.57C170.949 259.142 169.909 251.367 169.985 243.878C170.11 232.836 169.571 222.553 168.457 222.453Z" fill="#263238"/>
<path d="M170.761 263.837C175.769 250.932 171.136 236.028 169.233 222.95C169.233 222.814 168.983 222.826 168.983 222.95C168.983 235.084 173.653 247.02 171.149 259.167C169.659 266.383 165.565 272.829 158.629 275.971C152.607 278.654 145.721 278.977 139.248 279.772C138.822 279.772 138.96 280.455 139.373 280.417C152.181 279.188 165.552 277.163 170.761 263.837Z" fill="#263238"/>
<path d="M166.679 223.36C167.067 223.261 166.955 222.665 166.567 222.751C155.649 225.235 142.24 229.384 134.728 238.152C126.603 247.654 129.833 260.173 132.763 271.003C132.763 271.14 133.013 271.103 132.975 271.003C130.158 260.036 127.567 246.648 136.418 237.593C144.068 229.806 156.35 225.844 166.679 223.36Z" fill="#263238"/>
<path d="M138.772 279.573C142.528 283.299 146.76 293.061 145.42 302.562C143.129 318.833 149.965 317.615 165.69 327.017C178.974 334.954 176.958 351.857 166.829 357.384C166.829 357.384 174.341 348.926 166.216 341.089C156.45 331.712 126.152 335.562 118.052 315.218C107.597 288.888 138.772 279.573 138.772 279.573Z" fill="#263238"/>
<path d="M142.641 288.615C142.516 288.354 142.979 288.13 143.117 288.404C144.445 290.954 145.294 293.723 145.621 296.576C146.046 300.302 144.995 303.866 145.157 307.58C145.583 317.019 156 319.938 163.311 322.782C173.114 326.607 179.274 335.202 176.583 345.871C176.574 345.904 176.553 345.932 176.524 345.95C176.494 345.967 176.459 345.972 176.426 345.964C176.393 345.956 176.364 345.935 176.347 345.906C176.329 345.877 176.324 345.842 176.332 345.809C177.133 342.51 177.006 339.057 175.966 335.825C174.927 332.593 173.014 329.706 170.435 327.477C165.352 323.192 158.328 322.434 152.694 319.093C148.851 316.796 145.257 313.753 144.594 309.157C144.45 306.597 144.576 304.029 144.97 301.494C145.309 297.074 144.508 292.642 142.641 288.615Z" fill="#263238"/>
<path d="M135.542 280.629C135.667 280.629 135.755 280.765 135.642 280.815C128.205 284.616 120.418 288.341 116.211 295.967C111.691 304.177 113.469 314.361 118.715 321.813C124.612 330.147 133.839 329.899 143.041 330.917C149.702 331.662 156.338 332.904 161.821 336.953C161.984 337.078 161.821 337.351 161.609 337.251C152.406 331.886 142.39 331.985 132.149 330.52C123.786 329.278 118.377 324.633 115.197 316.858C108.211 299.867 120.017 286.565 135.542 280.629Z" fill="#263238"/>
<path d="M209.861 181.368C208.283 178.102 203.2 180.61 204.79 183.852C206.38 187.094 211.451 184.622 209.861 181.368Z" fill="#AE394D"/>
<path d="M210.975 186.473C209.385 183.219 204.302 185.727 205.892 188.957C207.482 192.186 212.565 189.751 210.975 186.473Z" fill="#AE394D"/>
<path d="M212.928 191.379C211.338 188.112 206.255 190.621 207.845 193.863C209.435 197.104 214.568 194.657 212.928 191.379Z" fill="#AE394D"/>
<path d="M215.545 195.85C213.955 192.583 208.872 195.092 210.462 198.334C212.052 201.575 217.122 199.129 215.545 195.85Z" fill="#AE394D"/>
<path d="M218.913 199.911C217.323 196.645 212.252 199.153 213.83 202.395C215.407 205.637 220.503 203.177 218.913 199.911Z" fill="#AE394D"/>
<path d="M222.819 203.177C221.229 199.911 216.146 202.42 217.736 205.661C219.326 208.903 224.409 206.444 222.819 203.177Z" fill="#AE394D"/>
<path d="M236.078 247.815C258.226 273.897 276.643 307.195 286.446 315.231C291.579 319.441 365.785 325.502 374.211 327.104C387.056 329.588 367.951 390.223 359.262 387.863C353.628 386.335 269.706 379.753 253.919 362.24C241.774 348.752 222.368 290.478 217.135 264.83C211.326 236.339 227.239 237.407 236.078 247.815Z" fill="#C95F50"/>
<path d="M353.553 324.434C379.094 319.242 407.251 317.218 432.066 328.346C434.855 329.506 437.167 331.568 438.626 334.196C449.894 338.99 450.933 345.685 450.933 345.685C459.998 353.31 460.161 360.303 460.161 360.303C460.161 360.303 473.257 366.078 471.053 374.511C468.612 383.975 450.696 374.015 437.474 374.511C407.163 375.679 364.408 385.689 355.706 386.931L353.553 324.434Z" fill="#C95F50"/>
<path d="M404.847 353.596C413.774 353.435 422.538 353.037 431.44 354.08C441.205 355.211 450.42 357.931 459.86 360.464C459.919 360.48 459.981 360.474 460.035 360.445C460.089 360.417 460.13 360.369 460.149 360.312C460.168 360.254 460.165 360.192 460.139 360.137C460.113 360.082 460.067 360.039 460.01 360.017C443.659 352.752 422.45 350.454 404.835 353.199C404.409 353.261 404.396 353.609 404.847 353.596Z" fill="#263238"/>
<path d="M401.479 335.55C410.181 335.873 425.455 336.531 450.833 345.945C450.908 345.945 450.996 345.846 450.908 345.809C435.246 337.512 419.083 334.32 401.504 335.14C400.954 335.165 400.904 335.537 401.479 335.55Z" fill="#263238"/>
<path d="M399.864 325.825C414.625 326.918 423.79 329.464 438.551 334.246C438.639 334.246 438.714 334.134 438.614 334.097C422.413 326.918 415.715 326.136 399.802 325.316C399.276 325.291 399.288 325.775 399.864 325.825Z" fill="#263238"/>
<path d="M397.248 373.679C393.492 375.567 394.418 377.554 401.818 379.057C409.217 380.56 439.778 380.299 438.977 390.881C438.176 401.463 395.032 401.239 382.912 397.799C370.793 394.359 352.389 384.572 352.389 384.572C360.79 382.945 380.796 377.07 397.248 373.679Z" fill="#C95F50"/>
<path d="M346.141 319.23L335.975 390.322C335.975 390.322 259.753 377.902 247.22 363.805C234.688 349.709 221.692 293.359 215.432 265.004C209.172 236.649 225.022 227.633 242.726 251.131C260.429 274.63 280.661 310.486 285.294 312.573C289.926 314.659 346.141 319.23 346.141 319.23Z" fill="#EBEBEB"/>
<path d="M355.068 318.472C354.892 318.075 333.245 314.486 333.245 314.486C333.245 314.486 313.964 348.777 314.015 352.876C314.065 356.974 313.789 388.111 314.115 388.496C314.44 388.881 340.469 395.476 340.995 394.706C341.521 393.936 343.061 360.427 343.136 357.856C343.211 355.285 355.068 318.472 355.068 318.472Z" fill="#AE394D"/>
<path d="M315.955 386.571C292.455 381.852 255.596 373.17 247.22 363.756C234.7 349.696 221.705 293.359 215.457 265.004C212.277 250.547 214.831 241.121 220.465 238.475C233.786 258.67 288.248 341.288 315.955 386.571Z" fill="#C7C7C7"/>
<path d="M246.732 403.611L244.291 359.16C244.291 359.16 267.916 336.543 264.536 314.448C262.833 303.27 245.142 255.789 231.771 238.686C219.251 222.652 192.571 228.241 181.34 234.737C138.121 259.738 90.8457 321.006 62.513 403.649L246.732 403.611Z" fill="#EBEBEB"/>
<path d="M190.317 235.171C190.606 238.307 191.348 241.386 192.52 244.313C193.654 247.238 195.12 250.025 196.89 252.622C200.456 257.768 204.951 262.214 210.149 265.737C215.365 269.223 221.012 272.028 226.95 274.083L229.192 274.841L230.306 275.214H230.368C230.368 275.214 230.368 275.214 230.719 275.375C230.862 275.476 230.985 275.602 231.082 275.748C231.163 275.857 231.234 275.974 231.295 276.095L231.608 276.667C232.347 278.145 232.96 279.598 233.561 281.088C234.813 284.044 235.84 287.025 236.854 290.043C238.886 296.08 240.558 302.23 241.862 308.462C243.201 314.713 243.947 321.075 244.09 327.464C244.314 333.955 243.312 340.429 241.136 346.554C239.985 349.641 238.318 352.513 236.203 355.049C234.062 357.601 231.437 359.71 228.478 361.259L229.054 360.44C228.503 364.054 227.952 367.668 227.339 371.27L225.548 382.088C224.972 385.689 224.296 389.291 223.683 392.893C223.069 396.495 222.431 400.084 221.692 403.674C222.03 400.035 222.443 396.408 222.844 392.769C223.245 389.13 223.645 385.503 224.096 381.876L225.436 370.997C225.861 367.37 226.349 363.756 226.863 360.141L226.938 359.595L227.439 359.322C230.127 357.907 232.509 355.983 234.45 353.658C236.38 351.3 237.899 348.639 238.945 345.784C240.95 339.933 241.842 333.763 241.574 327.589C241.286 315.169 238.506 302.749 234.675 290.838C233.715 287.849 232.66 284.897 231.508 281.982C230.932 280.529 230.318 279.076 229.655 277.722L229.404 277.238L229.304 277.077C229.304 277.077 229.229 277.077 229.479 277.238C229.73 277.399 229.705 277.325 229.692 277.337H229.617L228.478 276.94L226.212 276.145C220.149 273.886 214.418 270.833 209.172 267.066C203.914 263.327 199.448 258.601 196.026 253.156C194.344 250.423 192.987 247.505 191.982 244.462C190.947 241.469 190.386 238.335 190.317 235.171Z" fill="#263238"/>
<path d="M189.491 277.089C186.761 287.696 183.894 298.265 181.015 308.822L172.251 340.468L163.174 372.04L158.541 387.788L153.771 403.512L157.94 387.627L162.247 371.779L171.011 340.133L180.088 308.574C183.168 298.116 186.261 287.559 189.491 277.089Z" fill="#263238"/>
<path d="M197.103 294.39C197.103 295.147 196.877 295.886 196.453 296.515C196.029 297.144 195.427 297.635 194.722 297.924C194.018 298.214 193.242 298.289 192.494 298.142C191.746 297.994 191.059 297.63 190.52 297.095C189.981 296.56 189.613 295.878 189.465 295.136C189.316 294.394 189.392 293.625 189.684 292.926C189.976 292.227 190.47 291.63 191.104 291.209C191.738 290.789 192.484 290.565 193.247 290.565C194.269 290.565 195.25 290.968 195.973 291.685C196.696 292.402 197.103 293.375 197.103 294.39Z" fill="#263238"/>
<path d="M233.937 296.352C233.937 297.109 233.711 297.849 233.287 298.478C232.863 299.107 232.261 299.597 231.556 299.887C230.852 300.176 230.076 300.252 229.328 300.104C228.58 299.957 227.893 299.592 227.354 299.057C226.815 298.522 226.447 297.841 226.299 297.099C226.15 296.357 226.226 295.587 226.518 294.888C226.81 294.189 227.304 293.592 227.938 293.172C228.572 292.751 229.318 292.527 230.081 292.527C231.103 292.527 232.084 292.93 232.807 293.647C233.531 294.365 233.937 295.338 233.937 296.352Z" fill="#263238"/>
<path d="M185.635 327.899C187.764 327.899 189.491 326.186 189.491 324.074C189.491 321.961 187.764 320.248 185.635 320.248C183.505 320.248 181.779 321.961 181.779 324.074C181.779 326.186 183.505 327.899 185.635 327.899Z" fill="#263238"/>
<path d="M181.265 354.329C181.265 355.086 181.039 355.825 180.615 356.454C180.191 357.083 179.589 357.574 178.885 357.863C178.18 358.153 177.405 358.228 176.657 358.081C175.909 357.933 175.222 357.569 174.682 357.034C174.143 356.499 173.776 355.817 173.627 355.075C173.478 354.333 173.554 353.564 173.846 352.865C174.138 352.166 174.632 351.569 175.267 351.148C175.901 350.728 176.646 350.504 177.409 350.504C178.432 350.504 179.412 350.907 180.136 351.624C180.859 352.341 181.265 353.314 181.265 354.329Z" fill="#263238"/>
<path d="M168.945 392.992C171.075 392.992 172.802 391.28 172.802 389.167C172.802 387.054 171.075 385.342 168.945 385.342C166.816 385.342 165.089 387.054 165.089 389.167C165.089 391.28 166.816 392.992 168.945 392.992Z" fill="#263238"/>
<path d="M227.802 329.924C229.932 329.924 231.658 328.211 231.658 326.098C231.658 323.986 229.932 322.273 227.802 322.273C225.672 322.273 223.946 323.986 223.946 326.098C223.946 328.211 225.672 329.924 227.802 329.924Z" fill="#263238"/>
<path d="M215.32 394.855C217.449 394.855 219.176 393.143 219.176 391.03C219.176 388.917 217.449 387.205 215.32 387.205C213.19 387.205 211.463 388.917 211.463 391.03C211.463 393.143 213.19 394.855 215.32 394.855Z" fill="#263238"/>
<path d="M220.09 361.98C222.219 361.98 223.946 360.267 223.946 358.154C223.946 356.042 222.219 354.329 220.09 354.329C217.96 354.329 216.234 356.042 216.234 358.154C216.234 360.267 217.96 361.98 220.09 361.98Z" fill="#263238"/>
<path d="M263.822 311.666C262.206 305.782 260.039 300.06 257.349 294.576C256.949 293.682 256.535 292.8 256.097 291.918C256.063 290.402 255.857 288.894 255.484 287.422C255.099 285.791 254.562 284.199 253.881 282.666C253.881 282.579 253.693 282.666 253.718 282.666C254.182 284.23 254.607 285.82 254.97 287.422C255.183 288.453 255.333 289.472 255.496 290.503C254.632 288.602 253.781 286.702 252.892 284.802C252.116 283.162 251.352 281.535 250.588 279.896C249.825 278.256 248.986 276.53 248.235 274.841C248.235 274.766 248.059 274.841 248.097 274.841C249.349 277.747 250.426 280.703 251.577 283.634C252.729 286.565 253.856 289.41 255.033 292.328C257.496 297.818 259.656 303.436 261.506 309.157C263.135 314.785 263.332 320.724 262.082 326.446C260.761 332.03 258.6 337.385 255.672 342.331C254.031 345.213 252.128 347.933 250.288 350.715C248.447 353.497 246.419 356.117 244.679 358.924C244.671 358.947 244.671 358.971 244.679 358.994C244.686 359.017 244.701 359.037 244.72 359.051C244.74 359.065 244.764 359.072 244.788 359.071C244.812 359.071 244.835 359.063 244.854 359.049C246.995 356.9 248.873 354.528 250.826 352.23C252.737 349.928 254.518 347.523 256.16 345.026C259.527 340.128 262.065 334.716 263.672 329.005C265.167 323.326 265.219 317.369 263.822 311.666Z" fill="#263238"/>
<path d="M172.363 234.774C141.84 245.952 42.4558 298.961 37.911 326.098C34.5306 346.268 53.5986 359.272 74.6197 357.62C92.9114 356.18 159.405 285.137 177.81 265.091C195.4 245.952 202.349 223.882 172.363 234.774Z" fill="#C95F50"/>
<path d="M172.363 234.774C141.84 245.952 42.4558 298.961 37.911 326.098C34.5306 346.268 53.5986 359.272 74.6197 357.62C92.9114 356.18 159.405 285.137 177.81 265.091C195.4 245.952 202.349 223.882 172.363 234.774Z" fill="#EBEBEB"/>
<path d="M173.465 270.991C173.578 270.842 173.39 270.643 173.252 270.792C168.557 275.835 163.812 280.84 158.98 285.758C154.147 290.676 149.389 295.694 144.531 300.6C134.866 310.387 124.917 319.88 114.684 329.079C111.817 331.662 108.912 334.184 106.02 336.73C103.128 339.276 100.073 341.772 97.2559 344.418C97.1683 344.492 97.2559 344.629 97.3811 344.567C100.223 342.604 102.94 340.419 105.657 338.27C108.374 336.121 111.003 333.985 113.632 331.774C118.89 327.353 124.099 322.881 129.169 318.249C134.24 313.616 139.348 308.772 144.294 303.879C148.312 299.917 152.269 295.88 156.087 291.72C156.789 291.211 157.49 290.714 158.178 290.192C159.568 289.124 160.945 288.031 162.335 286.938C165.039 284.814 167.581 282.492 170.235 280.306C170.398 280.169 170.16 279.883 169.997 280.008C167.28 282.132 164.476 284.131 161.809 286.305L158.479 289.062C163.649 283.212 168.645 277.126 173.465 270.991Z" fill="#263238"/>
<path d="M231.445 241.543C231.445 241.543 224.522 264.545 220.24 263.477C207.056 260.185 199.056 237.78 199.256 234.762C199.256 233.992 206.581 216.79 212.277 203.426C215.933 194.831 218.938 187.839 218.938 187.839L244.954 217.796L232.347 239.953L231.445 241.543Z" fill="#C95F50"/>
<path d="M244.954 217.796L232.347 239.953C226.61 235.601 221.861 230.099 218.409 223.806C214.958 217.512 212.881 210.568 212.315 203.426C215.97 194.831 218.975 187.839 218.975 187.839L222.318 191.441L244.954 217.796Z" fill="#263238"/>
<path d="M290.077 199.253C273.024 240.574 246.144 235.109 237.167 231.445C229.016 228.129 201.685 215.796 214.343 172.935C227.001 130.073 251.765 124.882 270.821 131.502C289.876 138.122 307.141 157.919 290.077 199.253Z" fill="#C95F50"/>
<path d="M284.993 189.838C284.123 189.252 283.287 188.618 282.489 187.938C281.537 187.381 280.794 186.53 280.373 185.516C280.305 185.171 280.354 184.813 280.512 184.498C280.671 184.184 280.93 183.93 281.25 183.777C281.924 183.568 282.643 183.541 283.331 183.698C284.02 183.855 284.654 184.191 285.169 184.672C286.359 185.489 287.202 186.715 287.535 188.112C287.586 188.428 287.546 188.752 287.419 189.047C287.291 189.341 287.082 189.594 286.816 189.775C286.549 189.956 286.237 190.058 285.914 190.069C285.591 190.08 285.272 190 284.993 189.838Z" fill="#263238"/>
<path d="M256.435 180.387C257.266 180.998 258.131 181.562 259.027 182.076C259.858 182.808 260.91 183.245 262.019 183.318C262.369 183.274 262.694 183.116 262.943 182.868C263.193 182.621 263.352 182.299 263.396 181.952C263.385 181.249 263.186 180.563 262.818 179.962C262.451 179.362 261.929 178.87 261.305 178.536C260.144 177.678 258.704 177.275 257.262 177.406C256.935 177.454 256.629 177.595 256.382 177.812C256.134 178.029 255.956 178.313 255.869 178.629C255.781 178.945 255.788 179.279 255.888 179.591C255.989 179.904 256.179 180.18 256.435 180.387Z" fill="#263238"/>
<path d="M259.165 190.161C259.165 190.05 258.889 190.161 258.839 190.31C257.587 193.105 255.784 196.111 252.842 195.862C252.754 195.862 252.692 195.999 252.842 196.036C256.06 197.017 258.476 193.006 259.165 190.161Z" fill="#263238"/>
<path d="M258 186.137C253.693 183.74 249.174 192.471 253.167 194.695C257.161 196.918 261.656 188.149 258 186.137Z" fill="#263238"/>
<path d="M256.072 185.727C255.045 185.827 253.843 186.311 252.867 185.939C251.89 185.566 251.402 184.162 251.164 182.933C251.164 182.796 251.014 182.834 250.951 182.933C250.062 184.585 249.825 186.659 251.502 187.802C253.18 188.944 254.983 188 256.285 186.56C256.523 186.336 256.485 185.678 256.072 185.727Z" fill="#263238"/>
<path d="M274.702 197.216C274.777 197.129 274.839 197.452 274.789 197.564C273.274 200.209 271.997 203.5 273.988 205.662C274.051 205.736 273.988 205.86 273.888 205.811C271.108 203.836 272.849 199.489 274.702 197.216Z" fill="#263238"/>
<path d="M278.608 195.663C283.153 197.601 278.909 206.469 274.702 204.668C270.495 202.867 274.802 194.036 278.608 195.663Z" fill="#263238"/>
<path d="M280.198 197.117C280.674 197.924 280.962 199.104 281.788 199.601C282.614 200.097 283.917 199.501 284.981 198.88C285.093 198.806 285.118 198.88 285.068 199.042C284.305 200.756 282.902 202.258 281.1 201.811C279.297 201.364 279.059 199.427 279.459 197.551C279.535 197.166 279.998 196.794 280.198 197.117Z" fill="#263238"/>
<path d="M247.583 211.176C247.859 212.157 248.009 213.362 248.923 213.995C249.927 214.529 251.031 214.855 252.166 214.952C252.192 214.952 252.218 214.962 252.237 214.981C252.255 214.999 252.266 215.025 252.266 215.051C252.266 215.077 252.255 215.103 252.237 215.121C252.218 215.14 252.192 215.15 252.166 215.15C251.488 215.455 250.74 215.571 250.001 215.486C249.262 215.401 248.56 215.117 247.972 214.666C247.508 214.221 247.189 213.648 247.055 213.022C246.921 212.396 246.979 211.745 247.22 211.151C247.308 210.977 247.546 211.039 247.583 211.176Z" fill="#263238"/>
<path d="M263.997 207.015C263.997 207.015 262.52 211.362 261.556 213.225C261.468 213.399 260.955 213.225 260.304 212.964C260.304 212.964 260.304 212.964 260.229 212.964C258.419 212.445 256.789 211.441 255.517 210.063C254.245 208.685 253.38 206.986 253.017 205.152C253.012 205.1 253.024 205.048 253.054 205.004C253.083 204.96 253.127 204.928 253.178 204.913C253.228 204.899 253.283 204.902 253.331 204.923C253.38 204.944 253.419 204.981 253.443 205.028C255.059 207.923 257.582 210.217 260.629 211.561C261.03 211.101 262.908 204.035 263.221 204.109C264.656 204.983 265.965 206.044 267.115 207.264C270.458 198.296 272.323 188.882 275.779 180.014C275.806 179.951 275.855 179.899 275.917 179.868C275.979 179.836 276.05 179.827 276.118 179.842C276.186 179.857 276.247 179.894 276.29 179.948C276.333 180.002 276.356 180.069 276.355 180.138C275.103 190.149 271.484 200.544 268.279 209.884C267.853 211.176 264.598 207.723 263.997 207.015Z" fill="#263238"/>
<path d="M259.753 211.66C258.057 212.644 256.134 213.179 254.169 213.213C253.1 213.195 252.063 212.848 251.202 212.219C249.324 210.828 250.05 208.903 251.102 207.425C251.672 206.644 252.331 205.931 253.067 205.301C254.553 208.076 256.896 210.304 259.753 211.66Z" fill="#263238"/>
<path d="M254.169 213.213C253.1 213.195 252.063 212.847 251.202 212.219C249.324 210.828 250.05 208.903 251.102 207.425C253.255 208.555 254.858 210.965 254.169 213.213Z" fill="#FF9CBD"/>
<path d="M283.291 147.151C283.291 147.151 281.901 154.019 277.606 157.397C268.842 164.328 258.977 156.603 253.455 158.354C248.272 160.006 246.081 167.545 241.236 169.358C234.525 171.842 229.404 167.135 227.138 169.917C224.872 172.699 217.861 181.629 213.216 180.933C208.571 180.238 222.806 105.097 274.301 132.682C274.301 132.682 282.952 133.265 291.378 144.269C300.681 156.429 296.111 179.17 296.111 179.17C296.111 179.17 295.986 178.76 294.959 176.325C293.519 172.873 293.557 170.339 292.455 168.004C290.652 164.278 288.624 164.415 286.671 160.738C283.654 155.149 283.291 147.151 283.291 147.151Z" fill="#263238"/>
<path d="M283.916 143.872C283.452 146.851 282.645 149.768 281.513 152.566C280.556 155.366 278.851 157.856 276.58 159.77C274.105 161.321 271.147 161.93 268.254 161.484C265.299 161.186 262.42 160.105 259.214 159.869C257.553 159.732 255.886 160.05 254.394 160.788C253.012 161.625 251.815 162.732 250.876 164.042C248.998 166.439 247.12 168.799 244.403 169.83C243.038 170.367 241.571 170.601 240.105 170.518C238.639 170.434 237.209 170.034 235.915 169.345C233.261 168.103 230.706 165.905 227.551 165.806C230.681 166.166 232.922 168.414 235.589 169.966C236.965 170.771 238.501 171.268 240.091 171.423C241.68 171.577 243.284 171.385 244.791 170.861C247.946 169.855 250.025 167.135 251.89 164.862C252.743 163.707 253.815 162.728 255.045 161.98C256.321 161.398 257.729 161.162 259.127 161.297C262.031 161.459 264.974 162.539 268.116 162.788C269.7 162.955 271.301 162.88 272.861 162.564C274.469 162.311 275.984 161.647 277.256 160.639C279.595 158.526 281.302 155.814 282.189 152.802C283.109 149.901 283.689 146.905 283.916 143.872Z" fill="#263238"/>
<path d="M283.754 146.741C283.038 149.486 282.701 152.315 282.752 155.149C282.716 158.096 283.561 160.988 285.181 163.458C286.058 164.601 287.043 165.657 288.123 166.613C289.054 167.505 289.717 168.636 290.039 169.88C290.148 171.297 290.404 172.7 290.803 174.065C291.312 175.41 292.126 176.621 293.181 177.605C292.377 176.483 291.799 175.218 291.479 173.879C291.235 172.514 291.122 171.129 291.141 169.743C290.907 168.223 290.198 166.815 289.112 165.719C288.11 164.782 287.192 163.76 286.37 162.663C284.897 160.397 284.034 157.792 283.866 155.1C283.64 152.319 283.602 149.527 283.754 146.741Z" fill="#263238"/>
<path d="M219.651 178.797C219.651 178.797 217.348 161.943 210.073 162.142C202.799 162.341 200.057 183.666 205.429 189.466C206.066 190.265 206.859 190.928 207.762 191.415C208.665 191.901 209.657 192.201 210.68 192.296C211.703 192.392 212.735 192.28 213.713 191.969C214.691 191.657 215.595 191.152 216.371 190.484L219.651 178.797Z" fill="#C95F50"/>
<path d="M209.435 168.277C209.335 168.215 209.235 168.352 209.31 168.439C213.003 172.686 213.241 178.238 212.653 183.566C212.152 181.082 210.75 179.244 207.582 179.704C207.419 179.704 207.432 179.977 207.582 180.014C208.529 180.171 209.404 180.612 210.089 181.279C210.774 181.945 211.236 182.805 211.413 183.74C211.685 185.327 211.781 186.939 211.701 188.547C211.701 189.068 212.578 189.23 212.665 188.671C212.665 188.671 212.665 188.584 212.665 188.547C215.858 182.747 215.52 172.128 209.435 168.277Z" fill="#263238"/>
<path d="M210.099 189.677C209.95 189.95 209.724 190.173 209.447 190.319C209.171 190.464 208.857 190.524 208.546 190.492C208.235 190.46 207.941 190.336 207.7 190.138C207.46 189.939 207.284 189.674 207.196 189.377C207.108 189.079 207.111 188.762 207.205 188.466C207.298 188.17 207.479 187.909 207.723 187.714C207.967 187.52 208.263 187.403 208.575 187.376C208.886 187.35 209.199 187.415 209.473 187.566C209.654 187.663 209.814 187.795 209.944 187.954C210.073 188.113 210.17 188.296 210.228 188.492C210.286 188.688 210.305 188.894 210.283 189.097C210.26 189.301 210.198 189.498 210.099 189.677Z" fill="white"/>
<path d="M207.545 185.206C207.415 185.433 207.201 185.601 206.948 185.673C206.695 185.745 206.424 185.716 206.192 185.591C206.022 185.496 205.884 185.353 205.795 185.181C205.707 185.009 205.672 184.814 205.694 184.622C205.717 184.429 205.796 184.248 205.922 184.1C206.049 183.953 206.216 183.846 206.404 183.792C206.591 183.739 206.791 183.742 206.977 183.8C207.162 183.859 207.327 183.971 207.449 184.122C207.571 184.273 207.645 184.457 207.662 184.65C207.679 184.842 207.638 185.036 207.545 185.206Z" fill="white"/>
<path d="M212.791 153.038C212.415 152.529 200.821 130.819 199.081 128.744C197.341 126.67 181.303 126.26 179.487 119.032C177.672 111.804 179.099 98.0671 188.251 93.3102C197.403 88.5533 206.844 87.6591 207.582 86.8394C208.321 86.0197 208.233 65.4025 221.429 60.5587C234.625 55.7149 248.973 75.3385 249.9 75.4627C250.826 75.5869 257.499 64.9553 266.564 65.713C275.628 66.4706 282.076 81.6354 284.38 81.859C286.684 82.0825 294.646 78.8782 302.847 87.1996C311.048 95.521 303.611 113.505 300.719 115.418C297.826 117.33 296.449 140.991 296.449 140.991L212.791 153.038Z" fill="#EBEBEB"/>
<path d="M222.193 145.064C221.39 144.141 220.755 143.086 220.315 141.947C219.777 140.817 219.226 139.699 218.637 138.594C217.44 136.384 216.071 134.271 214.543 132.272C213.366 130.67 211.927 128.893 209.911 128.347C209.192 128.201 208.451 128.198 207.731 128.339C207.011 128.48 206.326 128.761 205.717 129.167C205.383 129.562 205.073 129.977 204.79 130.409C204.69 130.521 204.903 130.682 204.978 130.545C205.275 129.974 205.774 129.532 206.38 129.303C206.875 129.138 207.388 129.034 207.908 128.993C209.014 128.949 210.097 129.312 210.95 130.011C212.52 131.435 213.833 133.115 214.831 134.979C216.008 136.793 217.193 138.606 218.387 140.419C219.451 142.071 220.315 144.22 221.98 145.387C222.118 145.35 222.318 145.201 222.193 145.064Z" fill="#C7C7C7"/>
<path d="M227.214 145.35C224.91 140.755 222.594 136.147 220.252 131.564C217.707 126.999 215.695 122.161 214.255 117.144C214.255 116.995 213.992 117.032 214.03 117.144C215.051 122.276 216.655 127.276 218.813 132.048C221.169 136.748 223.898 141.254 226.976 145.524C226.999 145.555 227.034 145.576 227.073 145.582C227.111 145.588 227.151 145.578 227.182 145.555C227.214 145.532 227.235 145.497 227.241 145.459C227.247 145.42 227.237 145.381 227.214 145.35Z" fill="#C7C7C7"/>
<path d="M240.572 139.14C239.245 134.942 237.48 130.856 235.765 126.794C234.268 123.213 232.302 119.843 229.918 116.772C229.83 116.66 229.655 116.772 229.742 116.921C231.958 120.199 233.098 124.037 234.588 127.676C236.203 131.651 237.818 135.675 239.809 139.488C239.865 139.571 239.949 139.632 240.046 139.659C240.144 139.686 240.248 139.678 240.339 139.636C240.431 139.594 240.505 139.521 240.548 139.43C240.59 139.34 240.599 139.237 240.572 139.14Z" fill="#C7C7C7"/>
<path d="M264.385 104.699C263.898 104.244 263.317 103.902 262.681 103.695C262.045 103.489 261.371 103.425 260.708 103.507C260.044 103.588 259.407 103.815 258.841 104.169C258.276 104.523 257.796 104.997 257.437 105.556C255.584 108.351 255.596 112.288 255.596 115.492C255.581 118.991 256.001 122.479 256.848 125.875C257.836 129.709 259.33 133.397 261.293 136.842C261.309 136.867 261.334 136.884 261.362 136.892C261.39 136.9 261.421 136.898 261.448 136.886C261.474 136.875 261.496 136.854 261.509 136.827C261.522 136.801 261.525 136.771 261.518 136.743C259.121 131.011 257.781 124.899 257.562 118.697C257.411 115.648 257.55 112.591 257.975 109.568C258.326 107.084 260.291 103.097 263.509 104.761C266.526 106.314 266.789 110.512 268.517 113.095C268.517 113.095 268.655 113.095 268.604 113.021C266.939 110.338 266.864 106.947 264.385 104.699Z" fill="#C7C7C7"/>
<path d="M294.684 107.394C290.832 110.868 288.263 115.52 287.385 120.609C286.841 123.421 286.59 126.28 286.633 129.142C286.517 132.1 286.698 135.062 287.172 137.985C287.18 138.01 287.196 138.031 287.217 138.047C287.239 138.062 287.264 138.07 287.291 138.07C287.317 138.07 287.343 138.062 287.364 138.047C287.385 138.031 287.401 138.01 287.41 137.985C287.748 135.228 287.41 132.396 287.748 129.639C287.988 126.851 288.445 124.086 289.112 121.367C289.734 118.981 290.533 116.643 291.504 114.375C292.484 112.072 293.705 109.879 295.147 107.829C295.347 107.544 294.972 107.146 294.684 107.394Z" fill="#C7C7C7"/>
<path d="M279.622 124.236C279.377 119.797 278.817 115.381 277.944 111.021C277.929 110.932 277.88 110.853 277.806 110.8C277.732 110.748 277.64 110.727 277.55 110.742C277.46 110.757 277.38 110.806 277.327 110.879C277.275 110.953 277.253 111.044 277.268 111.133C277.719 115.505 277.907 119.914 278.082 124.298C278.257 128.682 278.157 132.992 278.62 137.352C278.629 137.376 278.645 137.398 278.666 137.413C278.687 137.429 278.713 137.437 278.739 137.437C278.766 137.437 278.791 137.429 278.813 137.413C278.834 137.398 278.85 137.376 278.858 137.352C279.688 133.031 279.945 128.622 279.622 124.236Z" fill="#C7C7C7"/>
<path d="M215.007 163.707C215.933 160.788 248.598 137.053 295.648 153.299C297.05 153.783 299.955 134.284 297.676 132.284C295.398 130.285 232.059 116.138 207.82 147.598C206.18 149.734 215.007 163.707 215.007 163.707Z" fill="#AE394D"/>
<path d="M203.288 224.689C203.288 221.733 188.264 232.923 188.063 234.911C187.863 236.898 195.4 268.594 220.941 272.63C224.296 273.152 233.549 254.311 233.962 250.97C234.375 247.629 231.458 241.543 231.458 241.543C231.458 241.543 223.458 257.689 220.928 257.838C218.399 257.987 202.912 242.797 203.288 224.689Z" fill="#AE394D"/>
<path d="M43.5326 344.852C28.3584 325.974 51.4077 308.698 68.3973 309.406C108.261 311.082 176.996 325.13 208.033 343.387C218.049 349.262 215.67 414.119 203.325 412.877C181.403 410.678 74.3193 383.168 43.5326 344.852Z" fill="#C95F50"/>
<path d="M181.916 342.642C186.924 341.325 216.546 326.955 226.274 325.9C236.002 324.844 269.857 333.55 277.256 337.525C284.655 341.499 304.8 364.849 306.465 372.127C307.717 377.964 296.048 382.311 282.677 371.928C270.157 362.228 267.653 359.297 263.384 357.421C259.114 355.546 241.737 357.285 239.082 363.507C237.517 367.233 241.586 377.828 248.197 380.659C254.808 383.491 262.307 380.013 271.985 381.405C281.663 382.796 289.225 389.925 287.973 393.353C285.895 399.028 281.6 396.892 267.941 400.084C259.177 402.146 247.821 407.66 231.633 412.268C214.456 417.174 188.815 409.946 188.815 409.946L181.916 342.642Z" fill="#C95F50"/>
<path d="M293.682 394.061C293.682 394.061 293.482 386.422 289.526 383.044C286.19 379.991 281.793 378.336 277.256 378.424C272.461 378.312 265.374 379.219 264.298 377.939C265.525 379.451 266.536 381.122 267.303 382.907C268.246 385.299 269.42 387.595 270.808 389.763C275.641 396.172 282.076 397.327 285.043 396.88C288.011 396.433 292.718 393.899 293.682 394.061Z" fill="#455A64"/>
<path d="M229.204 324.124C241.136 323.378 265.512 325.924 280.161 335.302C290.064 341.648 297.463 382.796 290.965 386.149C284.467 389.502 280.636 384.323 275.941 375.977C274.213 372.934 268.692 354.254 263.709 354.006C256.548 353.633 237.793 360.142 237.793 360.142L229.204 324.124Z" fill="#C95F50"/>
<path d="M292.63 383.814C296.136 375.53 293.419 364.873 290.039 354.764C290.039 354.602 289.738 354.664 289.788 354.826C290.64 357.409 294.271 375.257 292.468 383.802C292.443 383.814 292.605 383.814 292.63 383.814Z" fill="#263238"/>
<path d="M229.204 324.124C241.136 323.378 265.512 325.924 280.161 335.302C290.064 341.648 288.637 379.479 282.139 382.82C275.641 386.161 269.694 379.094 266.526 368.724C265.5 365.383 265.274 351.882 260.266 351.621C253.105 351.249 235.439 350.479 235.439 350.479L229.204 324.124Z" fill="#C95F50"/>
<path d="M269.957 376.809C267.866 373.369 267.202 368.438 266.764 364.501C266.388 361.061 266.326 357.161 264.485 354.105C263.725 352.729 262.534 351.635 261.093 350.988C259.51 350.498 257.854 350.284 256.197 350.355C254.307 350.292 252.441 350.355 250.526 350.355C248.61 350.355 248.022 350.466 246.069 350.566C245.28 350.566 245.392 351.137 246.256 351.112C249.4 351.039 252.544 351.259 255.646 351.77C257.307 351.858 258.944 352.193 260.504 352.764C261.249 353.146 261.908 353.673 262.444 354.313C262.98 354.953 263.38 355.693 263.622 356.49C264.786 359.769 264.736 363.408 265.6 366.774C266.464 370.14 267.503 374.313 269.769 376.983C269.844 377.12 270.044 376.946 269.957 376.809Z" fill="#263238"/>
<path d="M287.122 377.157C288.637 373.232 288.799 368.637 288.762 364.476C288.689 360.07 288.271 355.677 287.51 351.336C287.134 349.1 286.696 346.877 286.195 344.666C285.906 342.497 285.237 340.396 284.217 338.456C280.924 333.488 273.825 331.638 271.321 330.632C271.171 330.632 271.046 330.793 271.196 330.855C273.237 331.712 279.96 334.395 282.064 337.388C283.279 339.3 284.073 341.447 284.392 343.685C284.78 345.61 285.169 347.535 285.519 349.46C286.909 357.322 287.81 365.805 286.27 373.704C285.419 378.088 283.228 382.398 278.52 383.479C278.358 383.479 278.408 383.752 278.52 383.752C282.489 383.926 285.807 380.572 287.122 377.157Z" fill="#263238"/>
<path d="M216.571 328.309C221.705 326.819 238.97 316.46 246.018 315.193C253.067 313.927 280.323 312.598 285.156 319.168C291.228 327.415 270.432 331.973 261.218 333.153C252.003 334.333 243.089 343.635 243.089 343.635L216.571 328.309Z" fill="#C95F50"/>
<path d="M275.528 330.172C272.45 330.431 269.387 330.846 266.351 331.414C263.428 331.762 260.536 332.331 257.7 333.116C254.933 334.022 247.859 339.003 246.87 340.034C242.313 344.778 233.411 355.459 223.533 364.526C219.755 367.908 215.581 370.827 211.1 373.22C209.974 373.816 209.385 374.611 211.1 373.89C227.614 367.059 244.842 344.467 248.21 341.288C251.294 338.578 254.788 336.365 258.564 334.73C264.123 332.892 270.007 332.246 275.591 330.445C275.866 330.483 275.754 330.147 275.528 330.172Z" fill="#263238"/>
<path d="M177.359 324.807L162.21 366.351L157.427 406.307C157.427 406.307 32.7027 365.408 38.487 330.718C40.4276 319.019 52.9225 304.152 79.5025 305.195C106.082 306.239 177.359 324.807 177.359 324.807Z" fill="#EBEBEB"/>
<path d="M177.634 325.837C174.942 324.869 172.313 323.788 169.596 322.881C166.879 321.975 164.288 321.13 161.609 320.311C156.237 318.671 150.754 317.243 145.333 315.914C134.515 313.298 123.571 311.226 112.543 309.704C108.574 308.114 104.442 306.897 100.411 305.493C100.286 305.493 100.248 305.63 100.411 305.68C103.704 306.922 106.971 308.238 110.289 309.406C107.785 309.07 105.181 308.735 102.614 308.449C99.5093 308.102 96.3543 307.99 93.2869 307.704C93.1742 307.704 93.1492 307.891 93.2869 307.903C96.0413 308.251 98.7832 308.785 101.525 309.244C104.267 309.704 107.134 310.114 109.926 310.586C115.485 311.53 121.019 312.548 126.54 313.678C137.52 315.939 148.488 318.423 159.305 321.416C162.322 322.248 165.365 323.018 168.394 323.9C171.424 324.782 174.567 325.49 177.622 326.384C177.872 326.483 177.96 325.962 177.634 325.837Z" fill="#263238"/>
<path d="M154.309 405.015C149.126 403.09 144.005 400.966 138.847 398.991C133.689 397.017 128.443 394.942 123.31 392.781C112.993 388.422 102.852 383.677 92.6859 379.008C86.789 376.3 80.7794 373.828 74.895 371.121C74.7448 371.121 74.607 371.282 74.7698 371.357C77.3489 372.599 79.903 374.027 82.4571 375.381C85.0112 376.735 87.5402 377.939 90.0567 379.256C95.0647 381.889 100.261 384.361 105.394 386.845C115.465 391.738 125.782 396.116 136.306 399.96C142.19 402.096 148.175 403.823 154.209 405.475C154.472 405.487 154.547 405.102 154.309 405.015Z" fill="#263238"/>
<path d="M180.201 324.782C180.051 324.335 157.665 318.385 157.665 318.385C157.665 318.385 134.728 355.323 134.453 359.943C134.177 364.563 131.335 399.687 131.648 400.072C131.961 400.457 158.604 410.256 159.192 409.499C159.781 408.741 164.2 371.059 164.451 368.165C164.701 365.271 180.201 324.782 180.201 324.782Z" fill="#AE394D"/>
<path d="M350.874 454.72C350.41 455.03 342.022 460.383 337.164 462.172C330.09 464.768 299.717 466.345 290.928 466.345C282.139 466.345 251.753 464.768 244.679 462.172C239.821 460.371 231.433 455.018 230.907 454.72C231.583 454.856 253.443 459.315 290.865 459.315C328.288 459.315 350.197 454.856 350.874 454.72Z" fill="#C7C7C7"/>
<path d="M290.928 461.985C344.661 461.985 388.221 452.616 388.221 441.058C388.221 429.5 344.661 420.13 290.928 420.13C237.194 420.13 193.635 429.5 193.635 441.058C193.635 452.616 237.194 461.985 290.928 461.985Z" fill="#DBDBDB"/>
<path d="M290.928 450.497C326.462 450.497 355.268 445.287 355.268 438.859C355.268 432.432 326.462 427.222 290.928 427.222C255.394 427.222 226.588 432.432 226.588 438.859C226.588 445.287 255.394 450.497 290.928 450.497Z" fill="#C7C7C7"/>
<path d="M290.928 447.938C317.694 447.938 339.393 444.235 339.393 439.667C339.393 435.098 317.694 431.395 290.928 431.395C264.161 431.395 242.463 435.098 242.463 439.667C242.463 444.235 264.161 447.938 290.928 447.938Z" fill="#AE394D"/>
<path opacity="0.1" d="M290.928 447.938C317.694 447.938 339.393 444.235 339.393 439.667C339.393 435.098 317.694 431.395 290.928 431.395C264.161 431.395 242.463 435.098 242.463 439.667C242.463 444.235 264.161 447.938 290.928 447.938Z" fill="black"/>
<path d="M324.431 437.667C311.911 441.778 297.175 442.387 290.928 442.387C284.68 442.387 269.894 441.778 257.412 437.667L259.503 416.851H322.34L324.431 437.667Z" fill="#AE394D"/>
<path d="M290.928 421.633C308.284 421.633 322.353 419.492 322.353 416.851C322.353 414.21 308.284 412.069 290.928 412.069C273.572 412.069 259.503 414.21 259.503 416.851C259.503 419.492 273.572 421.633 290.928 421.633Z" fill="#AE394D"/>
<path opacity="0.1" d="M322.265 417.174H322.353C322.353 417.174 320.951 420.9 319.073 421.024C317.921 421.136 316.694 420.229 315.88 421.819C315.067 423.409 318.146 429.619 315.204 429.619C312.262 429.619 314.115 424.415 313.664 423.31C313.474 422.738 313.082 422.253 312.559 421.947C312.036 421.641 311.419 421.534 310.822 421.645C309.633 421.956 307.98 424.825 306.14 423.918C304.299 423.012 302.634 423.31 302.071 424.378C301.507 425.446 303.323 428.377 300.969 428.439C298.615 428.501 301.895 423.471 298.803 422.738C296.775 422.266 295.748 423.98 293.582 424.067C291.416 424.154 290.59 422.825 288.574 422.962C286.558 423.098 286.195 425.856 283.904 425.856C282.126 425.856 281.4 422.962 280.286 423.049C279.172 423.136 278.37 424.291 276.355 424.03C274.339 423.769 274.201 422.105 272.373 421.645C271.021 421.298 269.394 421.534 268.955 422.465C268.029 424.477 269.932 429.619 267.553 429.619C265.174 429.619 266.088 425.893 266.151 423.955C266.213 422.018 265.512 419.832 263.647 419.223L263.296 419.124C262.432 418.963 261.806 420.85 260.392 420.142C259.753 419.82 259.515 417.174 259.515 417.174H259.59C259.543 417.073 259.518 416.963 259.515 416.851C259.515 414.206 273.575 412.069 290.94 412.069C308.306 412.069 322.366 414.206 322.366 416.851C322.355 416.964 322.32 417.074 322.265 417.174Z" fill="black"/>
<path d="M260.592 416.603C265.588 417.575 270.632 418.284 275.703 418.727L279.459 419.037L283.215 419.286C285.719 419.372 288.299 419.472 290.84 419.435C293.382 419.397 295.911 419.372 298.452 419.31C300.994 419.248 303.523 419.012 306.052 418.751C307.304 418.615 308.556 418.54 309.808 418.366L313.564 417.845C316.068 417.559 318.572 416.975 321.076 416.603C319.824 416.938 318.572 417.261 317.32 417.572C316.068 417.882 314.816 418.217 313.564 418.441L309.808 419.149C308.556 419.372 307.304 419.509 306.052 419.695C300.975 420.358 295.86 420.685 290.74 420.677C285.616 420.657 280.498 420.325 275.415 419.683C272.911 419.335 270.345 418.938 267.841 418.441C265.337 417.944 263.008 417.348 260.592 416.603Z" fill="#AE394D"/>
<path d="M301.119 398.383C301.119 398.383 298.252 400.506 298.064 401.984C297.902 403.226 296.086 402.146 296.124 400.606C296.141 400.227 296.257 399.859 296.462 399.538C297.827 399.32 299.089 398.681 300.067 397.712C300.17 397.717 300.272 397.738 300.368 397.774C300.53 397.816 300.681 397.892 300.81 397.997C300.94 398.102 301.045 398.234 301.119 398.383Z" fill="#455A64"/>
<path d="M301.119 398.383C301.119 398.383 298.252 400.506 298.064 401.984C297.902 403.226 296.086 402.146 296.124 400.606C296.438 400.642 296.757 400.607 297.056 400.504C297.355 400.401 297.627 400.232 297.851 400.01C298.64 399.414 300.355 398.917 300.355 397.774C300.52 397.814 300.673 397.89 300.805 397.995C300.937 398.1 301.044 398.232 301.119 398.383Z" fill="#37474F"/>
<path d="M295.898 401.301C295.526 400.904 295.225 400.446 295.009 399.948L294.947 399.823C294.47 398.914 294.27 397.887 294.371 396.867C294.671 396.023 296.875 395.129 297.363 395.141C297.851 395.153 297.138 396.308 296.737 397.625C296.336 398.942 296.149 399.935 296.737 400.593C297.901 402.034 300.931 401.388 301.745 401.624C302.427 401.794 303.061 402.117 303.598 402.568C303.627 402.61 303.648 402.656 303.661 402.705C303.673 402.966 300.355 405.611 295.898 401.301Z" fill="#455A64"/>
<path d="M295.898 401.301C295.526 400.904 295.225 400.446 295.009 399.948C295.656 400.587 296.405 401.116 297.225 401.512C298.494 402.187 299.938 402.468 301.369 402.32C302.109 402.181 302.874 402.255 303.573 402.531C303.602 402.572 303.623 402.619 303.636 402.668C303.673 402.966 300.355 405.611 295.898 401.301Z" fill="#37474F"/>
<path d="M303.886 405.499C303.505 405.785 303.067 405.989 302.601 406.096C302.135 406.203 301.651 406.211 301.182 406.12C300.278 405.914 299.428 405.521 298.688 404.967C297.948 404.413 297.335 403.709 296.887 402.904C296.387 401.997 293.607 400.097 292.418 398.643L292.355 398.569C292.113 398.303 291.949 397.977 291.879 397.625C291.754 396.222 293.232 394.296 293.707 394.495C293.945 394.607 293.933 395.141 293.908 395.812C293.858 396.48 293.922 397.152 294.095 397.799C294.896 399.489 296.099 400.959 297.601 402.084C300.18 404.257 303.861 405.114 303.949 405.35C303.961 405.388 303.949 405.437 303.886 405.499Z" fill="#455A64"/>
<path d="M303.886 405.499C303.504 405.785 303.066 405.989 302.6 406.096C302.134 406.203 301.651 406.211 301.182 406.12C300.278 405.914 299.428 405.521 298.688 404.967C297.948 404.413 297.334 403.709 296.887 402.904C296.386 401.997 293.607 400.097 292.418 398.643C294.195 400.246 296.349 401.376 298.139 402.966C298.954 403.852 299.931 404.577 301.019 405.102C301.927 405.467 302.912 405.603 303.886 405.499Z" fill="#37474F"/>
<path d="M293.244 415.783C290.236 416.336 287.158 416.399 284.13 415.969C283.496 415.882 282.871 415.737 282.264 415.535C282.013 415.46 281.779 415.338 281.576 415.175C280.712 414.38 280.161 412.405 280.699 407.983C281.237 403.562 284.63 398.879 288.436 398.383C289.627 398.268 290.827 398.433 291.941 398.865C293.054 399.297 294.05 399.982 294.847 400.867L295.172 401.227C295.36 401.36 295.561 401.473 295.773 401.562C297.313 402.295 301.194 404.046 301.332 407.772C301.507 412.281 298.064 414.864 293.244 415.783Z" fill="#C95F50"/>
<path d="M292.242 401.413C292.155 401.289 291.917 401.351 291.804 401.413C291.692 401.475 291.466 401.587 291.466 401.761C291.463 401.806 291.473 401.851 291.496 401.891C291.518 401.931 291.551 401.963 291.591 401.984C291.632 402.011 291.68 402.025 291.729 402.025C291.778 402.025 291.826 402.011 291.867 401.984C292.014 401.899 292.138 401.78 292.23 401.637C292.241 401.579 292.241 401.52 292.23 401.463L292.242 401.413Z" fill="#AE394D"/>
<path d="M289.676 399.376C289.631 399.321 289.574 399.277 289.508 399.249C289.443 399.221 289.371 399.209 289.3 399.215C289.15 399.215 288.987 399.327 288.987 399.5C288.993 399.537 289.006 399.571 289.026 399.602C289.046 399.633 289.072 399.66 289.102 399.681C289.132 399.702 289.167 399.716 289.203 399.724C289.239 399.731 289.276 399.731 289.313 399.724C289.39 399.721 289.466 399.702 289.535 399.668C289.604 399.634 289.665 399.585 289.713 399.525C289.725 399.515 289.734 399.501 289.738 399.486C289.743 399.471 289.744 399.455 289.74 399.44C289.736 399.424 289.728 399.41 289.717 399.399C289.705 399.388 289.691 399.38 289.676 399.376Z" fill="#AE394D"/>
<path d="M288.975 401.525C288.98 401.505 288.98 401.483 288.975 401.463C288.842 401.413 288.695 401.413 288.562 401.463C288.449 401.525 288.324 401.637 288.349 401.773C288.354 401.809 288.367 401.843 288.387 401.873C288.407 401.903 288.434 401.928 288.466 401.945C288.497 401.963 288.532 401.974 288.568 401.977C288.604 401.979 288.641 401.973 288.674 401.96C288.822 401.91 288.952 401.82 289.05 401.699C289.057 401.666 289.054 401.631 289.041 401.6C289.027 401.569 289.004 401.542 288.975 401.525Z" fill="#AE394D"/>
<path d="M288.975 404.829C288.975 404.829 288.975 404.754 288.975 404.729C288.975 404.704 288.649 404.729 288.536 404.729C288.424 404.729 288.198 405.015 288.248 405.189C288.298 405.363 288.549 405.388 288.699 405.288C288.854 405.192 288.966 405.041 289.012 404.866C289.002 404.852 288.989 404.839 288.975 404.829Z" fill="#AE394D"/>
<path d="M285.382 402.022C285.353 402.011 285.322 402.011 285.294 402.022C285.207 402.024 285.121 402.045 285.043 402.083C284.965 402.122 284.897 402.177 284.843 402.245C284.743 402.369 284.655 402.568 284.843 402.705C285.031 402.841 285.119 402.705 285.206 402.63C285.328 402.451 285.389 402.238 285.382 402.022Z" fill="#AE394D"/>
<path d="M285.72 405.388C285.703 405.376 285.683 405.37 285.663 405.37C285.643 405.37 285.623 405.376 285.607 405.388C285.544 405.381 285.48 405.388 285.42 405.407C285.36 405.427 285.304 405.458 285.256 405.499C285.201 405.539 285.156 405.591 285.126 405.652C285.095 405.712 285.08 405.779 285.081 405.847C285.083 405.879 285.092 405.91 285.108 405.937C285.124 405.964 285.147 405.987 285.174 406.005C285.201 406.022 285.231 406.032 285.263 406.035C285.295 406.038 285.327 406.033 285.356 406.021C285.477 405.966 285.581 405.881 285.657 405.773C285.695 405.648 285.82 405.474 285.72 405.388Z" fill="#AE394D"/>
<path d="M286.721 408.989C286.718 408.965 286.706 408.943 286.688 408.927C286.669 408.911 286.645 408.902 286.621 408.902C286.616 408.888 286.608 408.875 286.597 408.864C286.586 408.853 286.573 408.845 286.558 408.84C286.258 408.84 285.907 409.3 286.083 409.561C286.258 409.822 286.408 409.561 286.521 409.561C286.592 409.484 286.646 409.394 286.681 409.296C286.715 409.197 286.729 409.093 286.721 408.989Z" fill="#AE394D"/>
<path d="M290.164 408.406C290.173 408.381 290.173 408.355 290.164 408.331C290.014 408.194 289.826 408.331 289.701 408.418C289.576 408.505 289.413 408.716 289.513 408.89C289.576 408.948 289.659 408.981 289.745 408.981C289.831 408.981 289.914 408.948 289.976 408.89C290.047 408.832 290.101 408.757 290.134 408.672C290.166 408.587 290.177 408.495 290.164 408.406Z" fill="#AE394D"/>
<path d="M282.402 406.033C282.402 405.971 282.402 405.897 282.327 405.884C282.233 405.868 282.136 405.888 282.055 405.938C281.974 405.988 281.915 406.067 281.888 406.158C281.826 406.319 281.688 406.567 281.888 406.704C282.089 406.841 282.227 406.704 282.314 406.53C282.403 406.381 282.434 406.204 282.402 406.033Z" fill="#AE394D"/>
<path d="M283.465 410.045C283.472 410.016 283.472 409.987 283.465 409.958C283.377 409.809 283.177 409.859 283.077 409.958C283.013 410.028 282.965 410.111 282.935 410.201C282.905 410.29 282.894 410.385 282.902 410.48C282.911 410.517 282.929 410.552 282.956 410.58C282.982 410.608 283.016 410.628 283.053 410.638C283.091 410.648 283.13 410.648 283.167 410.638C283.205 410.627 283.238 410.607 283.265 410.579C283.399 410.434 283.471 410.242 283.465 410.045Z" fill="#AE394D"/>
<path d="M292.242 404.568C291.979 404.568 291.579 404.841 291.742 405.102C291.786 405.159 291.851 405.197 291.923 405.209C291.995 405.22 292.069 405.204 292.13 405.164C292.19 405.115 292.24 405.056 292.28 404.99C292.334 404.919 292.384 404.844 292.43 404.767C292.441 404.74 292.445 404.711 292.44 404.682C292.435 404.654 292.421 404.628 292.401 404.607C292.381 404.586 292.356 404.571 292.328 404.564C292.299 404.557 292.27 404.558 292.242 404.568Z" fill="#AE394D"/>
<path d="M295.309 403.413C295.309 403.326 295.146 403.289 295.096 403.413C294.993 403.468 294.907 403.549 294.846 403.649C294.784 403.761 294.746 403.934 294.846 404.021C294.946 404.108 295.384 403.611 295.309 403.413Z" fill="#AE394D"/>
<path d="M298.915 405.201C298.922 405.023 298.859 404.849 298.74 404.717C298.74 404.655 298.59 404.717 298.54 404.717C298.526 404.71 298.511 404.707 298.496 404.707C298.481 404.707 298.466 404.71 298.452 404.717C298.408 404.777 298.379 404.847 298.369 404.92C298.358 404.994 298.365 405.069 298.39 405.139C298.39 405.276 298.527 405.437 298.677 405.45C298.827 405.462 298.915 405.35 298.915 405.201Z" fill="#AE394D"/>
<path d="M300.705 408.579C300.705 408.418 300.63 408.182 300.43 408.182C300.411 408.183 300.393 408.189 300.377 408.2C300.362 408.211 300.35 408.227 300.343 408.244C300.269 408.323 300.215 408.418 300.184 408.522C300.154 408.625 300.148 408.734 300.168 408.84C300.168 409.002 300.368 409.163 300.543 409.039C300.654 408.912 300.712 408.748 300.705 408.579Z" fill="#AE394D"/>
<path d="M296.811 407.064C296.801 407.049 296.787 407.036 296.771 407.028C296.754 407.019 296.736 407.014 296.718 407.014C296.699 407.014 296.681 407.019 296.664 407.028C296.648 407.036 296.634 407.049 296.624 407.064C296.476 407.17 296.362 407.317 296.299 407.487C296.277 407.522 296.263 407.561 296.258 407.602C296.253 407.644 296.256 407.685 296.268 407.725C296.279 407.765 296.299 407.802 296.326 407.833C296.353 407.865 296.386 407.891 296.424 407.909C296.811 408.07 296.924 407.288 296.811 407.064Z" fill="#AE394D"/>
<path d="M293.444 407.474C293.284 407.533 293.145 407.636 293.044 407.772C292.987 407.838 292.947 407.916 292.927 408.001C292.908 408.085 292.909 408.173 292.931 408.257C293.019 408.455 293.257 408.406 293.382 408.257C293.491 408.088 293.559 407.897 293.582 407.698C293.612 407.68 293.633 407.65 293.642 407.617C293.65 407.583 293.644 407.547 293.626 407.518C293.608 407.488 293.578 407.467 293.544 407.459C293.51 407.45 293.474 407.456 293.444 407.474Z" fill="#AE394D"/>
<path d="M298.064 409.747C298.061 409.721 298.05 409.697 298.033 409.677C298.016 409.657 297.994 409.642 297.969 409.635C297.944 409.627 297.917 409.626 297.892 409.633C297.867 409.64 297.844 409.653 297.826 409.672C297.677 409.732 297.55 409.836 297.463 409.97C297.41 410.028 297.38 410.103 297.38 410.182C297.38 410.26 297.41 410.335 297.463 410.393C297.851 410.666 298.064 409.97 298.064 409.747Z" fill="#AE394D"/>
<path d="M298.139 412.852C298.084 412.815 298.018 412.795 297.952 412.795C297.885 412.795 297.819 412.815 297.764 412.852C297.699 412.893 297.645 412.95 297.608 413.018C297.571 413.085 297.551 413.16 297.551 413.237C297.551 413.436 297.789 413.485 297.952 413.411C298.109 413.32 298.232 413.18 298.302 413.013C298.304 412.992 298.301 412.97 298.294 412.949C298.286 412.929 298.274 412.91 298.259 412.895C298.243 412.88 298.224 412.868 298.204 412.86C298.183 412.853 298.161 412.85 298.139 412.852Z" fill="#AE394D"/>
<path d="M294.671 414.094C294.671 413.97 294.446 413.97 294.333 413.995C294.221 414.019 294.02 414.131 293.995 414.293C293.97 414.454 294.196 414.553 294.358 414.541C294.446 414.533 294.531 414.503 294.605 414.456C294.679 414.408 294.74 414.344 294.784 414.268C294.792 414.249 294.796 414.229 294.794 414.208C294.792 414.188 294.786 414.168 294.775 414.151C294.763 414.134 294.748 414.12 294.73 414.11C294.712 414.1 294.692 414.094 294.671 414.094Z" fill="#AE394D"/>
<path d="M295.047 411.138C295.054 411.118 295.054 411.096 295.047 411.076C295.047 411.076 295.047 410.952 294.972 410.964C294.81 410.973 294.657 411.034 294.534 411.138C294.433 411.225 294.308 411.374 294.358 411.523C294.408 411.672 295.084 411.436 295.047 411.138Z" fill="#AE394D"/>
<path d="M291.454 411.66C291.278 411.653 291.107 411.715 290.978 411.834C290.865 411.933 290.715 412.119 290.865 412.256C291.016 412.392 291.654 412.07 291.692 411.796C291.729 411.523 291.541 411.585 291.454 411.66Z" fill="#AE394D"/>
<path d="M291.216 414.591V414.516C291.153 414.472 291.081 414.442 291.006 414.427C290.93 414.412 290.853 414.413 290.777 414.429C290.627 414.429 290.464 414.603 290.477 414.765C290.489 414.926 290.727 414.963 290.878 414.926C291.028 414.889 291.216 414.765 291.216 414.591Z" fill="#AE394D"/>
<path d="M288.048 411.945C288.032 411.934 288.012 411.928 287.992 411.928C287.972 411.928 287.952 411.934 287.936 411.945C287.926 411.94 287.915 411.937 287.904 411.937C287.893 411.937 287.882 411.94 287.873 411.945C287.793 411.951 287.715 411.972 287.644 412.009C287.573 412.045 287.511 412.095 287.46 412.156C287.405 412.216 287.375 412.293 287.375 412.374C287.375 412.454 287.405 412.532 287.46 412.591C287.685 412.777 288.136 412.218 288.048 411.945Z" fill="#AE394D"/>
<path d="M287.46 414.864C287.46 414.864 287.46 414.789 287.46 414.777C287.46 414.628 287.235 414.616 287.122 414.64C287.009 414.665 286.796 414.802 286.809 414.963C286.821 415.125 287.009 415.199 287.159 415.175C287.31 415.15 287.472 415.025 287.46 414.864Z" fill="#AE394D"/>
<path d="M284.555 414.926C284.555 414.926 284.28 414.926 284.167 414.926C284.054 414.926 283.879 415.05 283.967 415.199C284.054 415.348 284.192 415.311 284.305 415.286C284.417 415.261 284.593 415.224 284.63 415.088C284.642 415.073 284.649 415.056 284.652 415.037C284.654 415.019 284.651 415.001 284.643 414.984C284.635 414.967 284.623 414.953 284.607 414.943C284.592 414.932 284.574 414.927 284.555 414.926Z" fill="#AE394D"/>
<path d="M284.755 412.641C284.611 412.663 284.479 412.733 284.38 412.839C284.355 412.862 284.336 412.89 284.322 412.921C284.309 412.952 284.302 412.985 284.302 413.019C284.302 413.053 284.309 413.086 284.322 413.117C284.336 413.148 284.355 413.176 284.38 413.199C284.505 413.31 284.642 413.199 284.73 413.124C284.817 413.05 284.842 412.79 284.755 412.641Z" fill="#AE394D"/>
<path d="M281.587 412.38C281.575 412.367 281.561 412.356 281.545 412.349C281.529 412.342 281.511 412.338 281.493 412.338C281.476 412.338 281.458 412.342 281.442 412.349C281.426 412.356 281.411 412.367 281.4 412.38C281.4 412.38 281.3 412.38 281.287 412.38C281.217 412.515 281.175 412.663 281.162 412.815C281.162 412.939 281.262 413.076 281.4 413.051C281.537 413.026 281.787 412.591 281.587 412.38Z" fill="#AE394D"/>
<g opacity="0.2">
<path d="M290.364 408.94C290.176 409.064 290.026 409.225 289.838 409.325C289.732 409.375 289.618 409.408 289.5 409.424C289.4 409.424 289.325 409.424 289.237 409.424V409.486C289.3 409.722 289.701 409.648 289.876 409.585C290.149 409.488 290.379 409.299 290.527 409.051C290.552 408.977 290.427 408.89 290.364 408.94Z" fill="white"/>
<path d="M293.87 408.232C293.865 408.221 293.857 408.212 293.847 408.206C293.837 408.2 293.825 408.197 293.814 408.197C293.802 408.197 293.79 408.2 293.78 408.206C293.77 408.212 293.762 408.221 293.757 408.232C293.607 408.356 293.569 408.567 293.444 408.716C293.374 408.802 293.284 408.87 293.181 408.914C293.079 408.957 292.967 408.974 292.856 408.964C292.839 408.971 292.826 408.982 292.816 408.996C292.806 409.011 292.801 409.028 292.801 409.045C292.801 409.063 292.806 409.08 292.816 409.094C292.826 409.108 292.839 409.119 292.856 409.126C292.98 409.185 293.119 409.206 293.255 409.186C293.391 409.166 293.518 409.106 293.619 409.014C293.745 408.828 293.97 408.48 293.87 408.232Z" fill="white"/>
<path d="M294.045 407.772H293.945C293.945 407.772 293.945 407.958 294.032 407.908C294.048 407.889 294.057 407.866 294.059 407.842C294.061 407.818 294.056 407.794 294.045 407.772Z" fill="white"/>
<path d="M288.286 412.479C288.136 412.566 288.011 412.69 287.848 412.765C287.676 412.812 287.5 412.842 287.322 412.852C287.296 412.852 287.27 412.862 287.251 412.881C287.233 412.9 287.222 412.925 287.222 412.951C287.222 412.978 287.233 413.003 287.251 413.022C287.27 413.04 287.296 413.051 287.322 413.051C287.546 413.139 287.794 413.146 288.023 413.071C288.252 412.996 288.447 412.844 288.574 412.641C288.537 412.517 288.399 412.38 288.286 412.479Z" fill="white"/>
<path d="M286.032 405.971C286.032 405.955 286.027 405.94 286.019 405.926C286.011 405.913 286 405.901 285.986 405.892C285.973 405.884 285.957 405.879 285.941 405.877C285.926 405.876 285.91 405.878 285.895 405.884C285.77 405.959 285.694 406.095 285.582 406.182C285.522 406.246 285.447 406.294 285.364 406.32C285.28 406.346 285.191 406.35 285.106 406.331C285.088 406.317 285.064 406.31 285.041 406.312C285.017 406.314 284.996 406.326 284.981 406.344C284.966 406.362 284.959 406.385 284.961 406.408C284.963 406.432 284.975 406.453 284.993 406.468C285.231 406.878 286.083 406.356 286.032 405.971Z" fill="white"/>
<path d="M283.666 410.567C283.428 410.716 283.203 411.026 282.877 410.865C282.79 410.865 282.702 410.952 282.79 411.014C282.965 411.11 283.171 411.135 283.365 411.084C283.558 411.034 283.725 410.91 283.829 410.741C283.842 410.718 283.848 410.691 283.845 410.665C283.842 410.638 283.83 410.613 283.812 410.594C283.794 410.575 283.77 410.561 283.744 410.557C283.717 410.552 283.69 410.555 283.666 410.567Z" fill="white"/>
<path d="M286.496 409.983C286.446 409.971 286.395 409.971 286.345 409.983C286.345 409.983 286.245 409.983 286.195 409.983C286.184 409.988 286.176 409.996 286.169 410.006C286.163 410.016 286.16 410.027 286.16 410.039C286.16 410.05 286.163 410.062 286.169 410.072C286.176 410.082 286.184 410.09 286.195 410.095C286.223 410.126 286.258 410.149 286.298 410.162C286.337 410.175 286.38 410.177 286.42 410.169C286.461 410.174 286.503 410.164 286.537 410.141C286.572 410.118 286.597 410.084 286.608 410.045C286.608 410.032 286.604 410.02 286.597 410.009C286.591 409.998 286.581 409.988 286.57 409.982C286.558 409.976 286.546 409.973 286.533 409.973C286.52 409.973 286.507 409.976 286.496 409.983Z" fill="white"/>
<path d="M287.046 409.722C287.047 409.701 287.042 409.68 287.031 409.662C287.02 409.644 287.003 409.631 286.983 409.623C286.896 409.623 286.834 409.709 286.884 409.784C286.934 409.858 287.058 409.784 287.058 409.784L287.046 409.722Z" fill="white"/>
<path d="M289.375 405.127C289.225 405.226 289.163 405.412 289.062 405.549C288.991 405.646 288.892 405.719 288.778 405.758C288.664 405.798 288.541 405.803 288.424 405.772C288.361 405.772 288.311 405.835 288.424 405.872C288.53 405.914 288.644 405.93 288.757 405.919C288.87 405.908 288.979 405.871 289.075 405.81C289.311 405.683 289.494 405.476 289.588 405.226C289.551 405.139 289.438 405.065 289.375 405.127Z" fill="white"/>
<path d="M292.53 405.176C292.405 405.263 292.33 405.412 292.205 405.499C292.13 405.553 292.04 405.582 291.948 405.582C291.856 405.582 291.766 405.553 291.691 405.499C291.629 405.499 291.566 405.561 291.616 405.611C291.697 405.666 291.793 405.695 291.892 405.695C291.99 405.695 292.086 405.666 292.167 405.611C292.366 405.518 292.523 405.354 292.605 405.151C292.605 405.151 292.568 405.139 292.53 405.176Z" fill="white"/>
<path d="M295.435 404.146H295.335C295.235 404.208 295.172 404.295 295.059 404.332C294.949 404.363 294.832 404.363 294.721 404.332C294.721 404.332 294.634 404.394 294.721 404.419C294.785 404.47 294.862 404.504 294.943 404.517C295.024 404.53 295.107 404.522 295.185 404.493C295.272 404.431 295.447 404.307 295.435 404.146Z" fill="white"/>
<path d="M295.56 403.686C295.485 403.686 295.46 403.785 295.56 403.797C295.646 403.809 295.659 403.686 295.56 403.686Z" fill="white"/>
<path d="M292.167 402.121C292.012 402.209 291.829 402.235 291.654 402.196C291.644 402.202 291.635 402.212 291.629 402.222C291.623 402.233 291.62 402.245 291.62 402.258C291.62 402.27 291.623 402.282 291.629 402.293C291.635 402.304 291.644 402.313 291.654 402.32C291.759 402.39 291.886 402.421 292.012 402.407C292.138 402.393 292.255 402.336 292.343 402.245C292.368 402.171 292.255 402.071 292.167 402.121Z" fill="white"/>
<path d="M292.68 402.034C292.679 402.015 292.673 401.997 292.662 401.981C292.651 401.966 292.635 401.954 292.618 401.947C292.543 401.947 292.48 402.034 292.53 402.096C292.539 402.111 292.552 402.124 292.567 402.133C292.582 402.142 292.6 402.147 292.618 402.147C292.636 402.147 292.653 402.142 292.668 402.133C292.684 402.124 292.696 402.111 292.705 402.096L292.68 402.034Z" fill="white"/>
<path d="M296.912 407.946C296.843 408.053 296.749 408.142 296.638 408.204C296.527 408.267 296.402 408.302 296.274 408.306C296.26 408.312 296.249 408.322 296.241 408.334C296.233 408.346 296.229 408.36 296.229 408.375C296.229 408.389 296.233 408.403 296.241 408.415C296.249 408.427 296.26 408.437 296.274 408.443C296.353 408.467 296.437 408.474 296.519 408.462C296.601 408.451 296.679 408.421 296.749 408.376C296.818 408.331 296.877 408.272 296.92 408.201C296.963 408.131 296.991 408.053 297 407.971C297 407.971 296.937 407.909 296.912 407.946Z" fill="white"/>
<path d="M297.112 407.499C297.096 407.499 297.08 407.505 297.068 407.517C297.057 407.529 297.05 407.544 297.05 407.561C297.05 407.577 297.057 407.593 297.068 407.604C297.08 407.616 297.096 407.622 297.112 407.622C297.162 407.635 297.187 407.511 297.112 407.499Z" fill="white"/>
<path d="M295.072 411.635C294.962 411.754 294.82 411.841 294.663 411.885C294.506 411.928 294.34 411.928 294.183 411.883C294.108 411.883 294.045 411.97 294.183 412.007C294.366 412.102 294.578 412.125 294.777 412.072C294.976 412.019 295.149 411.894 295.26 411.722C295.26 411.635 295.135 411.573 295.072 411.635Z" fill="white"/>
<path d="M297.826 410.517C297.701 410.604 297.563 410.753 297.4 410.691C297.238 410.629 297.275 410.753 297.4 410.79C297.503 410.831 297.616 410.838 297.722 410.809C297.829 410.779 297.923 410.716 297.989 410.629C298.064 410.567 297.901 410.48 297.826 410.517Z" fill="white"/>
<path d="M291.429 412.38C291.316 412.432 291.199 412.474 291.078 412.504C290.941 412.527 290.801 412.505 290.677 412.442C290.615 412.442 290.565 412.504 290.615 412.554C290.665 412.603 291.366 412.815 291.529 412.492C291.533 412.477 291.534 412.462 291.531 412.447C291.528 412.432 291.521 412.419 291.511 412.408C291.501 412.396 291.488 412.388 291.473 412.383C291.459 412.378 291.444 412.377 291.429 412.38Z" fill="white"/>
<path d="M284.705 413.373C284.624 413.441 284.523 413.48 284.417 413.485C284.311 413.477 284.207 413.443 284.117 413.386C284.117 413.386 284.029 413.386 284.054 413.46C284.101 413.513 284.159 413.556 284.224 413.585C284.289 413.614 284.359 413.629 284.43 413.629C284.501 413.629 284.571 413.614 284.636 413.585C284.701 413.556 284.758 413.513 284.805 413.46C284.856 413.423 284.78 413.324 284.705 413.373Z" fill="white"/>
<path d="M284.505 415.398L284.217 415.535C284.113 415.547 284.008 415.547 283.904 415.535C283.904 415.535 283.829 415.609 283.904 415.634C284.024 415.669 284.152 415.669 284.272 415.633C284.391 415.598 284.499 415.529 284.58 415.435C284.58 415.435 284.555 415.373 284.505 415.398Z" fill="white"/>
<path d="M298.664 405.872C298.589 405.872 298.539 405.872 298.464 405.872C298.39 405.872 298.39 405.872 298.464 405.946C298.492 405.977 298.527 406.001 298.566 406.016C298.605 406.032 298.647 406.037 298.689 406.033C298.689 406.033 298.726 405.884 298.664 405.872Z" fill="white"/>
</g>
<path d="M503.154 399.252V452.31C503.154 456.111 501.727 459.203 499.986 459.203H479.404H458.796C457.055 459.203 455.641 456.148 455.641 452.348V399.252C455.641 395.451 457.055 392.396 458.796 392.396H460.699V387.428H479.404H498.083V392.396H499.986C501.727 392.396 503.154 395.451 503.154 399.252Z" fill="#AE394D"/>
<path d="M499.385 379.256H459.359V388.186H499.385V379.256Z" fill="#37474F"/>
<path d="M503.141 410.505H455.641V444.026H503.141V410.505Z" fill="#EBEBEB"/>
<path d="M450.37 449.851C450.37 456.806 447.74 459.203 446.401 459.216H423.564C422.225 459.216 419.583 456.831 419.57 449.876C419.57 441.629 425.517 436.673 425.505 432.165C425.505 429.221 422.65 420.105 423.877 420.105H445.975C447.227 420.105 444.372 429.234 444.372 432.177C444.385 436.673 450.357 441.604 450.37 449.851Z" fill="#C7C7C7"/>
<path d="M425.55 414.012L444.192 413.986C444.906 413.985 445.591 414.265 446.097 414.765C446.602 415.265 446.887 415.944 446.888 416.652L446.895 422.08C446.895 422.129 446.876 422.177 446.841 422.212C446.805 422.247 446.758 422.266 446.708 422.266L423.07 422.299C423.02 422.299 422.972 422.28 422.937 422.245C422.902 422.21 422.882 422.162 422.882 422.113L422.874 416.686C422.873 415.979 423.154 415.302 423.656 414.801C424.157 414.3 424.838 414.016 425.55 414.012Z" fill="#37474F"/>
<path d="M166.241 453.875C166.001 455.781 165.365 457.618 164.374 459.268C163.383 460.918 162.057 462.347 160.482 463.463C153.746 468.754 142.503 471.002 131.147 469.338C123.46 468.22 113.807 463.935 104.467 459.787C95.1271 455.639 86.0626 451.602 79.715 451.093L4.59499 444.672L4.99563 440.101L6.74843 440.25L6.49803 443.07L79.8652 449.342C86.5133 449.913 95.5903 453.95 105.193 458.21C114.42 462.308 123.973 466.544 131.398 467.636C142.29 469.226 153.02 467.115 159.38 462.122C160.767 461.149 161.938 459.902 162.817 458.46C163.696 457.017 164.265 455.41 164.488 453.738L166.241 453.875Z" fill="#A6A6A6"/>
<path d="M165.853 449.764C166.224 451.101 166.355 452.493 166.241 453.875L164.488 453.714C164.555 452.031 164.271 450.352 163.653 448.783C163.034 447.214 162.095 445.789 160.895 444.597C155.486 438.599 145.295 434.661 134.29 434.413C126.778 434.227 116.637 436.785 106.833 439.257C96.6421 441.828 87.0017 444.225 80.3536 443.691L6.99892 437.481L6.74851 440.288L4.99571 440.139L5.38383 435.581L80.5038 442.002C86.8515 442.548 96.3542 440.151 106.408 437.617C116.461 435.084 126.565 432.538 134.34 432.736C145.808 433.022 156.488 437.145 162.222 443.492C163.898 445.281 165.14 447.426 165.853 449.764Z" fill="#A6A6A6"/>
<path d="M166.241 453.875C166.115 454.81 165.796 455.709 165.305 456.517C164.814 457.324 164.161 458.023 163.386 458.57C157.79 463.054 145.044 464.954 131.686 463.277C124.036 462.321 114.295 459.241 104.88 456.247C95.4653 453.254 86.2255 450.335 79.8403 449.789L4.72031 443.355L5.00827 440.076L6.76107 440.226L6.62335 441.766L79.9906 447.976C86.5886 448.547 95.7407 451.441 105.431 454.521C114.771 457.477 124.424 460.545 131.924 461.489C144.631 463.078 157.114 461.29 162.285 457.142C162.875 456.741 163.377 456.225 163.758 455.625C164.139 455.025 164.392 454.353 164.501 453.652L166.241 453.875Z" fill="#A6A6A6"/>
<path d="M166.053 451.913C166.233 452.551 166.297 453.215 166.241 453.875L166.166 454.745L4.90799 440.946L5.27107 436.785L80.3911 443.206C86.8013 443.765 96.2164 442.461 106.182 441.095C116.148 439.729 126.114 438.363 133.826 438.723C147.273 439.344 159.492 443.368 164.238 448.746C165.076 449.652 165.697 450.735 166.053 451.913ZM164.45 452.832C164.224 451.735 163.69 450.723 162.91 449.913C158.528 444.945 146.534 441.07 133.739 440.486C126.227 440.126 116.148 441.505 106.433 442.846C96.4167 444.225 86.8389 445.529 80.2408 444.97L6.88615 438.698V439.356L164.45 452.832Z" fill="#A6A6A6"/>
<path d="M0.914185 447.28L60.2089 452.348L61.511 437.369L1.87823 432.264L0.914185 447.28Z" fill="#37474F"/>
<path d="M409.705 132.309C408.86 140.353 405.779 148.006 400.804 154.414C395.83 160.821 389.157 165.731 381.533 168.595C373.908 171.459 365.632 172.164 357.626 170.632C349.621 169.1 342.203 165.391 336.2 159.919L314.19 163.123L325.207 144.245C322.683 138.101 321.603 131.467 322.051 124.847C322.5 118.227 324.463 111.795 327.793 106.041C331.123 100.287 335.732 95.3622 341.268 91.6403C346.805 87.9185 353.124 85.4979 359.746 84.5626C366.367 83.6273 373.117 84.2019 379.48 86.2427C385.844 88.2835 391.656 91.7368 396.472 96.3401C401.289 100.943 404.984 106.575 407.277 112.808C409.57 119.041 410.4 125.71 409.705 132.309Z" fill="white"/>
<path d="M409.705 132.309C408.857 140.353 405.785 148.008 400.828 154.429C398.41 157.673 395.5 160.526 392.202 162.887C388.957 165.325 385.383 167.298 381.585 168.749C377.786 170.222 373.801 171.167 369.741 171.556C367.709 171.73 365.668 171.767 363.631 171.668C361.589 171.619 359.554 171.407 357.546 171.035C349.431 169.561 341.891 165.871 335.774 160.378L336.3 160.54L314.34 163.881L312.75 164.129L313.551 162.738L324.506 143.822V144.568C321.924 138.311 320.825 131.55 321.294 124.806C321.763 118.061 323.787 111.514 327.211 105.668C330.637 99.8484 335.345 94.8723 340.983 91.1119C346.621 87.3863 353.046 84.9941 359.763 84.1194C366.436 83.207 373.231 83.8278 379.624 85.9339C386.017 88.0399 391.837 91.575 396.634 96.2662C401.418 100.902 405.08 106.555 407.344 112.798C409.609 119.041 410.416 125.712 409.705 132.309ZM409.705 132.309C410.403 125.739 409.572 119.097 407.275 112.896C404.978 106.695 401.278 101.099 396.458 96.5399C391.639 91.9807 385.828 88.5796 379.475 86.5985C373.122 84.6174 366.395 84.1092 359.813 85.113C353.29 86.0837 347.077 88.5176 341.646 92.2297C336.269 95.9743 331.779 100.836 328.488 106.475C325.235 112.13 323.326 118.447 322.904 124.944C322.493 131.432 323.55 137.928 325.996 143.959L326.159 144.344L325.946 144.704L314.866 163.545L314.077 162.39L336.112 159.335H336.413L336.638 159.546C342.527 164.962 349.818 168.648 357.697 170.19C359.664 170.591 361.662 170.832 363.669 170.91C365.674 171.047 367.686 171.047 369.691 170.91C373.707 170.597 377.659 169.732 381.435 168.339C385.237 166.979 388.815 165.066 392.052 162.663C395.347 160.33 398.264 157.511 400.703 154.305C405.689 147.936 408.804 140.324 409.705 132.309Z" fill="#263238"/>
<path d="M384.602 135.998C379.664 142.555 373.362 147.981 366.123 151.908C358.886 147.977 352.585 142.552 347.643 135.998C341.145 127.453 341.458 114.089 350.773 111.158C361.065 107.953 366.123 123.329 366.123 123.329C366.123 123.329 371.256 107.854 381.485 111.158C390.712 114.188 391.113 127.453 384.602 135.998Z" fill="#AE394D"/>
</svg>
